<svg xmlns="http://www.w3.org/2000/svg" width="1387" height="1130" viewBox="0 0 1387 1130"><defs><style>.cls-1{fill:#3fb6f5;}.cls-2{fill:#7f002e;}.cls-3{fill:#fff;}</style></defs><title>Artboard 25</title><g id="Layer_3" data-name="Layer 3"><path class="cls-1" d="M1145,605c17.5037,147.8086-42.0161,312.0964-127,357-89.8036,47.45-324.11,26.8909-452,53-289,59-351.3352-113.8077-401-401C142,481,284.8306,408.9741,363,355c84-58,101-153,253-121,140.8407,29.6507,283.2749,6.483,344.6934,105.8085C1048,481,1131.6085,491.9164,1145,605Z"/><path class="cls-2" d="M404.5332,481.1963a44.9063,44.9063,0,0,0,6.4395.6221,49.5,49.5,0,0,0,6.3164.2246,60.26,60.26,0,0,0,7.0351-.5664q6.2314-.87,5.5918-5.4766a5.2064,5.2064,0,0,0-2.3984-3.3262,57.9365,57.9365,0,0,0-5.377-3.3945q-3.2285-1.8282-6.9218-4.0762a45.4275,45.4275,0,0,1-7.1036-5.3633,32.8624,32.8624,0,0,1-5.914-7.2568,25.5239,25.5239,0,0,1-3.3047-9.83,26.3176,26.3176,0,0,1,.7344-11.5683,22.84,22.84,0,0,1,5.2363-9.0186,28.9275,28.9275,0,0,1,8.8613-6.2773,39.9714,39.9714,0,0,1,11.4863-3.3282,63.6826,63.6826,0,0,1,6.5508-.5673l5.9121-.2022q3.0352-.0087,5.94,0L447.15,437.13c-.7363.0127-1.5625.0342-2.4785.0693q-1.1016.0175-2.4746.0684-1.377.0557-2.8653.2617-.8143.1143-2.0234.3516a12.4747,12.4747,0,0,0-2.2559.66,4.7656,4.7656,0,0,0-1.7656,1.2129,2.3556,2.3556,0,0,0-.5469,2.01c.1016.7226.834,1.541,2.2051,2.4551s3.0391,1.9726,5.002,3.17q2.9443,1.8017,6.5254,4.2011a40.8955,40.8955,0,0,1,6.7324,5.6934,38.3723,38.3723,0,0,1,5.625,7.6406,28.0084,28.0084,0,0,1,3.2656,10.044,32.8605,32.8605,0,0,1-.3379,11.4424,24.002,24.002,0,0,1-4.6308,9.9,28.4245,28.4245,0,0,1-9.379,7.5245,44.2528,44.2528,0,0,1-14.457,4.2959,90.6149,90.6149,0,0,1-9.6191.8554q-4.4708.1407-7.9531-.0644a65.9752,65.9752,0,0,1-7.4083-.625ZM418.1816,495.87q1.9512.1421,4.1582.11,1.9336.0087,4.0645-.0821,2.127-.0879,4.2969-.3925a31.0667,31.0667,0,0,0,7.2617-1.91,18.7313,18.7313,0,0,0,6.0293-3.8105,15.0515,15.0515,0,0,0,3.8125-5.85,16.5712,16.5712,0,0,0,.6074-8.0273,15.2324,15.2324,0,0,0-3.0039-7.1787,34.8113,34.8113,0,0,0-5.957-6.0762,86.1664,86.1664,0,0,0-7.3731-5.3252q-3.873-2.499-7.3457-5.124a37.5679,37.5679,0,0,1-5.8633-5.3994,11.5842,11.5842,0,0,1-2.8437-6.0254,9.4013,9.4013,0,0,1,2.0684-7.9551q2.748-3.0791,9.6582-4.041c.7226-.1016,1.4707-.18,2.246-.2441q1.16-.0894,2.2637-.1075a17.5736,17.5736,0,0,0,2.1875-.167l-.4922-3.5234a16.347,16.347,0,0,1-2.0508.1475q-.97,0-2.1289.09-1.163.0938-2.3808.2637-7.3183,1.02-11.5977,5-4.28,3.9843-3.2968,11.0293a13.8638,13.8638,0,0,0,2.957,6.8379,36.0443,36.0443,0,0,0,5.92,5.8056q3.4921,2.7613,7.3633,5.2588,3.873,2.499,7.3457,5.1231a33.6846,33.6846,0,0,1,5.8926,5.6006,13.0483,13.0483,0,0,1,2.9082,6.5009q.9081,6.504-3.0235,10.5059t-11.6562,5.0781a48.2286,48.2286,0,0,1-8.4961.4951q-2.0684.0132-4.0215-.1308Z"/><path class="cls-2" d="M459.2559,410.0254l53.2519-7.4238,3.3067,23.7109-24.3907,3.4,1.3985,10.0273,23.9824-3.3437,3.1367,22.4941-23.9824,3.3438,1.4531,10.4316,25.3379-3.5312,3.3066,23.7129-54.1992,7.5566Zm55.2617,73.3789-.4531-3.252-27.1,3.7793-4.1367-29.6748,25.7442-3.5888-.4532-3.252-25.7441,3.5889-4.082-29.2686,27.1-3.7793-.4531-3.2519-30.6211,4.27,9.5781,68.6992Z"/><path class="cls-2" d="M536.8164,423.3848l-16.668,2.3242-3.3066-23.7129,63.1445-8.8027,3.3067,23.7109-16.666,2.3242,9.2949,66.667-29.8106,4.1563Zm24.4492,53.5019-9.125-65.4472,19.377-2.7012-.4531-3.252-42.2774,5.8946.4531,3.2519,19.377-2.7012,9.125,65.4473Z"/><path class="cls-2" d="M599.959,414.5811l-16.668,2.3232-3.3066-23.7109,63.1445-8.8047,3.3066,23.7129-16.666,2.3232,9.295,66.667-29.8106,4.1562Zm24.4492,53.5029-9.125-65.4473,19.377-2.7012-.4532-3.2519L591.93,402.5771l.4531,3.252,19.377-2.7021,9.125,65.4472Z"/><path class="cls-2" d="M647.8691,383.7285l30.6231-4.2695,12.6016,90.3789-30.6231,4.2695Zm28.1621,77.1582-9.5781-68.6992-3.5234.49,9.5781,68.6993Z"/><path class="cls-2" d="M687.9746,378.1367,711.69,374.83l29.7871,31.3476-4.8555-34.8242,28.3184-3.9473,12.6015,90.379-23.8476,3.3242-29.6329-31.2305,4.836,34.6875-28.32,3.9492Zm27.2168,77.2891-8.7285-62.6016,53.4433,56.3672,3.5235-.49-9.5781-68.6992-3.5235.49,8.7266,62.6016-53.4414-56.3672-3.5235.4922,9.5782,68.6992Z"/><path class="cls-2" d="M836.3008,388.8125a16.6407,16.6407,0,0,0-6.5606-2.47,24.1188,24.1188,0,0,0-7.3437-.1514,17.9046,17.9046,0,0,0-6.9824,2.4238,17.2706,17.2706,0,0,0-5.0762,4.7149,18.2785,18.2785,0,0,0-2.8848,6.5488,21.1783,21.1783,0,0,0-.2969,7.7773,19.4165,19.4165,0,0,0,2.5489,7.38,18.3251,18.3251,0,0,0,4.9062,5.4639,18.9668,18.9668,0,0,0,6.5782,3.0879,19.3888,19.3888,0,0,0,7.582.3945,18.1757,18.1757,0,0,0,8.1269-3.1377,20.2462,20.2462,0,0,0,5.7578-6.2588l-8.1289,1.1329-2.6445-18.97,34.8223-4.8545,4.1953,30.08a50.39,50.39,0,0,1-6.0469,11.1348,47.7692,47.7692,0,0,1-8.6015,9.1426,46.9527,46.9527,0,0,1-10.8868,6.6269,47.6589,47.6589,0,0,1-66.664-37.2559,48.9672,48.9672,0,0,1,.9531-18.92,47.7948,47.7948,0,0,1,7.582-16.457,45.741,45.741,0,0,1,13.2188-12.2041,45.1827,45.1827,0,0,1,17.7051-6.2676,51.615,51.615,0,0,1,13.35-.3428,51.04,51.04,0,0,1,9.8222,2.084,34.6349,34.6349,0,0,1,8.1133,3.7051Zm-1.082-17.6689a22.4664,22.4664,0,0,0-4.1192-.8067,38.4861,38.4861,0,0,0-4.6035-.3252,37.1269,37.1269,0,0,0-5.7481.3867,35.14,35.14,0,0,0-13.0546,4.4454,33.7989,33.7989,0,0,0-9.85,8.625,33.0451,33.0451,0,0,0-5.7266,11.9179,36.7288,36.7288,0,0,0-.6777,14.461,35.9182,35.9182,0,0,0,4.6738,13.7138,32.7979,32.7979,0,0,0,8.9746,9.8692,35.1455,35.1455,0,0,0,12.0351,5.5732,35.6159,35.6159,0,0,0,13.84.6953,33.4488,33.4488,0,0,0,16.3242-6.7637,36.44,36.44,0,0,0,10.6973-13.4414L855.51,401.7422l-14.3633,2.0039.4531,3.2519,10.84-1.5117,1.8886,13.5508a30.921,30.921,0,0,1-23.8554,17.1387,32.8231,32.8231,0,0,1-12.44-.544,29.9315,29.9315,0,0,1-18.8672-13.9463,32.4858,32.4858,0,0,1-4.2051-12.3291,33.26,33.26,0,0,1,.6055-13.0009,30.2048,30.2048,0,0,1,5.125-10.7989,28.9845,28.9845,0,0,1,8.7988-7.7187,32.363,32.363,0,0,1,11.75-3.918,25.3221,25.3221,0,0,1,4.6621-.2344q2.2238.1041,3.9082.2833,1.9717.2811,3.6739.5937Z"/><path class="cls-2" d="M875.1191,415.584a44.8924,44.8924,0,0,0,6.4395.623,49.4828,49.4828,0,0,0,6.3164.2246,60.4382,60.4382,0,0,0,7.0352-.5664q6.2314-.87,5.5918-5.4765a5.204,5.204,0,0,0-2.3985-3.3262,58.1689,58.1689,0,0,0-5.3769-3.3945q-3.2286-1.8282-6.9219-4.0782a45.2423,45.2423,0,0,1-7.1035-5.3632,32.7909,32.7909,0,0,1-5.9141-7.2559,25.5129,25.5129,0,0,1-3.3047-9.83,26.32,26.32,0,0,1,.7344-11.5683,22.8354,22.8354,0,0,1,5.2363-9.0176,28.9311,28.9311,0,0,1,8.8614-6.2774,39.9726,39.9726,0,0,1,11.4863-3.3281,63.6813,63.6813,0,0,1,6.5508-.5683q3.2988-.1143,5.9121-.2012,3.0351-.01,5.9394,0l3.5332,25.3379q-1.1045.019-2.4785.07-1.1045.0176-2.4766.0683-1.374.0558-2.8632.2618-.8145.1141-2.0235.3515a12.3469,12.3469,0,0,0-2.2558.66,4.7414,4.7414,0,0,0-1.7657,1.2129,2.355,2.355,0,0,0-.5488,2.01q.1524,1.084,2.207,2.4541,2.0566,1.3727,5.002,3.1709,2.9443,1.8018,6.5254,4.2012a40.8315,40.8315,0,0,1,6.7324,5.6924,38.3719,38.3719,0,0,1,5.625,7.6416,28.0031,28.0031,0,0,1,3.2656,10.043,32.8649,32.8649,0,0,1-.3378,11.4433,24.0079,24.0079,0,0,1-4.6309,9.9,28.41,28.41,0,0,1-9.3789,7.5235,44.2286,44.2286,0,0,1-14.457,4.2959,90.424,90.424,0,0,1-9.6192.8564q-4.4708.1407-7.9531-.0645a66.119,66.119,0,0,1-7.4082-.625Zm13.6485,14.6738q1.9512.1436,4.1582.1113,1.9335.0088,4.0644-.082,2.127-.0907,4.2969-.3926a31.1144,31.1144,0,0,0,7.2617-1.91,18.7287,18.7287,0,0,0,6.0293-3.8106,15.0541,15.0541,0,0,0,3.8125-5.8506,16.5689,16.5689,0,0,0,.6074-8.0273,15.2356,15.2356,0,0,0-3.0039-7.1787,34.8461,34.8461,0,0,0-5.957-6.0762,86.143,86.143,0,0,0-7.373-5.3252q-3.8731-2.4975-7.3457-5.124a37.56,37.56,0,0,1-5.8633-5.3984,11.5915,11.5915,0,0,1-2.8438-6.0254,9.4056,9.4056,0,0,1,2.0684-7.9571q2.748-3.0761,9.6582-4.039,1.0839-.1524,2.2461-.2442,1.16-.0908,2.2637-.1074a17.4069,17.4069,0,0,0,2.1875-.168l-.4922-3.5234a16.5116,16.5116,0,0,1-2.0508.1484q-.97-.0014-2.1289.09-1.1631.0938-2.3809.2627-7.3183,1.0209-11.5976,5.001-4.28,3.9843-3.2969,11.0273a13.8629,13.8629,0,0,0,2.957,6.84,36.1165,36.1165,0,0,0,5.92,5.8047q3.4923,2.7627,7.3633,5.2588,3.8732,2.5,7.3457,5.124a33.6846,33.6846,0,0,1,5.8926,5.6,13.0476,13.0476,0,0,1,2.9082,6.5019q.9082,6.5038-3.0234,10.5059t-11.6563,5.0781a48.4246,48.4246,0,0,1-8.4961.4941q-2.0684.0132-4.0215-.1308Z"/><circle class="cls-2" cx="406" cy="639" r="69"/><circle class="cls-2" cx="406" cy="805" r="69"/><path class="cls-3" d="M430,681c-16-8-48-26-48-26s-21.72-1-30-1V628h30.02S413,611,430,603Z"/><path class="cls-3" d="M438.2547,652.1347a.5475.5475,0,0,1-.55-.2245,1.939,1.939,0,0,1,.0223-1.3168,1.5708,1.5708,0,0,1,1.0295-.7795c.9885-.7769,4.123-2.3453,4.0864-7.7522s-3.1675-7.3654-4.7085-7.6926a1.2592,1.2592,0,0,1-1.04-.7654,1.6232,1.6232,0,0,1,.0849-1.2018c.2514-.4411.7305-.3486.9394-.35,3.7144-.0252,6.756,4.45,6.7936,9.9958S441.9691,652.11,438.2547,652.1347Z"/><path class="cls-3" d="M441.3626,659.0826a.9253.9253,0,0,1-.93-.3794,3.2771,3.2771,0,0,1,.0377-2.226,2.6558,2.6558,0,0,1,1.74-1.3175c1.6711-1.3132,6.97-3.9645,6.9076-13.1042s-5.3542-12.45-7.9591-13.0034a2.1284,2.1284,0,0,1-1.7579-1.2938,2.7436,2.7436,0,0,1,.1434-2.0316c.4249-.7457,1.2349-.5892,1.5879-.5916,6.2788-.0426,11.42,7.5223,11.4838,16.8967S447.6413,659.04,441.3626,659.0826Z"/><path class="cls-3" d="M448.4812,664.5661a.9569.9569,0,0,1-1.0369-.503,5.0912,5.0912,0,0,1,.0388-2.9431,2.9867,2.9867,0,0,1,1.9377-1.74c1.8607-1.734,7.7626-5.2319,7.6806-17.3162s-5.9853-16.469-8.8894-17.2038a2.42,2.42,0,0,1-1.9611-1.7131,4.2473,4.2473,0,0,1,.1569-2.686,1.5619,1.5619,0,0,1,1.7691-.78c6.9981-.0475,12.7393,9.9619,12.8234,22.3564S455.4793,664.5186,448.4812,664.5661Z"/><path class="cls-3" d="M434.4514,830.2153c-.3706-2.219-2.16-3.9883-4.7641-5.0726V776.4313h-53.12v45.2765a22.1261,22.1261,0,0,0-3.8482.3047c-7.4794,1.2495-12.9281,5.94-12.17,10.4767s7.4355,7.2014,14.9148,5.9519,12.9281-5.94,12.17-10.4767c-.3706-2.219-2.16-3.9882-4.7642-5.0726V782.7337h40.5155v41.2249a22.1178,22.1178,0,0,0-3.8483.3048c-7.4793,1.2495-12.9281,5.94-12.17,10.4767s7.4355,7.2014,14.9148,5.9519S435.2093,834.7519,434.4514,830.2153Z"/></g></svg>