<svg xmlns="http://www.w3.org/2000/svg" width="635" height="565" viewBox="0 0 635 565"><defs><style>.cls-1,.cls-6{fill:#ffd4df;}.cls-1{opacity:0.43;}.cls-2{fill:#fdd4ff;}.cls-3{fill:#fff;}.cls-4{fill:#720020;}.cls-5{fill:#ff1f6b;}.cls-6{opacity:0.6;}.cls-7{fill:#ff7bac;opacity:0.25;}</style></defs><title>Bumser</title><g id="Layer_1" data-name="Layer 1"><path class="cls-1" d="M632,445.5C632,405.4594,487.9616,312,322,312S31,405.4594,31,445.5,165.5384,518,331.5,518,632,485.5406,632,445.5Z"/><path class="cls-2" d="M583,381c0-94.993,0-285-260.5-285C88,96,60,284.007,60,379s129.7278,90,262,90S583,475.993,583,381Z"/><ellipse class="cls-3" cx="321" cy="120" rx="98" ry="21"/><circle cx="183" cy="283" r="47"/><circle class="cls-3" cx="167.5" cy="267.5" r="23.5"/><ellipse class="cls-3" cx="208.5" cy="287.5" rx="17.5" ry="28.5"/><ellipse class="cls-3" cx="172.9427" cy="307.5392" rx="13.5683" ry="16.0577" transform="translate(-176.3429 357.4301) rotate(-68.778)"/><circle cx="314" cy="308" r="47"/><circle class="cls-3" cx="298.5" cy="292.5" r="23.5"/><ellipse class="cls-3" cx="339.5" cy="312.5" rx="17.5" ry="28.5"/><ellipse class="cls-3" cx="303.9427" cy="332.5392" rx="13.5683" ry="16.0577" transform="translate(-116.0672 495.4968) rotate(-68.778)"/><path class="cls-4" d="M289,369c16.0763,22.5068-43,44-74,52-31.5511,8.1422-37-49.9837-37-66S269,341,289,369Z"/><path class="cls-5" d="M215,421a299.7354,299.7354,0,0,0,34.85-11.3573C248.2045,392.1432,223,405,223,405s-17-20-29,8.5c-.0884.21-.17.42-.2535.6294C198.9963,420.1876,205.9141,423.3448,215,421Z"/><path class="cls-6" d="M234,58c-6-29,34-7,34-7s-17.9575,6.5862-17,12c-.0119,5.5566,6.6526,12.8183,15.3507,24.6675,8.4459,11.789,14.9452,22.0231,14.5577,22.0251-.0322.3863-9.8659-7.0012-20.9279-16.08C248.8194,83.8366,239.4113,76.396,234,76c-5.2058-1.3472-7,13-7,13S198,61,234,58Z"/><path class="cls-6" d="M323.59,32.5606C339.7342,7.734,352.6726,51.513,352.6726,51.513s-17.3935-7.9573-20.5229-3.437c-3.9186,3.94-4.2936,13.7887-6.4519,28.3285-2.2952,14.3194-4.8793,26.1642-5.1559,25.893-.2947.2518-2.0829-11.917-3.5538-26.1517-1.05-14.8-2.4989-26.707-6.0649-30.7963-2.7507-4.62-14.1216,4.31-14.1216,4.31S295.9009,9.3588,323.59,32.5606Z"/><path class="cls-6" d="M409.8066,50.1787c26.2183-13.7695,16.1105,30.7482,16.1105,30.7482s-11.2859-15.4428-16.2252-13.0285C404.3477,69.42,399.2071,77.83,390.2182,89.46c-9.0007,11.3712-17.044,20.4421-17.1528,20.07-.38.0756,4.0069-11.4148,9.68-24.5525,6.3167-13.4255,10.8722-24.5216,9.76-29.832-.1416-5.3754-14.4269-3.1409-14.4269-3.1409S396.989,16.4043,409.8066,50.1787Z"/><path class="cls-7" d="M534,246c0,43.9066,25.5094,84.1833,1,86-15.8553,1.1753-23.0683-43.294-29-88-5.775-43.5252-78.5767-89-54-89S534,202.0934,534,246Z"/></g></svg>
