<svg xmlns="http://www.w3.org/2000/svg" width="415" height="166" viewBox="0 0 415 166"><defs><style>.cls-1,.cls-2{fill:#2b00a5;}.cls-2{stroke:#fff;stroke-miterlimit:10;}</style></defs><title>energybar</title><g id="Layer_1" data-name="Layer 1"><rect class="cls-1" x="13" y="16" width="388" height="137" rx="12"/><path class="cls-2" d="M251,47c21,30-44,82-44,82s-62-52-45-77c20.2822-29.8267,45,13,45,13S231.5192,19.17,251,47Z"/><path class="cls-2" d="M130,48c21,30-44,82-44,82S24,78,41,53C61.2822,23.1733,86,66,86,66S110.5192,20.17,130,48Z"/><path class="cls-2" d="M372,48c21,30-44,82-44,82s-62-52-45-77c20.2822-29.8267,45,13,45,13S352.5192,20.17,372,48Z"/></g></svg>
