<svg xmlns="http://www.w3.org/2000/svg" width="1119" height="1014" viewBox="0 0 1119 1014"><defs><style>.cls-1{fill:#007;}.cls-2{fill:#fc9;}.cls-3{fill:#00a;}.cls-4,.cls-7,.cls-8,.cls-9{stroke:#000;}.cls-12,.cls-4,.cls-7,.cls-8,.cls-9{stroke-miterlimit:10;}.cls-12,.cls-5,.cls-7,.cls-8,.cls-9{fill:#fff;}.cls-6{fill:#df001f;}.cls-8{stroke-width:0.5px;}.cls-9{stroke-width:7px;}.cls-10{fill:#ffb59c;}.cls-11{fill:#ffb555;}.cls-12{stroke:#fff;stroke-width:4.1459px;}.cls-13{fill:#f8b2b0;}.cls-14{fill:#c69c6d;}.cls-15,.cls-16{fill:none;stroke:#fc9;stroke-linecap:round;stroke-linejoin:round;}.cls-15{stroke-width:6px;}.cls-16{stroke-width:4.9677px;}.cls-17{fill:#3fb6f5;}.cls-18{fill:#7f002e;}</style></defs><title>gameover</title><g id="Layer_1" data-name="Layer 1"><polygon class="cls-1" points="744.4 867.21 535.993 782.406 619.987 522.927 863.591 622.053 744.4 867.21"/><rect class="cls-2" x="579.4269" y="471.0128" width="42" height="62" rx="21" transform="translate(233.4918 -189.2816) rotate(22.1421)"/><rect class="cls-2" x="875.8274" y="591.6225" width="42" height="62" rx="21" transform="translate(300.8092 -292.1018) rotate(22.1421)"/><path class="cls-3" d="M1008.5023,369.01,981.779,358.1358l-7.2721-2.9591L727.06,254.4868a11.8669,11.8669,0,0,0-3.99-.8559,18.3416,18.3416,0,0,0-4.405-2.56l-26.7428-10.882c-7.6744-3.1228-15.9883-.676-18.4759,5.4373l-4.67,11.4774L591.5394,446.9116l-10.0588,24.72c-2.4876,6.1132,1.7558,13.67,9.43,16.7927l24.0233,9.7754-22.2375,54.6489a12.0352,12.0352,0,0,0,6.5922,15.6378L854.008,672.1351a12.0353,12.0353,0,0,0,15.6379-6.5921l22.2374-54.6489,15.6084,6.3513c9.7552,3.9695,19.772,2.2155,22.26-3.8977l91.9649-226.0054C1024.2038,381.229,1018.2576,372.98,1008.5023,369.01Z"/><line class="cls-4" x1="707.6331" y1="304.8813" x2="623.3726" y2="500.0137"/><line class="cls-4" x1="957.2579" y1="406.4573" x2="881.3337" y2="604.9819"/><polygon class="cls-5" points="917.599 346.055 780.514 290.273 728.964 621.253 728.964 621.253 917.599 346.055"/><polygon class="cls-6" points="848.896 345.089 835.929 339.813 842.841 301.6 869.702 312.53 848.896 345.089"/><polygon class="cls-6" points="846.022 360.114 834.121 362.829 827.496 352.576 835.929 339.813 848.896 345.089 846.022 360.114"/><polygon class="cls-6" points="728.964 621.253 743.577 381.046 766.376 356.855 753.019 323.35 780.514 290.273 780.514 290.273 789.5 371.663 728.964 621.253"/><polygon class="cls-6" points="728.964 621.253 879.736 436.451 880.305 403.214 913.261 388.554 916.673 345.678 916.673 345.678 853.412 397.669 728.964 621.253"/><polygon class="cls-7" points="792.771 399.444 780.412 291.851 834.772 362.554 792.771 399.444"/><polygon class="cls-7" points="828.69 417.299 917.324 345.404 833.846 362.177 828.69 417.299"/><circle class="cls-8" cx="821.8872" cy="390.2393" r="5"/><circle class="cls-8" cx="805.6803" cy="430.0681" r="5"/><circle class="cls-8" cx="791.7348" cy="464.3394" r="5"/><circle class="cls-8" cx="777.7893" cy="498.6108" r="5"/><circle class="cls-8" cx="766.859" cy="525.4721" r="5"/><circle class="cls-8" cx="754.4212" cy="556.0384" r="5"/><circle class="cls-8" cx="744.9985" cy="579.1947" r="5"/><line class="cls-9" x1="799.571" y1="583.0475" x2="860.7036" y2="607.9232"/><line class="cls-9" x1="638.4032" y1="517.4659" x2="699.5358" y2="542.3417"/><circle class="cls-10" cx="864.682" cy="282.4172" r="14"/><ellipse class="cls-11" cx="790.2197" cy="125.8018" rx="55" ry="17" transform="translate(375.8575 810.3289) rotate(-67.8579)"/><ellipse class="cls-11" cx="1027.7491" cy="215.9783" rx="55" ry="17" transform="translate(440.3346 1086.5293) rotate(-67.8579)"/><path class="cls-2" d="M1021.0572,248.3429c-5.269-2.144-12.693,3.3711-18.1716,12.8187l29.4824-72.4535a12.0352,12.0352,0,0,0-6.5921-15.6379L827.558,92.4124A12.0352,12.0352,0,0,0,811.92,99.0046l-29.4824,72.4535c2.6745-10.5886,1.2105-19.72-4.0585-21.8644-6.3944-2.602-15.9655,6.0708-21.3777,19.3712s-4.6158,26.1919,1.7786,28.7939c5.269,2.144,12.693-3.3711,18.1716-12.8187l-29.4824,72.4535a12.0352,12.0352,0,0,0,6.5921,15.6379l198.2179,80.6578a12.0352,12.0352,0,0,0,15.6379-6.5922L997.4,274.6436c-2.6745,10.5886-1.21,19.72,4.0585,21.8644,6.3944,2.602,15.9656-6.0708,21.3777-19.3712S1027.4516,250.9449,1021.0572,248.3429Z"/><path class="cls-2" d="M948.1654,358.493,749.9475,277.8352a18.0205,18.0205,0,0,1-9.8882-23.4568L760.8071,203.39a12.4633,12.4633,0,0,1-6.1409-.8277c-9.9292-4.04-12.0633-19.4383-5.0747-36.6128s19.2675-26.7076,29.1966-22.6673a12.4633,12.4633,0,0,1,4.9742,3.6951L804.51,95.9894a18.0206,18.0206,0,0,1,23.4568-9.8883l198.2179,80.6578a18.0205,18.0205,0,0,1,9.8882,23.4568l-20.7478,50.9882a12.4631,12.4631,0,0,1,6.1409.8277c9.9292,4.04,12.0633,19.4383,5.0747,36.6128s-19.2675,26.7076-29.1966,22.6673a12.4633,12.4633,0,0,1-4.9742-3.6951l-20.7478,50.9881A18.0206,18.0206,0,0,1,948.1654,358.493ZM777.356,178.6271q.1941.0789.3853.1725a5.9994,5.9994,0,0,1,2.9153,7.6482l-29.4823,72.4535A6.0065,6.0065,0,0,0,754.47,266.72L952.6882,347.378a6.0066,6.0066,0,0,0,7.819-3.2961L989.99,271.6285a6,6,0,0,1,11.3751,3.7309c-2.3432,9.2771-.4265,14.4593.5024,14.8373,1.4989.61,8.6941-4.12,13.5588-16.0752s3.0163-20.365,1.5174-20.9749c-.9289-.378-5.9194,1.9936-10.7193,10.271a6,6,0,0,1-10.7482-5.2713l29.4823-72.4535a6.0065,6.0065,0,0,0-3.2961-7.8189L823.4441,97.2161a6.0066,6.0066,0,0,0-7.819,3.2961l-29.4823,72.4534a6,6,0,0,1-11.3751-3.7309c2.3432-9.2771.4265-14.4593-.5024-14.8373-1.4988-.61-8.6941,4.12-13.5588,16.0752s-3.0163,20.365-1.5174,20.9749c.9289.378,5.9194-1.9936,10.7193-10.271A6.0012,6.0012,0,0,1,777.356,178.6271Z"/><rect class="cls-10" x="840.8472" y="227.5802" width="82" height="20" rx="10" transform="translate(154.5799 -314.8519) rotate(22.1421)"/><path class="cls-12" d="M913.0349,253.51,848.398,227.2081l-.06-.1412,1.9913-4.8937.1412-.06,64.6369,26.3017.06.1412-1.9913,4.8937Z"/><ellipse class="cls-13" cx="889.7622" cy="218.1289" rx="21" ry="10" transform="translate(352.3638 960.0588) rotate(-67.8579)"/><ellipse cx="840.087" cy="155.8102" rx="15" ry="7.5" transform="translate(379.1343 875.2166) rotate(-67.8579)"/><ellipse cx="968.836" cy="208.2" rx="15" ry="7.5" transform="translate(410.8309 1027.1144) rotate(-67.8579)"/><rect class="cls-14" x="816.2775" y="135.7279" width="58" height="12" rx="6" transform="translate(115.7558 -308.1375) rotate(22.1421)"/><rect class="cls-14" x="945.9527" y="188.4947" width="58" height="12" rx="6" transform="translate(145.2071 -353.1213) rotate(22.1421)"/><path class="cls-11" d="M1099.7873,155.6832s-47.128,40.2021-133.2472,17.0347c-83.9985-22.5968-163.9145-72.0973-164.6647-102.0921-.67-26.7774,94.3062-37.3888,164.1646,14.4394C1036.9426,137.6682,1099.7873,155.6832,1099.7873,155.6832Z"/><path class="cls-15" d="M821.0312,64.9771c24.2087,30.1111,48.4918,45.317,65.5809,53.5176,14.0232,6.7294,37.0927,13.2985,82.6593,26.162,17.1288,4.8355,31.3364,8.6943,41.0526,11.3"/><path class="cls-15" d="M822.1606,63.2257A178.1761,178.1761,0,0,0,861.2036,86.67c10.726,4.6853,13.1261,4.4529,39.107,12.6743,28.349,8.9708,47.247,16.1318,57.6321,20.2125,17.4162,6.8436,26.1244,10.2654,32.9682,14.4948,9.2815,5.7361,12.7173,9.5578,22.0255,12.2014,6.8116,1.9346,10.8156,1.5479,20.9589,4.21a118.7443,118.7443,0,0,1,15.197,5.1043"/><path class="cls-16" d="M821.6113,61.9225a205.4445,205.4445,0,0,1,61.7095,10.8791c17.88,6.1412,18.7994,9.3393,41.1831,16.7581,25.0094,8.289,31.7478,6.91,51.25,15.6113,13.3785,5.9688,14.8386,8.6839,30.4624,16.89a285.4829,285.4829,0,0,0,50.335,20.482"/></g><g id="Layer_3" data-name="Layer 3"><path class="cls-17" d="M998,591c17.5037,147.8086-42.0161,312.0964-127,357-89.8036,47.45-324.11,26.8909-452,53C130,1060,67.6648,887.1923,18,600-5,467,137.8306,394.9741,216,341c84-58,101-153,253-121,140.8407,29.6507,283.2749,6.483,344.6934,105.8085C901,467,984.6085,477.9164,998,591Z"/><path class="cls-18" d="M198.5254,478.8456a17.3321,17.3321,0,0,0-5.93-6.0351,17.6873,17.6873,0,0,0-7.4634-2.66,13.5033,13.5033,0,0,0-7.9453,1.5838,21.3649,21.3649,0,0,0-6.7778,5.9773,37.3643,37.3643,0,0,0-5.1821,9.7682,54.8575,54.8575,0,0,0-2.9615,12.6656,47.8262,47.8262,0,0,0,.1153,12.8837,32.1054,32.1054,0,0,0,3.2378,10.3531,19.5812,19.5812,0,0,0,5.8188,6.8374,13.9146,13.9146,0,0,0,7.7993,2.6452,15.6741,15.6741,0,0,0,9.5342-2.9082,30.0555,30.0555,0,0,0,8.0435-8.435q-4.4232-.1914-8.8457-.3907,1.7226-15.5288,3.4448-31.0575,18.7361,1.4752,37.48,2.8043-2.4038,23.6379-4.8061,47.2757a96.07,96.07,0,0,1-9.8208,15.854,74.5792,74.5792,0,0,1-11.999,12.46,54.441,54.441,0,0,1-13.7095,8.2484,39.9225,39.9225,0,0,1-14.6123,3.0969,33.1321,33.1321,0,0,1-19.7525-5.9,46.2989,46.2989,0,0,1-14.6709-17.1254q-5.775-11.0186-7.9785-26.2386a122.0888,122.0888,0,0,1-.0141-32.698,133.9663,133.9663,0,0,1,7.7583-31.6277,97.2016,97.2016,0,0,1,13.4907-24.768,52.6971,52.6971,0,0,1,17.5054-15.0624A31.8936,31.8936,0,0,1,190.1582,423.1a37.7921,37.7921,0,0,1,13.54,4.5363,48.0123,48.0123,0,0,1,9.25,6.9042,42.3241,42.3241,0,0,1,7.0615,8.6624Q209.385,460.6807,198.5254,478.8456Zm4.5513-28.263a19.8456,19.8456,0,0,0-3.9239-2.7222,30.3249,30.3249,0,0,0-4.5639-2.1529,26.0078,26.0078,0,0,0-5.95-1.4473,25.35,25.35,0,0,0-14.6968,2.4432A38.6026,38.6026,0,0,0,161.0215,457.28a65.5134,65.5134,0,0,0-9.9673,17.7366,98.118,98.118,0,0,0-5.7671,23.8854,91.0708,91.0708,0,0,0,.0142,24.3153,56.4568,56.4568,0,0,0,5.9184,18.8948,34.4806,34.4806,0,0,0,10.7261,12.2512,25.1418,25.1418,0,0,0,14.3687,4.4349c6.873.0455,13.373-2.344,19.4492-7.0362a59.6194,59.6194,0,0,0,15.5234-18.5685q1.4861-14.1546,2.9722-28.3093-7.766-.4595-15.5322-.944-.2865,2.637-.5738,5.2743,5.8726.3324,11.7446.6507-1.1491,10.85-2.2983,21.7006a49.254,49.254,0,0,1-13.6562,15.6658,27.8653,27.8653,0,0,1-16.9742,5.7548,23.1892,23.1892,0,0,1-12.914-3.928,30.0385,30.0385,0,0,1-9.5982-10.9933,51.9731,51.9731,0,0,1-5.3217-17.0979,81.6731,81.6731,0,0,1-.0435-21.7814,88.0986,88.0986,0,0,1,5.1543-21.3981A60.2162,60.2162,0,0,1,163.2,461.72a33.46,33.46,0,0,1,11.5606-9.5034,23.3945,23.3945,0,0,1,13.2226-2.14,17.7975,17.7975,0,0,1,4.812,1.2693q2.2243.9476,3.8784,1.8189,1.9153,1.13,3.5469,2.2116Q201.6513,452.9735,203.0767,450.5826Z"/><path class="cls-18" d="M271.08,438.1818q11.4294,1.5149,22.8672,2.9744,12.3837,68.55,26.5708,131.0917-15.7559.6387-31.5171,1.177-1.1522-5.8578-2.2905-11.7625-15.0982.297-30.2.5019-2.2171,6.17-4.4493,12.3842-15.77.4211-31.5473.7415Q246.7417,503.8846,271.08,438.1818Zm-26.582,119.98q1.9175-5.2045,3.8252-10.377,24.5456.1137,49.0859-.0178,1.0086,4.8847,2.0273,9.736,2.09-.0369,4.1783-.0753-10.4253-48.9242-19.8086-101.3334-2.7319-.2988-5.4634-.6008-18.48,49.69-38.0264,102.6933Q242.4077,558.1755,244.4976,558.162Zm36.1455-97.5327q7.5636,42.3558,15.8183,82.4418-23.1629-.0122-46.3276-.243Q265.7388,500.6492,280.6431,460.6293Zm.2636,71.8137q-2.3049-11.7451-4.5556-23.6777-4.3485,11.6319-8.7564,23.442Q274.251,532.3342,280.9067,532.443Z"/><path class="cls-18" d="M332.2822,445.8893q12.5955,1.503,25.2,2.9386,10.8663,24.865,22.1861,48.11,13.9884-22.0961,27.5507-42.71,12.62,1.3028,25.251,2.5384-2.458,54.9911-4.915,109.9821-15.9507.993-31.9112,1.883,1.1273-20.6814,2.2554-41.3627-10.9731,17.2322-22.21,35.3736-9.1692-17.2754-18.0689-35.55-1.4517,21.8258-2.9018,43.6513-15.9705.758-31.9507,1.4129Q327.5247,509.0229,332.2822,445.8893ZM342.707,556.5526q2.9766-42.4383,5.9536-84.8766,14.0713,31.4931,28.8838,60.3278,18.2307-28.9,35.751-55.3707-1.965,38.8551-3.93,77.71,1.938-.0774,3.8745-.1563,2.108-42.6879,4.2154-85.3758-1.8743-.1516-3.7491-.305-17.4894,26.5359-35.6792,55.5279Q363.2852,494.7587,349.2832,462.8q-1.872-.1787-3.7436-.3588-3.3553,47.1065-6.7115,94.2126Q340.7684,556.6038,342.707,556.5526Z"/><path class="cls-18" d="M442.5186,457.7381q28.2092,2.6991,56.457,5.062-.2784,13.0064-.5571,26.0126-13.0752-.5285-26.146-1.1284-.1773,5.7337-.3536,11.4676,12.912.36,25.8267.6506-.2665,12.346-.5327,24.6922-13.0429.2258-26.0864.3815-.1839,5.9662-.3677,11.9325,13.8458-.4173,27.6875-.9131-.2739,12.9849-.5459,25.97-29.9136,2.2908-59.8623,4.2191Q440.2785,511.9112,442.5186,457.7381Zm44.6137,92.8829q.0447-1.8123.09-3.6245-14.8683.7464-29.7422,1.4029.6093-17.3033,1.2173-34.6063,13.94.1064,27.8828.1323.0468-1.8161.0927-3.6323-13.921-.1062-27.8422-.2925.6-17.0661,1.2011-34.1322,14.4573.9538,28.9209,1.82.0447-1.8122.0908-3.6245-16.32-1.0741-32.6313-2.26-1.4685,40.29-2.9385,80.5793Q470.3067,551.56,487.1323,550.621Z"/><path class="cls-18" d="M550.8711,517.3771a45.4879,45.4879,0,0,1,4.1416-18.9023A44.1319,44.1319,0,0,1,582.022,474.451a50.7423,50.7423,0,0,1,19.5468-2.241,61.3774,61.3774,0,0,1,19.6529,4.6876,64.2333,64.2333,0,0,1,16.355,9.8112,49.364,49.364,0,0,1,11.3339,13.32,33.653,33.653,0,0,1,4.6128,15.6738,32.4136,32.4136,0,0,1-3.4526,15.8876,46.3768,46.3768,0,0,1-10.66,13.8694,62.8861,62.8861,0,0,1-16.3442,10.5346,63.9763,63.9763,0,0,1-20.2339,5.42,53.3375,53.3375,0,0,1-20.3447-1.6723,44.5361,44.5361,0,0,1-16.63-8.7729A42.1727,42.1727,0,0,1,554.7949,536.23,43.8327,43.8327,0,0,1,550.8711,517.3771Zm13.7856-.0982a31.0042,31.0042,0,0,0,2.9239,13.4824,31.3643,31.3643,0,0,0,8.1406,10.6328,34.01,34.01,0,0,0,12.1274,6.5372,39.4544,39.4544,0,0,0,14.8145,1.5043A45.1465,45.1465,0,0,0,617.4,545.7973a43.9165,43.9165,0,0,0,11.9219-7.5823,33.73,33.73,0,0,0,7.8457-10.2408,24.8831,24.8831,0,0,0,2.5722-11.92,25.5243,25.5243,0,0,0-3.292-11.78,35.2579,35.2579,0,0,0-8.2856-9.8757,44.3763,44.3763,0,0,0-11.9805-7.0913,43.7639,43.7639,0,0,0-14.4433-3.118,38.171,38.171,0,0,0-14.37,1.9358,34.3716,34.3716,0,0,0-11.7774,6.826,32.8524,32.8524,0,0,0-7.9927,10.794A31.7857,31.7857,0,0,0,564.6567,517.2789Zm37.96,28.8438a35.4239,35.4239,0,0,1-13.3081-1.4281,31.0967,31.0967,0,0,1-10.8555-5.9125,28.5074,28.5074,0,0,1-7.3335-9.4878,27.39,27.39,0,0,1-2.6494-12.05,28.14,28.14,0,0,1,2.63-12.1,29.8063,29.8063,0,0,1,7.1865-9.6423,31.4059,31.4059,0,0,1,10.5562-6.1794,34.3351,34.3351,0,0,1,12.9428-1.82,38.8115,38.8115,0,0,1,13.0093,2.732,39.5185,39.5185,0,0,1,10.7378,6.355,31.626,31.626,0,0,1,7.4478,8.8807,22.946,22.946,0,0,1,2.9477,10.6744,22.4712,22.4712,0,0,1-2.332,10.7958,30.52,30.52,0,0,1-7.0679,9.2,39.3219,39.3219,0,0,1-10.6719,6.7864A40.0213,40.0213,0,0,1,602.6162,546.1227Zm-20.9473-29.0192a16.1626,16.1626,0,0,0,1.6563,7.1739,17.5415,17.5415,0,0,0,4.4575,5.7117,19.6254,19.6254,0,0,0,6.6021,3.6342,21.9566,21.9566,0,0,0,8.0688,1.03,23.656,23.656,0,0,0,8.0269-1.7868,22.6857,22.6857,0,0,0,6.4926-4.0426,18.3587,18.3587,0,0,0,4.2979-5.66,14.38,14.38,0,0,0,1.46-6.73,14.61,14.61,0,0,0-1.7652-6.6638,18.7893,18.7893,0,0,0-4.5024-5.4862,22.8861,22.8861,0,0,0-6.5576-3.7995,23.2873,23.2873,0,0,0-7.9571-1.5128,21.6334,21.6334,0,0,0-7.9184,1.2771,19.9283,19.9283,0,0,0-6.4487,3.8166,18.0853,18.0853,0,0,0-4.3414,5.8254A16.4406,16.4406,0,0,0,581.6689,517.1035Z"/><path class="cls-18" d="M669.63,473.9879q9.0409,15.8749,18.312,30.56,7.333-15.13,14.4424-29.1165,16.8141.6831,33.6386,1.2475-15.6957,29.5467-32.52,65.1047-12.8708,1.53-25.7539,2.9925a830.1289,830.1289,0,0,1-41.72-72.5042Q652.825,473.1893,669.63,473.9879Zm22.0019,60.9341q12.9082-27.3986,25.1333-51.3225-2.03-.0365-4.0576-.0747-11.2353,21.9688-23.0268,46.8269Q674.7639,507.81,660.42,482.2534q-2.0267-.06-4.0542-.1225,15.72,28.3693,32.1514,53.0948Q690.0748,535.0744,691.6323,534.922Z"/><path class="cls-18" d="M738.19,476.7512q28.3777.939,56.7769,1.54,1.0231,6.6471,2.0478,13.2941-13.0986.2859-26.1967.5.3933,3.0479.7871,6.0957,12.92-.4439,25.8384-.9569.97,6.3139,1.9394,12.628-13.0041,1.0365-26.0117,2.0032.4094,3.1715.8188,6.3429,13.7879-1.2775,27.5664-2.6332,1.0276,6.6252,2.0547,13.25-29.6769,4.1469-59.4057,7.9329Q741.2968,506.75,738.19,476.7512ZM791.9233,524.07q-.1355-.94-.2714-1.8807-14.781,1.67-29.5743,3.25-1.1067-9.3591-2.2129-18.7181,13.9242-.7609,27.8448-1.6019-.1349-.9446-.27-1.889-13.908.76-27.8174,1.44-1.0922-9.2309-2.1831-18.4617,14.5085.0528,29.0219.0177-.1362-.94-.2714-1.8807-16.3821-.0569-32.7613-.226,2.5218,21.9015,5.042,43.8031Q775.2024,526.053,791.9233,524.07Z"/><path class="cls-18" d="M804.6509,478.4866q16.6215.318,33.2524.52a146.4652,146.4652,0,0,1,17.3755,1.217,96.3222,96.3222,0,0,1,14.4,2.9289,39.303,39.303,0,0,1,10.2666,4.42c2.66,1.7259,4.3057,3.6968,4.9321,5.9949a5.3623,5.3623,0,0,1-.7832,4.8184,16.01,16.01,0,0,1-3.6875,3.6321,33.4758,33.4758,0,0,1-5.9658,3.164q10.771,5.43,21.6743,9.8417-18.4921,2.9427-37.0068,5.7446-8.5729-4.1532-17.0581-8.9321,1.1207,5.5755,2.2417,11.1511-15.7815,2.3392-31.58,4.5763Q808.6822,503.0251,804.6509,478.4866Zm35.83,29.2608q5.7318-.5333,11.0566-1.5588,8.0684,4.4244,16.2139,8.286,2.2881-.3078,4.5776-.6178-8.5833-3.9522-17.0825-8.5267a38.9165,38.9165,0,0,0,11.7934-4.66c2.75-1.82,3.8189-3.9112,3.212-6.3579a7.3972,7.3972,0,0,0-3.5821-4.3957,28.4049,28.4049,0,0,0-7.55-3.111,68.1777,68.1777,0,0,0-10.5635-1.9243,110.5379,110.5379,0,0,0-12.7749-.6218q-7.8318.054-15.663.0823,3.2064,17.7487,6.4126,35.4975,1.9218-.2418,3.8422-.4852-.9719-5.2508-1.9443-10.5015Q834.4548,508.3078,840.481,507.7474Zm-12.3584-.5525q-1.9637-10.6047-3.9268-21.2095,5.951-.0614,11.9033-.1373c8.8067-.1088,15.88.6438,21.2456,2.1338,5.3662,1.4987,8.4082,3.6278,9.1128,6.5456.7012,2.9177-1.2646,5.3227-5.93,7.3491-4.6626,2.0178-11.4585,3.5015-20.3642,4.283Q834.1426,506.6848,828.1226,507.1949Zm11.6733-6.5759q.8049-.0543,1.6094-.1088a33.9055,33.9055,0,0,0,9.208-1.725c2.4267-.8884,3.46-2.1486,3.0893-3.8094-.3662-1.6605-1.9218-2.784-4.6474-3.4055a38.3079,38.3079,0,0,0-9.6216-.7678q-.8.0255-1.6011.0507Q838.8147,495.7361,839.7959,500.619Z"/><path class="cls-18" d="M372.6006,617.7852h-8.5674V605.5967H396.49v12.1885h-8.5673v34.2675H372.6006Zm8.5664,28.6953V612.84h9.96V611.168H369.3965V612.84h9.96v33.6407Z"/><path class="cls-18" d="M398.9268,605.5967h16.0195A27.607,27.607,0,0,1,423.2,606.78a19.22,19.22,0,0,1,6.582,3.4824,15.9668,15.9668,0,0,1,4.3526,5.6768,18.2635,18.2635,0,0,1,1.5673,7.7656,15.9457,15.9457,0,0,1-.9755,5.92,18.1655,18.1655,0,0,1-2.1582,4.04,15.0712,15.0712,0,0,1-3.1348,3.0645l8.706,15.3232H420.7275l-6.9648-11.77v11.77H398.9268Zm14.4873,30.2969a24.9476,24.9476,0,0,0,5.2939-.5567l6.6162,11.1436h2.1592l-6.9648-11.7012a13.0854,13.0854,0,0,0,5.99-4.0742,10.9869,10.9869,0,0,0,2.2285-7.1387,11.5614,11.5614,0,0,0-1.1846-5.3633,11.3434,11.3434,0,0,0-3.2382-3.8662,14.5463,14.5463,0,0,0-4.8409-2.3681,21.8887,21.8887,0,0,0-6.0595-.8008h-7.5225v35.3125h1.8115V635.8936Zm-5.711-1.6709V612.84h5.711q6.3369,0,9.9248,2.7862a9.4614,9.4614,0,0,1,3.5869,7.94,9.3613,9.3613,0,0,1-3.5869,7.9043q-3.5874,2.7525-9.9248,2.752Zm6.06-5.7813h.7656a8.1464,8.1464,0,0,0,4.4932-1.1836,5.1929,5.1929,0,0,0,0-7.94,8.1551,8.1551,0,0,0-4.4932-1.1846h-.7656Z"/><path class="cls-18" d="M450.1191,632.0635l-14.417-26.4668H452.209l5.3633,9.82,5.2929-9.82h16.5069l-14.417,26.4668v19.9892h-14.836Zm8.3584,14.417V629.834l10.169-18.666h-2.1592l-8.915,16.5068-8.9854-16.5068h-2.09l10.1,18.666v16.6465Z"/><path class="cls-18" d="M508.1367,605.5967H519.28l17.622,46.456H522.2754l-1.5322-4.1787H506.6738l-1.5322,4.1787h-14.626Zm-7.2441,40.8838,1.3242-3.4825h22.9844l1.3232,3.4825h1.95L515.0322,611.168h-2.6465l-13.4433,35.3125ZM513.709,612.84l10.8652,28.4864H502.8428Zm3.1338,24.795-3.1338-8.1485-3.1348,8.1485Z"/><path class="cls-18" d="M567.5479,621.4072a8.5007,8.5007,0,0,0-3.1348-1.707,12.282,12.282,0,0,0-3.6914-.5918,9.1142,9.1142,0,0,0-3.6914.7314,8.7776,8.7776,0,0,0-2.8907,2.02,9.3268,9.3268,0,0,0-1.915,3.1,10.7668,10.7668,0,0,0-.6963,3.9,9.9078,9.9078,0,0,0,.7656,3.9,9.3473,9.3473,0,0,0,2.09,3.1,9.6511,9.6511,0,0,0,3.1,2.0195,9.87,9.87,0,0,0,3.7959.7315,9.2467,9.2467,0,0,0,4.3184-1.01,10.32,10.32,0,0,0,3.3427-2.751h-4.1787v-9.751h17.9v15.4619a25.6687,25.6687,0,0,1-3.831,5.1885,24.306,24.306,0,0,1-4.9805,4.0049,23.885,23.885,0,0,1-5.9551,2.5772,24.2641,24.2641,0,0,1-30.9941-23.4717,24.9176,24.9176,0,0,1,1.8115-9.4727,24.3442,24.3442,0,0,1,4.98-7.7656,23.28,23.28,0,0,1,7.5224-5.2236,23.0063,23.0063,0,0,1,9.3682-1.9161,26.2867,26.2867,0,0,1,6.7559.7666,25.9274,25.9274,0,0,1,4.8056,1.7413,17.6389,17.6389,0,0,1,3.8311,2.4375Zm.6962-8.9853a11.4523,11.4523,0,0,0-2.0195-.6963,19.5773,19.5773,0,0,0-2.2988-.4873,18.7849,18.7849,0,0,0-2.9248-.209,17.8835,17.8835,0,0,0-6.8955,1.3232,17.2162,17.2162,0,0,0-5.5723,3.6563,16.8281,16.8281,0,0,0-3.7266,5.6074,18.73,18.73,0,0,0-1.3574,7.2432,18.2934,18.2934,0,0,0,1.3926,7.2431,16.7028,16.7028,0,0,0,3.8311,5.6075,17.9152,17.9152,0,0,0,5.6757,3.6562,18.1318,18.1318,0,0,0,6.9307,1.3233,17.02,17.02,0,0,0,8.7061-2.2637,18.5235,18.5235,0,0,0,6.3378-6.0244v-9.1241H568.94v1.6719h5.5723v6.9649a15.7469,15.7469,0,0,1-13.2334,6.9648,16.7043,16.7043,0,0,1-6.2334-1.1494,15.2271,15.2271,0,0,1-8.5322-8.3574,16.5309,16.5309,0,0,1-1.2539-6.5127,16.9516,16.9516,0,0,1,1.2187-6.5127,15.3626,15.3626,0,0,1,3.3438-5.084,14.7244,14.7244,0,0,1,4.9795-3.2734,16.4388,16.4388,0,0,1,6.1992-1.1495,12.8237,12.8237,0,0,1,2.3681.209q1.1133.21,1.95.418.9742.2782,1.8106.5566Z"/><path class="cls-18" d="M600.2822,605.5967h11.1436l17.6221,46.456h-14.627l-1.5322-4.1787H598.8193l-1.5322,4.1787h-14.626Zm-7.2441,40.8838,1.3242-3.4825h22.9844l1.3232,3.4825h1.95L607.1777,611.168h-2.6464l-13.4434,35.3125ZM605.8545,612.84,616.72,641.3262H594.9883Zm3.1338,24.795-3.1338-8.1485-3.1348,8.1485Z"/><path class="cls-18" d="M630.0918,605.5967H645.833v46.456H630.0918Zm8.7764,40.8838V611.168h-1.8116v35.3125Z"/><path class="cls-18" d="M650.707,605.5967h12.1895l12.8154,17.8994V605.5967h14.5567v46.456H678.01l-12.7461-17.83v17.83H650.707Zm8.2891,40.8838V614.3027l22.9844,32.1778h1.8105V611.168h-1.8105v32.1787L658.9961,611.168h-1.8115v35.3125Z"/><path class="cls-18" d="M695.6309,638.332a14.7738,14.7738,0,0,1,.9746-5.6416,26.3547,26.3547,0,0,1,2.1591-4.2138q1.1837-1.8457,2.1592-3.3086a5.2485,5.2485,0,0,0,.9746-2.9258,3.6566,3.6566,0,0,0-.5566-2.124,3.8687,3.8687,0,0,0-1.4629-1.2539,6.38,6.38,0,0,0-2.124-.5918,22.4312,22.4312,0,0,0-2.542-.14H693.75V605.1787q1.2539-.2094,2.1934-.3486t1.707-.209c.51-.0459,1.01-.08,1.4971-.1045q.731-.0338,1.707-.0352a23.82,23.82,0,0,1,7.1738,1.0108,15.9576,15.9576,0,0,1,5.4668,2.89,13.1382,13.1382,0,0,1,3.5176,4.5274,13.499,13.499,0,0,1,1.2539,5.8506,12.3626,12.3626,0,0,1-1.2187,5.5371,50.52,50.52,0,0,1-2.6817,4.7715q-1.4634,2.2983-2.6816,4.5273a9.726,9.726,0,0,0-1.2188,4.7363Zm0,2.0889h14.9043v11.6318H695.6309Zm9.2627-6.4775a6.3451,6.3451,0,0,1,.9052-2.9248q.9052-1.6714,1.9854-3.587t1.9853-3.9355a9.667,9.667,0,0,0,.9053-3.97,8.0624,8.0624,0,0,0-2.3682-6.06q-2.3687-2.2983-7.3828-2.2988h-1.8105V612.84h1.8105a12.1147,12.1147,0,0,1,3.0645.3829,7.7408,7.7408,0,0,1,2.5771,1.1845,5.798,5.798,0,0,1,1.7764,2.0889,6.5664,6.5664,0,0,1,.6611,3.03,9.5861,9.5861,0,0,1-.9052,4.0048q-.9054,1.985-1.9854,3.8653t-1.9844,3.5527a6.4208,6.4208,0,0,0-.9052,2.9942Zm1.4628,13.0947v-1.6026H699.81v1.6026Z"/></g></svg>
