<svg xmlns="http://www.w3.org/2000/svg" width="667" height="583" viewBox="0 0 667 583"><defs><style>.cls-1{fill:#ff7bac;}.cls-2{fill:#ff8fac;}.cls-3{fill:#fff;}.cls-4{fill:none;stroke:#000;stroke-miterlimit:10;stroke-width:3px;}</style></defs><title>Hudorm</title><g id="Layer_1" data-name="Layer 1"><path class="cls-1" d="M578,319c55,86,72.8793,109.315,62,134-13.19,29.9287-51.7349-8.6093-112,0-63,9-39.0654,74.1542-72,87-37.5669,14.6526-81.56-20-126-20-35.9193,0-120.3,33.7931-152,24-57.8137-17.86.0542-60.2974-33-102C116.06,405.4882,23,367.6814,23,321c0-43.867,83.1971-41.9119,109-77,25.1069-34.1417-7.7644-105.6439,34.5649-125.6077S258.5573,125,311,125c45.7055,0,92.7749-119.139,164-40,18,20,54,116,103,116C623.8692,201,553.2071,280.2329,578,319Z"/><path class="cls-2" d="M557.2015,314.2158C610.14,396.29,627.35,418.5405,616.878,442.0986c-12.696,28.5624-49.7961-8.2163-107.8028,0-60.6391,8.5891-37.6014,70.7689-69.3018,83.0284C403.6143,539.1107,361.27,506.04,318.4952,506.04c-34.5732,0-115.7918,32.25-146.304,22.9044-55.6471-17.0449.0522-57.5448-31.7631-97.3437C112.5729,396.7557,23,360.6749,23,316.1245,23,274.26,103.0793,276.126,127.9152,242.64c24.1661-32.5831-7.4734-100.8211,33.27-119.8736s88.545,6.3061,139.0225,6.3061c43.9926,0,89.2981-113.7,157.8541-38.174,17.3254,19.087,51.9763,110.7045,99.14,110.7045C601.3517,201.6026,533.3376,277.2184,557.2015,314.2158Z"/><circle class="cls-3" cx="443" cy="298" r="75"/><path class="cls-4" d="M443,298c5.6987.6862,10.2963-1.919,11-5,.8918-3.9047-4.6819-7.6494-8-9-.757-.3081-7.424-2.8961-13,1-4.9891,3.486-6.4426,10.3028-5,15,2.9148,9.4907,19.26,15.5636,30,9,7.4476-4.5516,10.4128-14.088,9-22-1.9311-10.8149-11.531-15.7347-14-17-12.738-6.528-25.2343-.3923-26,0-11.968,6.1314-14.65,18.2746-15,20-2.312,11.3979,3.1171,20.2639,5,23,8.0991,11.7689,22.9193,15.2286,34,14,15.2447-1.69,31.7835-13.1826,34-30,2.3781-18.0436-13.2237-30.89-17-34-3.5706-2.94-19.9285-15.526-40-10-19.1377,5.2689-26.7928,22.9127-29,28-2.1282,4.9052-8.7817,20.2407-2,36,7.8353,18.2076,27.7509,23.3777,34,25,19.69,5.1115,47.507,1.3942,61-18,8.244-11.8495,8.0746-25.1437,8-31-.0728-5.715-.2673-20.9786-11-34-10.708-12.9914-25.4423-15.9092-36-18-8.9921-1.7807-26.2846-5.2051-45,4-20.52,10.0925-28.4907,28.3539-30,32-1.6033,3.8733-11.2719,28.3671,2,52,10.7758,19.188,29.6476,25.2965,38,28,23.7672,7.6929,43.92,1.09,50-1,8.8428-3.0394,30.2443-10.3954,41-32,7.7565-15.58,5.9111-30.4044,5-37-3.8253-27.6931-23.0417-43.8171-27-47-23.7441-19.0924-50.7263-16.5946-56-16"/><circle class="cls-3" cx="246" cy="236" r="75"/><path class="cls-4" d="M246,236c4.5352-3.5182,5.9736-8.6031,4.3081-11.2889-2.1107-3.404-8.7072-2.1488-12.0165-.7768-.7549.313-7.3158,3.1593-8.5425,9.85-1.0976,5.9865,2.6609,11.8564,6.989,14.1828,8.7449,4.7006,24.6389-2.4711,27.6628-14.6891,2.0969-8.4727-2.4983-17.3394-9.0652-21.9732-8.9763-6.334-19.2622-3.0842-21.9077-2.2484-13.6483,4.3122-18.2222,17.4606-18.491,18.278-4.2012,12.774,2.428,23.2956,3.392,24.7688,6.3685,9.7314,16.4624,12.22,19.7249,12.8424,14.0335,2.6763,27.0057-5.2817,34.0226-13.9452,9.6536-11.919,13.3369-31.719,3.0906-45.2377-10.9933-14.5043-31.12-12.6729-35.9922-12.23-4.6063.4192-25.0877,2.9677-35.4777,21.008-9.9065,17.2009-2.9473,35.13-.9406,40.3,1.9347,4.9846,7.9836,20.5685,23.8855,27.0089,18.3723,7.441,36.1707-2.8827,41.7555-6.1221,17.5968-10.2067,34.7667-32.4057,30.7288-55.6842-2.4671-14.2228-11.9334-23.5584-16.1034-27.671-4.0694-4.0133-14.9379-14.7319-31.725-16.4476-16.7484-1.7117-29.2786,6.5714-38.2569,12.5064-7.647,5.0551-22.3526,14.7762-29.1917,34.48-7.4984,21.6029-.33,40.194,1.16,43.8481,1.5827,3.8817,11.9255,28.0985,37.9783,35.576,21.1527,6.0711,38.8685-2.8515,46.7092-6.8,22.3111-11.2371,32.0019-30.101,34.8566-35.861,4.1523-8.3781,14.2016-28.6548,6.663-51.5811-5.4364-16.5333-17.17-25.7788-22.4549-29.8291-22.1886-17.0059-47.19-14.9642-52.243-14.4452-30.3086,3.1137-47.7421,23.8585-51.0748,27.9888"/><path class="cls-4" d="M250.6957,323.52c.8759,3.7636,6.593,26.0933,35.4443,40.4258,27.8291,13.8248,65.84,14.5747,94.75,1.4584"/></g></svg>
