<svg xmlns="http://www.w3.org/2000/svg" width="297" height="295" viewBox="0 0 297 295"><defs><style>.cls-1{fill:#999;}</style></defs><title>Indstillinger</title><g id="Layer_3" data-name="Layer 3"><path class="cls-1" d="M217.8989,122.0491c-8.14-19.5442,29.981-40.76,25.4268-49.158-5.3115-9.793-7.5972-9.133-15.3389-17.0181-7.0068-7.1362-40.46,25.5992-49.0752,20.4085-11.4868-6.9209,1.31-50.9407-12.2827-53.6487a119.2286,119.2286,0,0,0-23.314-2.29c-10.5009,0-10.645,49.9873-20.3413,52.5478C108.7021,76.66,90.5312,23.79,78.9,32.209,66.4321,41.2339,61.291,40.9673,56.8647,54.2451c-3.39,10.1707,32.2051,43.2312,30.5118,49.1577-3.39,11.8658-54.96-4.3867-55.938-1.6948-3.1211,8.5869-1.439,18.1441-3.39,27.1213s55.938,9.88,55.938,16.951c0,14.2556-53.7666,31.4106-49.1577,44.0727,4.586,12.5994,8.1983,13.9358,16.5191,24.1294,7.0795,8.6729,45.4448-22.0322,54.6748-15.654,10.3276,7.1364-8.2417,51.0349,4.103,54.6242a118.7,118.7,0,0,0,33.1894,4.7041c7.1685,0,.8682-40.2573,16.9507-45.7675,11.0728-3.7937,46.2578,27.0315,49.1582,25.4262,10.9517-6.0605,12.1045-8.2273,20.5884-17.3025,6.437-6.8859-21.8618-37.1469-17.1987-45.416,5.9424-10.5361,44.247.5359,46.7475-11.6833A119.1943,119.1943,0,0,0,261.9717,139C261.9717,128.7751,221.6567,131.0713,217.8989,122.0491ZM145.01,162.7314A23.7314,23.7314,0,1,1,168.7412,139,23.7315,23.7315,0,0,1,145.01,162.7314Z"/></g></svg>
