<svg xmlns="http://www.w3.org/2000/svg" width="1119" height="1014" viewBox="0 0 1119 1014"><defs><style>.cls-1{fill:#007;}.cls-2{fill:#fc9;}.cls-3{fill:#00a;}.cls-4,.cls-7,.cls-8,.cls-9{stroke:#000;}.cls-12,.cls-4,.cls-7,.cls-8,.cls-9{stroke-miterlimit:10;}.cls-12,.cls-5,.cls-7,.cls-8,.cls-9{fill:#fff;}.cls-6{fill:#df001f;}.cls-8{stroke-width:0.5px;}.cls-9{stroke-width:7px;}.cls-10{fill:#ffb59c;}.cls-11{fill:#ffb555;}.cls-12{stroke:#fff;stroke-width:4.1459px;}.cls-13{fill:#f8b2b0;}.cls-14{fill:#c69c6d;}.cls-15,.cls-16{fill:none;stroke:#fc9;stroke-linecap:round;stroke-linejoin:round;}.cls-15{stroke-width:6px;}.cls-16{stroke-width:4.9677px;}.cls-17{fill:#3fb6f5;}.cls-18{fill:#7f002e;}</style></defs><title>levelcomplete</title><g id="Layer_1" data-name="Layer 1"><polygon class="cls-1" points="744.4 867.21 535.993 782.406 619.987 522.927 863.591 622.053 744.4 867.21"/><rect class="cls-2" x="579.4269" y="471.0128" width="42" height="62" rx="21" transform="translate(233.4918 -189.2816) rotate(22.1421)"/><rect class="cls-2" x="875.8274" y="591.6225" width="42" height="62" rx="21" transform="translate(300.8092 -292.1017) rotate(22.1421)"/><path class="cls-3" d="M1008.5023,369.01,981.779,358.1358l-7.2721-2.9591L727.06,254.4868a11.8669,11.8669,0,0,0-3.99-.8559,18.3416,18.3416,0,0,0-4.405-2.56l-26.7428-10.882c-7.6744-3.1228-15.9883-.676-18.4759,5.4373l-4.67,11.4774L591.5394,446.9116l-10.0588,24.72c-2.4876,6.1132,1.7558,13.67,9.43,16.7927l24.0233,9.7754-22.2375,54.6489a12.0352,12.0352,0,0,0,6.5922,15.6378L854.008,672.1351a12.0353,12.0353,0,0,0,15.6379-6.5921l22.2374-54.6489,15.6084,6.3513c9.7552,3.9695,19.772,2.2155,22.26-3.8977l91.9649-226.0054C1024.2038,381.229,1018.2576,372.98,1008.5023,369.01Z"/><line class="cls-4" x1="707.6331" y1="304.8813" x2="623.3726" y2="500.0137"/><line class="cls-4" x1="957.2579" y1="406.4573" x2="881.3337" y2="604.9819"/><polygon class="cls-5" points="917.599 346.055 780.514 290.273 728.964 621.253 728.964 621.253 917.599 346.055"/><polygon class="cls-6" points="848.896 345.089 835.929 339.813 842.841 301.6 869.702 312.53 848.896 345.089"/><polygon class="cls-6" points="846.022 360.114 834.121 362.829 827.496 352.576 835.929 339.813 848.896 345.089 846.022 360.114"/><polygon class="cls-6" points="728.964 621.253 743.577 381.046 766.376 356.855 753.019 323.35 780.514 290.273 780.514 290.273 789.5 371.663 728.964 621.253"/><polygon class="cls-6" points="728.964 621.253 879.736 436.451 880.305 403.214 913.261 388.554 916.673 345.678 916.673 345.678 853.412 397.669 728.964 621.253"/><polygon class="cls-7" points="792.771 399.444 780.412 291.851 834.772 362.554 792.771 399.444"/><polygon class="cls-7" points="828.69 417.299 917.324 345.404 833.846 362.177 828.69 417.299"/><circle class="cls-8" cx="821.8872" cy="390.2393" r="5"/><circle class="cls-8" cx="805.6803" cy="430.0681" r="5"/><circle class="cls-8" cx="791.7348" cy="464.3394" r="5"/><circle class="cls-8" cx="777.7893" cy="498.6108" r="5"/><circle class="cls-8" cx="766.859" cy="525.4721" r="5"/><circle class="cls-8" cx="754.4212" cy="556.0384" r="5"/><circle class="cls-8" cx="744.9985" cy="579.1947" r="5"/><line class="cls-9" x1="799.571" y1="583.0475" x2="860.7036" y2="607.9232"/><line class="cls-9" x1="638.4032" y1="517.4659" x2="699.5358" y2="542.3417"/><circle class="cls-10" cx="864.682" cy="282.4172" r="14"/><ellipse class="cls-11" cx="790.2197" cy="125.8018" rx="55" ry="17" transform="translate(375.8575 810.3289) rotate(-67.8579)"/><ellipse class="cls-11" cx="1027.7491" cy="215.9783" rx="55" ry="17" transform="translate(440.3346 1086.5293) rotate(-67.8579)"/><path class="cls-2" d="M1021.0572,248.3429c-5.269-2.144-12.693,3.3711-18.1716,12.8187l29.4824-72.4535a12.0352,12.0352,0,0,0-6.5921-15.6379L827.558,92.4124A12.0352,12.0352,0,0,0,811.92,99.0046l-29.4824,72.4535c2.6745-10.5886,1.2105-19.72-4.0585-21.8644-6.3944-2.602-15.9655,6.0708-21.3777,19.3712s-4.6158,26.1919,1.7786,28.7939c5.269,2.144,12.693-3.3711,18.1716-12.8187l-29.4824,72.4535a12.0352,12.0352,0,0,0,6.5921,15.6379l198.2179,80.6578a12.0352,12.0352,0,0,0,15.6379-6.5922L997.4,274.6436c-2.6745,10.5886-1.21,19.72,4.0585,21.8644,6.3944,2.602,15.9656-6.0708,21.3777-19.3712S1027.4516,250.9449,1021.0572,248.3429Z"/><path class="cls-2" d="M948.1654,358.493,749.9475,277.8352a18.0205,18.0205,0,0,1-9.8882-23.4568L760.8071,203.39a12.4633,12.4633,0,0,1-6.1409-.8277c-9.9292-4.04-12.0633-19.4383-5.0747-36.6128s19.2675-26.7076,29.1966-22.6673a12.4633,12.4633,0,0,1,4.9742,3.6951L804.51,95.9894a18.0206,18.0206,0,0,1,23.4568-9.8883l198.2179,80.6578a18.0205,18.0205,0,0,1,9.8882,23.4568l-20.7478,50.9882a12.4631,12.4631,0,0,1,6.1409.8277c9.9292,4.04,12.0633,19.4383,5.0747,36.6128s-19.2675,26.7076-29.1966,22.6673a12.4633,12.4633,0,0,1-4.9742-3.6951l-20.7478,50.9881A18.0206,18.0206,0,0,1,948.1654,358.493ZM777.356,178.6271q.1941.0789.3853.1725a5.9994,5.9994,0,0,1,2.9153,7.6482l-29.4823,72.4535A6.0065,6.0065,0,0,0,754.47,266.72L952.6882,347.378a6.0066,6.0066,0,0,0,7.819-3.2961L989.99,271.6285a6,6,0,0,1,11.3751,3.7309c-2.3432,9.2771-.4265,14.4593.5024,14.8373,1.4989.61,8.6941-4.12,13.5588-16.0752s3.0163-20.365,1.5174-20.9749c-.9289-.378-5.9194,1.9936-10.7193,10.271a6,6,0,0,1-10.7482-5.2713l29.4823-72.4535a6.0065,6.0065,0,0,0-3.2961-7.8189L823.4441,97.2161a6.0066,6.0066,0,0,0-7.819,3.2961l-29.4823,72.4534a6,6,0,0,1-11.3751-3.7309c2.3432-9.2771.4265-14.4593-.5024-14.8373-1.4988-.61-8.6941,4.12-13.5588,16.0752s-3.0163,20.365-1.5174,20.9749c.9289.378,5.9194-1.9936,10.7193-10.271A6.0012,6.0012,0,0,1,777.356,178.6271Z"/><rect class="cls-10" x="840.8472" y="227.5802" width="82" height="20" rx="10" transform="translate(154.5799 -314.8518) rotate(22.1421)"/><path class="cls-12" d="M913.0349,253.51,848.398,227.2081l-.06-.1412,1.9913-4.8937.1412-.06,64.6369,26.3017.06.1412-1.9913,4.8937Z"/><ellipse class="cls-13" cx="889.7622" cy="218.1289" rx="21" ry="10" transform="translate(352.3638 960.0588) rotate(-67.8579)"/><ellipse cx="840.087" cy="155.8102" rx="15" ry="7.5" transform="translate(379.1343 875.2166) rotate(-67.8579)"/><ellipse cx="968.836" cy="208.2" rx="15" ry="7.5" transform="translate(410.8309 1027.1144) rotate(-67.8579)"/><rect class="cls-14" x="816.2775" y="135.7279" width="58" height="12" rx="6" transform="translate(115.7558 -308.1375) rotate(22.1421)"/><rect class="cls-14" x="945.9527" y="188.4947" width="58" height="12" rx="6" transform="translate(145.2071 -353.1213) rotate(22.1421)"/><path class="cls-11" d="M1099.7873,155.6832s-47.128,40.2021-133.2472,17.0347c-83.9985-22.5968-163.9145-72.0973-164.6647-102.0921-.67-26.7774,94.3062-37.3888,164.1646,14.4394C1036.9426,137.6682,1099.7873,155.6832,1099.7873,155.6832Z"/><path class="cls-15" d="M821.0312,64.9771c24.2087,30.1111,48.4918,45.317,65.5809,53.5176,14.0232,6.7294,37.0927,13.2985,82.6593,26.162,17.1288,4.8355,31.3364,8.6943,41.0526,11.3"/><path class="cls-15" d="M822.1606,63.2257A178.1761,178.1761,0,0,0,861.2036,86.67c10.726,4.6853,13.1261,4.4529,39.107,12.6743,28.349,8.9708,47.247,16.1318,57.6321,20.2125,17.4162,6.8436,26.1244,10.2654,32.9682,14.4948,9.2815,5.7361,12.7173,9.5578,22.0255,12.2014,6.8116,1.9346,10.8156,1.5479,20.9589,4.21a118.7443,118.7443,0,0,1,15.197,5.1043"/><path class="cls-16" d="M821.6113,61.9225a205.4445,205.4445,0,0,1,61.7095,10.8791c17.88,6.1412,18.7994,9.3393,41.1831,16.7581,25.0094,8.289,31.7478,6.91,51.25,15.6113,13.3785,5.9688,14.8386,8.6839,30.4624,16.89a285.4829,285.4829,0,0,0,50.335,20.482"/></g><g id="Layer_3" data-name="Layer 3"><path class="cls-17" d="M998,591c17.5037,147.8086-42.0161,312.0964-127,357-89.8036,47.45-324.11,26.8909-452,53C130,1060,67.6648,887.1923,18,600-5,467,137.8306,394.9741,216,341c84-58,101-153,253-121,140.8407,29.6507,283.2749,6.483,344.6934,105.8085C901,467,984.6085,477.9164,998,591Z"/><path class="cls-18" d="M154.7178,424.0656q10.6178-.0727,21.2349-.1656,3.0168,52.8537,6.0327,105.7074,8.7261-1.9655,17.4565-3.8865,1.0476,18.138,2.0956,36.276-19.2126,5.6767-38.3847,11.6681Q158.9357,498.8654,154.7178,424.0656Zm40.5557,122.7369q-.1449-2.5144-.2893-5.0288-10.6153,2.68-21.22,5.4378-3-52.8621-6-105.7244l-2.483.1078q3.16,55.7685,6.3212,111.5369Q183.4315,549.9158,195.2735,546.8025Z"/><path class="cls-18" d="M196.8974,423.6993q18.7912-.1961,37.5769-.445.9988,16.676,1.9979,33.3517-8.5861.7064-17.1714,1.4207.4315,7.3059.861,14.6121,8.4327-.9564,16.87-1.898.9485,15.8276,1.896,31.655-8.4194,1.4945-16.8347,3.0214.4481,7.6023.896,15.2046,8.8812-1.8926,17.7686-3.74.9989,16.6526,1.9968,33.3055-18.971,5.2684-37.904,10.8336Q200.8738,492.36,196.8974,423.6993Zm37.919,112.997q-.1383-2.317-.2758-4.6341-9.4946,2.2654-18.9811,4.5916-1.2861-21.9944-2.5724-43.989,9.04-1.39,18.0837-2.7519-.1378-2.3218-.2761-4.6439-9.0477,1.2747-18.09,2.5751-1.2686-21.6932-2.5374-43.3862,9.5486-.5183,19.0965-1.0362-.138-2.3178-.276-4.6354-10.7916.4818-21.5855.96,2.9873,51.1787,5.9738,102.3576Q224.09,539.36,234.8164,536.6963Z"/><path class="cls-18" d="M257.8937,422.9276q7.02,26.2454,14.01,51.316,3.83-26.4076,7.6873-51.6486,11.1334-.1776,22.2674-.3682-8.8157,55.4394-17.5148,116.7712-8.2222,2.1417-16.4374,4.3367Q251.8432,486.4112,235.62,423.2392,246.7574,423.0915,257.8937,422.9276ZM276.2361,526.72q6.6114-47.0988,13.3066-90.6521l-2.6751.12q-6.1248,39.852-12.1865,82.6106-11.1117-39.0613-22.2934-81.06l-2.6742.12q12.31,46.4747,24.5259,89.3278Q275.2383,526.9525,276.2361,526.72Z"/><path class="cls-18" d="M303.2923,422.2022q18.7776-.3222,37.5525-.6758.93,13.3435,1.86,26.6869-8.594.6488-17.1867,1.3078.3954,5.8518.7917,11.7037,8.4469-.8574,16.8956-1.6983.8826,12.6648,1.7645,25.33-8.4432,1.2959-16.8844,2.6229.4117,6.089.8236,12.1782,8.9127-1.632,17.8338-3.2219.93,13.3245,1.86,26.649-19.0683,4.4824-38.1029,9.2388Q306.896,477.2628,303.2923,422.2022ZM340.696,512.385q-.1283-1.8546-.2554-3.7095-9.5335,1.9405-19.0623,3.9379-1.1754-17.6253-2.3518-35.25,9.0612-1.2221,18.1269-2.4153-.1276-1.8587-.2559-3.7175-9.0654,1.1218-18.1288,2.27-1.16-17.3838-2.3194-34.7676,9.55-.507,19.1018-1.01-.1278-1.8552-.2559-3.71-10.7939.4831-21.587.9684,2.7257,41.0181,5.4514,82.0361Q329.9237,514.6625,340.696,512.385Z"/><path class="cls-18" d="M347.2457,421.4056q10.6044-.2013,21.2091-.41,2.5991,35.37,5.1982,70.7408,8.7833-1.5021,17.5717-2.9642.9239,12.1162,1.8462,24.2322-19.39,4.2347-38.7485,8.7418Q350.7841,471.5758,347.2457,421.4056Zm39.6328,81.5659q-.1269-1.68-.2534-3.3611-10.6963,2.0229-21.3847,4.1147-2.5559-35.41-5.1106-70.8208l-2.4831.11q2.6835,37.3671,5.3669,74.7341Q374.9409,505.315,386.8785,502.9715Z"/><path class="cls-18" d="M410.5768,464.4214a63.7092,63.7092,0,0,1,1.1494-19.3233,44.5017,44.5017,0,0,1,6.0939-14.8523,28.5645,28.5645,0,0,1,9.9532-9.3806,26.7513,26.7513,0,0,1,12.731-3.3172,33.7966,33.7966,0,0,1,9.8114,1.1627,45.24,45.24,0,0,1,7.5752,2.82,38.19,38.19,0,0,1,6.4889,3.9352q-4.0245,11.001-8.057,22.4819a37.2723,37.2723,0,0,0-3.5914-2.491,30.2508,30.2508,0,0,0-4.0365-1.5809,13.7072,13.7072,0,0,0-5.1938-.5406A10.9725,10.9725,0,0,0,438.17,445.1a14.0262,14.0262,0,0,0-4.0305,4.0973,18.2258,18.2258,0,0,0-2.4433,5.8677,22.1954,22.1954,0,0,0-.4742,7.0008,20.7657,20.7657,0,0,0,1.6772,6.7589,17.0535,17.0535,0,0,0,3.4837,5.2,13.08,13.08,0,0,0,4.813,3.1075,11.5516,11.5516,0,0,0,5.7611.5321,15.1756,15.1756,0,0,0,5.3678-1.7692,20.11,20.11,0,0,0,3.8264-2.7393,17.0979,17.0979,0,0,0,3.0714-3.5641q6.0117,10.3848,12.0312,20.3028a33.9556,33.9556,0,0,1-5.7122,5.6961,56.0131,56.0131,0,0,1-7.0961,4.5158,34.4688,34.4688,0,0,1-9.7343,3.4286,28.6537,28.6537,0,0,1-14.0514-.3949A27.1071,27.1071,0,0,1,423,496.0874a39.3448,39.3448,0,0,1-8.3379-13.2087A62.5515,62.5515,0,0,1,410.5768,464.4214Zm12.0419-1.3825a41.495,41.495,0,0,1,.625-11.7455,29.7216,29.7216,0,0,1,3.6709-9.6843,20.1482,20.1482,0,0,1,6.4565-6.6154,18.1133,18.1133,0,0,1,8.9817-2.7059,21.3222,21.3222,0,0,1,4.4811.21,17.7012,17.7012,0,0,1,3.3868.8645,12.1107,12.1107,0,0,1,2.8993,1.2992q.5417-1.4781,1.0819-2.9477-1.6053-.7629-3.3873-1.4117a32.51,32.51,0,0,0-3.8226-.9269,22.2413,22.2413,0,0,0-4.9154-.2827,19.521,19.521,0,0,0-9.1245,2.6484,22.3382,22.3382,0,0,0-7.29,6.9388,33.2005,33.2005,0,0,0-4.5894,10.7912,47.4857,47.4857,0,0,0,2.1412,27.3129,28.7739,28.7739,0,0,0,6.2542,9.5,20.7731,20.7731,0,0,0,8.58,5.1478,21.1061,21.1061,0,0,0,9.9509.5048,21.696,21.696,0,0,0,5.1149-1.5227,29.785,29.785,0,0,0,3.8068-2.01,20.5333,20.5333,0,0,0,3.0842-2.468q-.7978-1.3231-1.5966-2.6542a12.9122,12.9122,0,0,1-2.7109,2.27,20.7632,20.7632,0,0,1-3.3339,1.8466,21.0864,21.0864,0,0,1-14.3046.7235,18.7855,18.7855,0,0,1-7.6443-5.0245,26.8615,26.8615,0,0,1-5.2666-8.6716A40.2008,40.2008,0,0,1,422.6187,463.0389Z"/><path class="cls-18" d="M469.2831,457.9129a47.0055,47.0055,0,0,1,1.17-16.0362,38.9715,38.9715,0,0,1,5.97-13.2266,29.6,29.6,0,0,1,9.8428-8.81,26.7639,26.7639,0,0,1,12.6919-3.2879,32.062,32.062,0,0,1,13.2918,2.6719,39.92,39.92,0,0,1,11.4807,7.462,41.1581,41.1581,0,0,1,8.4085,10.9965,37.2107,37.2107,0,0,1,4.1463,13.5134,36.2515,36.2515,0,0,1-1.122,14.0129,38.9917,38.9917,0,0,1-15.8257,21.9074,33.2368,33.2368,0,0,1-12.7459,5.2535A27.9538,27.9538,0,0,1,493.25,491.72a29.3044,29.3044,0,0,1-11.4951-6.605,37.3389,37.3389,0,0,1-8.3813-11.7222A45.951,45.951,0,0,1,469.2831,457.9129Zm8.9927-.9455a32.6756,32.6756,0,0,0,2.9855,11.1237,27.6129,27.6129,0,0,0,6.1466,8.4935,22.334,22.334,0,0,0,8.4038,4.9385,20.6525,20.6525,0,0,0,9.7545.6653,23.46,23.46,0,0,0,9.3207-3.6424,27.5976,27.5976,0,0,0,7.2088-6.9246,28.5775,28.5775,0,0,0,4.3724-9.1275,27.4365,27.4365,0,0,0,.8144-10.44,28.0148,28.0148,0,0,0-3.0148-10.07,29.7436,29.7436,0,0,0-6.1609-8.1069,28.0059,28.0059,0,0,0-8.3962-5.3959,22.8586,22.8586,0,0,0-9.7279-1.7476,20.0591,20.0591,0,0,0-9.2917,2.59,22.5277,22.5277,0,0,0-7.1946,6.5379,28.4979,28.4979,0,0,0-4.38,9.5843A33.2327,33.2327,0,0,0,478.2758,456.9674Zm27.007,22.4053a18.5376,18.5376,0,0,1-8.7734-.65,20.4632,20.4632,0,0,1-7.53-4.4724,25.1039,25.1039,0,0,1-5.5286-7.587,28.9536,28.9536,0,0,1-2.6882-9.9551,29.4464,29.4464,0,0,1,.7568-10.3128,25.7717,25.7717,0,0,1,3.9451-8.5654,20.5879,20.5879,0,0,1,6.4425-5.9011,18.0187,18.0187,0,0,1,8.3586-2.3794,20.2751,20.2751,0,0,1,8.752,1.5244,25.0522,25.0522,0,0,1,7.5238,4.8381,26.8137,26.8137,0,0,1,5.5393,7.2776,25.1929,25.1929,0,0,1,2.712,9.1045,24.7566,24.7566,0,0,1-.7355,9.4378,25.8485,25.8485,0,0,1-3.9384,8.1991,24.7421,24.7421,0,0,1-6.4537,6.2114A20.7886,20.7886,0,0,1,505.2828,479.3727Zm-15.9079-23.5534a17.164,17.164,0,0,0,1.6437,5.957,15.3256,15.3256,0,0,0,3.3541,4.5893,12.8393,12.8393,0,0,0,4.5878,2.7532,11.4821,11.4821,0,0,0,5.3406.5053,12.3057,12.3057,0,0,0,5.1012-1.8709,14.4534,14.4534,0,0,0,3.9341-3.7332,15.7749,15.7749,0,0,0,2.84-10.8876,15.9318,15.9318,0,0,0-1.6518-5.6418,16.1069,16.1069,0,0,0-3.3592-4.4744,14.6062,14.6062,0,0,0-4.5848-2.8893,12.1722,12.1722,0,0,0-5.3327-.8295,11.3127,11.3127,0,0,0-5.0931,1.5558,12.9256,12.9256,0,0,0-3.93,3.6174,15.64,15.64,0,0,0-2.3869,5.1761A17.399,17.399,0,0,0,489.3749,455.8193Z"/><path class="cls-18" d="M537.8172,417.4832q8.4059-.1716,16.8121-.34,9.76,12.0971,19.5583,23.3067,6.8157-12.4155,13.5912-23.9551,8.406-.16,16.8136-.3149,3.9349,28.5757,7.8716,57.1514-10.2473,1.4955-20.4872,3.0522-1.391-10.7623-2.7827-21.5248-5.3637,9.65-10.7511,19.8455-7.7293-8.26-15.4322-17.0408,1.3623,11.407,2.7241,22.8144-10.2336,1.6378-20.46,3.34Zm18.6566,56.5961q-2.5889-22.2228-5.177-44.4457,12.5486,15.2738,25.1618,29.0976,8.8269-16.2543,17.5912-31.0588,2.6794,20.2034,5.36,40.4065,1.25-.1676,2.4984-.3339-2.966-22.1922-5.933-44.3844l-2.4856.0859q-8.74,14.8507-17.5466,31.13-12.6275-14.0773-25.1872-29.5908l-2.4851.0929q2.8537,24.6826,5.7079,49.3653Q555.2261,474.2611,556.4738,474.0793Z"/><path class="cls-18" d="M664.0315,434.3714a15.714,15.714,0,0,1-.8425,9.045,16.2263,16.2263,0,0,1-5.3179,6.543,30.0145,30.0145,0,0,1-8.78,4.3468,57.3977,57.3977,0,0,1-11.3139,2.3408q.9618,6.4086,1.9235,12.8174-10.2534,1.4155-20.5008,2.89-3.96-28.1487-7.9189-56.2973,10.1751-.1846,20.3507-.36a58.9,58.9,0,0,1,11.5894.906,35.7473,35.7473,0,0,1,9.8136,3.2085,21.9479,21.9479,0,0,1,7.2376,5.7881A18.3774,18.3774,0,0,1,664.0315,434.3714Zm-9.298.558a13.01,13.01,0,0,0-2.4457-5.9386,14.33,14.33,0,0,0-4.8278-4.0158,23.9838,23.9838,0,0,0-6.747-2.2491,37.72,37.72,0,0,0-8.1139-.58q-5.4033.1719-10.8063.3482,3.0363,20.94,6.0724,41.88,1.2494-.1581,2.5-.3153-.9549-6.53-1.9087-13.06,4.1757-.4035,8.3528-.8a36.3843,36.3843,0,0,0,7.89-1.5862,20.0078,20.0078,0,0,0,5.9987-3.038,10.76,10.76,0,0,0,3.5111-4.5259A11.2392,11.2392,0,0,0,654.7335,434.9294Zm-2.6835.1633a9.7768,9.7768,0,0,1-.5531,5.6864,9.52,9.52,0,0,1-3.2738,3.8927,17.4354,17.4354,0,0,1-5.22,2.4046,34.8608,34.8608,0,0,1-6.4844,1.1876q-4.175.3784-8.35.7635l-3.601-24.6424q4.1607-.1536,8.3221-.3041a35.9123,35.9123,0,0,1,6.6447.36,20.5661,20.5661,0,0,1,5.8013,1.7194,12.6338,12.6338,0,0,1,4.3931,3.4212A11.2841,11.2841,0,0,1,652.05,435.0927Zm-16.4508,7.0449.8629-.0662c2.6888-.2071,4.5388-.8741,5.5653-1.991a5.0742,5.0742,0,0,0,1.1094-4.438,6.1023,6.1023,0,0,0-2.4363-4.2171c-1.3392-.9692-3.3481-1.3947-6.03-1.2612l-.8614.043Q634.7032,436.1725,635.5992,442.1376Z"/><path class="cls-18" d="M665.6475,415.1408q10.6073-.1638,21.2158-.3143,3.1409,17.4765,6.2806,34.9531,8.85-.8348,17.6991-1.6363,1.1369,5.9677,2.2738,11.9355-19.5746,2.308-39.1324,4.8186Q669.8155,440.0192,665.6475,415.1408Zm41.036,40.0536q-.1548-.8284-.31-1.6571-10.7844,1.11-21.5632,2.2743-3.0544-17.5239-6.11-35.0477l-2.4868.07q3.1986,18.5,6.3971,37Q694.645,456.4791,706.6835,455.1944Z"/><path class="cls-18" d="M707.7956,414.5443q18.7835-.24,37.57-.428,1.1844,5.42,2.37,10.84-8.6254.3076-17.25.6338.4915,2.3873.9847,4.7744,8.4888-.4158,16.98-.8111,1.1241,5.1444,2.2475,10.2893-8.51.6024-17.0179,1.2318.5121,2.4841,1.0246,4.968,8.9976-.77,17.9983-1.5059,1.1864,5.4113,2.3719,10.8226-19.2975,2.0679-38.5833,4.3233Q712.1445,437.1133,707.7956,414.5443Zm39.0622,36.5547q-.16-.7547-.3227-1.5092-9.6345.9029-19.2658,1.8474-1.4451-7.2044-2.89-14.4087,9.1234-.5906,18.2481-1.1529-.1617-.7563-.3227-1.5127-9.1218.53-18.2424,1.0866-1.425-7.1057-2.85-14.2113,9.5736-.2674,19.147-.5157-.1611-.7548-.3228-1.51-10.8156.2419-21.6287.5068,3.3374,16.7758,6.6737,33.552Q735.9677,452.1577,746.8578,451.099Z"/><path class="cls-18" d="M762.5919,424.44q-5.8941.1992-11.7894.4072-1.1888-5.3807-2.3775-10.7611,22.2782-.2163,44.5637-.3474,1.2429,4.83,2.4865,9.66-5.8969.1741-11.7931.3573,3.4538,13.9765,6.9091,27.953-10.6189,1.0455-21.2355,2.1452Q765.9738,439.1472,762.5919,424.44Zm17.5222,23.5522q-3.36-14.0337-6.7194-28.0676,6.847-.1527,13.6963-.2951-.17-.6746-.3386-1.3492-14.9376.2612-29.87.57.1644.7251.3285,1.45,6.8454-.165,13.6941-.32,3.3513,14.1184,6.7026,28.237Q778.86,448.1049,780.1141,447.9923Z"/><path class="cls-18" d="M796.3352,413.72q18.7948-.1029,37.5971-.1362,1.2948,4.3577,2.5888,8.7154-8.6333.2073-17.265.4348.5375,1.9253,1.0763,3.85,8.4969-.306,16.9952-.59,1.2282,4.1364,2.4547,8.2732-8.5182.4641-17.035.9541.56,2.0034,1.12,4.0064,9.008-.6081,18.0172-1.1847,1.2948,4.35,2.5905,8.7-19.32,1.6612-38.63,3.4912Q801.09,431.9774,796.3352,413.72Zm39.8158,29.5938c-.1181-.4049-.2348-.81-.3528-1.2149q-9.6466.7179-19.2876,1.4739-1.58-5.8177-3.16-11.6353,9.1326-.4544,18.2662-.8807-.1761-.609-.3527-1.2179-9.13.3979-18.26.8235-1.5585-5.7381-3.1162-11.476,9.58-.1732,19.1619-.3245-.177-.6075-.3528-1.2151-10.8233.1371-21.6453.3018,3.6489,13.552,7.2966,27.1044Q825.2485,444.158,836.151,443.3138Z"/><path class="cls-18" d="M84.0576,629.0635l-14.417-26.4668H86.1475l5.3632,9.82,5.293-9.82h16.5068L98.8936,629.0635v19.9892H84.0576Zm8.3584,14.417V626.834l10.169-18.666h-2.1592l-8.9151,16.5068L82.5254,608.168h-2.09l10.1,18.666v16.6465Z"/><path class="cls-18" d="M114.3545,602.5967h27.373v12.1885H129.19V619.94h12.3282V631.501H129.19v5.3633h13.0244v12.1884h-27.86Zm22.706,40.8838V641.81h-13.93V626.5557h13.2334v-1.6719H123.1309V609.84h13.93V608.168H121.3193v35.3125Z"/><path class="cls-18" d="M144.4424,634.6348a22.7506,22.7506,0,0,0,3.2041.7666,25.4228,25.4228,0,0,0,3.1689.5576,30.8011,30.8011,0,0,0,3.5869.209q3.2037,0,3.2041-2.3682a2.65,2.65,0,0,0-.9746-1.8457,29.4448,29.4448,0,0,0-2.4726-2.09q-1.4985-1.15-3.2041-2.542a23.0952,23.0952,0,0,1-3.2041-3.2041,16.74,16.74,0,0,1-2.4727-4.0743,13.0045,13.0045,0,0,1-.9746-5.1894,13.3886,13.3886,0,0,1,1.1836-5.7813,11.6309,11.6309,0,0,1,3.2734-4.1787,14.7377,14.7377,0,0,1,4.9112-2.542,20.3269,20.3269,0,0,1,6.0244-.8711,32.4888,32.4888,0,0,1,3.3428.1748q1.6713.1745,2.9951.3135,1.5308.208,2.9951.418v13.0244q-.5582-.0688-1.2539-.14-.5581-.0689-1.2539-.14c-.4639-.0449-.9522-.0693-1.4619-.0693-.2793,0-.627.0117-1.045.0351a6.35,6.35,0,0,0-1.1845.1739,2.4261,2.4261,0,0,0-.9746.4873,1.2025,1.2025,0,0,0-.418.9756q0,.558.94,1.3925.94.8364,2.2979,1.95,1.3593,1.1148,2.9951,2.5772a20.7972,20.7972,0,0,1,2.9951,3.3437,19.5248,19.5248,0,0,1,2.2988,4.2481,14.2352,14.2352,0,0,1,.94,5.2939,16.6989,16.6989,0,0,1-.9746,5.7461,12.2138,12.2138,0,0,1-3.03,4.666,14.4946,14.4946,0,0,1-5.2578,3.1348,22.533,22.533,0,0,1-7.5918,1.1484,46.1259,46.1259,0,0,1-4.9111-.2431q-2.2632-.2446-4.0039-.5918a33.8833,33.8833,0,0,1-3.6924-.836Zm5.8506,8.3584q.9756.2094,2.09.3486.9741.1392,2.0547.2432t2.1943.1045a15.89,15.89,0,0,0,3.7959-.4522,9.5611,9.5611,0,0,0,3.3086-1.498,7.671,7.671,0,0,0,2.333-2.6817,8.4385,8.4385,0,0,0,.87-4.0049,7.755,7.755,0,0,0-1.01-3.83,17.75,17.75,0,0,0-2.5772-3.4825,43.7071,43.7071,0,0,0-3.3427-3.2041q-1.7769-1.5308-3.3438-3.1a19.2,19.2,0,0,1-2.5771-3.1338,5.9071,5.9071,0,0,1-1.01-3.2392,4.7832,4.7832,0,0,1,1.6025-3.8653q1.6011-1.3578,5.1543-1.3584.5566,0,1.1485.0352t1.1494.1045a8.8728,8.8728,0,0,0,1.1142.0693v-1.8105a8.3816,8.3816,0,0,1-1.0449-.07q-.4878-.0688-1.0791-.1045c-.3955-.0225-.8008-.0342-1.2187-.0342a10.5612,10.5612,0,0,0-6.1992,1.7061,6.053,6.053,0,0,0-2.4375,5.3281,7.0484,7.0484,0,0,0,1.01,3.6562,18.3787,18.3787,0,0,0,2.5772,3.3438q1.5673,1.6377,3.3427,3.1689,1.7769,1.5323,3.3438,3.1a17.1664,17.1664,0,0,1,2.5771,3.2383,6.6555,6.6555,0,0,1,1.01,3.4824,6.0232,6.0232,0,0,1-2.2637,5.085,9.9948,9.9948,0,0,1-6.2334,1.7412,24.5141,24.5141,0,0,1-4.3183-.3486q-1.0445-.1377-2.02-.3477Z"/><path class="cls-18" d="M176.3438,602.5967h15.88l-2.3681,32.7353H178.7119Zm.4873,34.8242h14.9052v11.6318H176.8311Zm10.7255,6.6172v-1.6026H181.01v1.6026Zm-2.4375-13.0947V607.75h-1.6718v23.1934Z"/><path class="cls-18" d="M216.81,614.7852h-8.5674V602.5967h32.457v12.1885h-8.5674v34.2675H216.81Zm8.5664,28.6953V609.84h9.96V608.168h-21.73V609.84h9.96v33.6407Z"/><path class="cls-18" d="M243.1357,602.5967h16.02a27.607,27.607,0,0,1,8.2539,1.1836,19.22,19.22,0,0,1,6.582,3.4824,15.9668,15.9668,0,0,1,4.3526,5.6768,18.2635,18.2635,0,0,1,1.5673,7.7656,15.9456,15.9456,0,0,1-.9756,5.92,18.1572,18.1572,0,0,1-2.1582,4.04,15.0708,15.0708,0,0,1-3.1347,3.0645l8.706,15.3232H264.9365l-6.9648-11.77v11.77h-14.836Zm14.4873,30.2969a24.9485,24.9485,0,0,0,5.294-.5567l6.6162,11.1436h2.1592l-6.9649-11.7012a13.0852,13.0852,0,0,0,5.99-4.0742,10.9869,10.9869,0,0,0,2.2285-7.1387,11.5614,11.5614,0,0,0-1.1846-5.3633,11.3426,11.3426,0,0,0-3.2383-3.8662,14.5448,14.5448,0,0,0-4.8408-2.3681,21.8889,21.8889,0,0,0-6.06-.8008h-7.5224v35.3125h1.8115V632.8936Zm-5.7109-1.6709V609.84h5.7109q6.337,0,9.9249,2.7862a9.4614,9.4614,0,0,1,3.5869,7.94,9.3613,9.3613,0,0,1-3.5869,7.9043q-3.5876,2.7525-9.9249,2.752Zm6.06-5.7813h.7656a8.1464,8.1464,0,0,0,4.4932-1.1836,5.1929,5.1929,0,0,0,0-7.94,8.1551,8.1551,0,0,0-4.4932-1.1846h-.7656Z"/><path class="cls-18" d="M302.7559,650.2363a26.4882,26.4882,0,0,1-7.94-1.1142,16.3335,16.3335,0,0,1-6.06-3.3428,14.6542,14.6542,0,0,1-3.8653-5.6416,21.5945,21.5945,0,0,1-1.3584-8.01V602.5967h14.836V631.501a5.933,5.933,0,0,0,1.01,3.7265,5.0733,5.0733,0,0,0,6.7559,0,5.9393,5.9393,0,0,0,1.01-3.7265V602.5967h14.9052v29.5312a21.5925,21.5925,0,0,1-1.3584,8.01,14.4745,14.4745,0,0,1-3.9,5.6416,16.671,16.671,0,0,1-6.0937,3.3428A26.4833,26.4833,0,0,1,302.7559,650.2363Zm0-8.3574q-10.4474,0-10.4473-10.2383V608.168h-1.8115v23.4726q0,5.8506,3.17,8.9492,3.1685,3.1011,9.0889,3.1t9.124-3.1q3.2035-3.0981,3.2041-8.9492V608.168h-1.8809v23.4726Q313.2031,641.8784,302.7559,641.8789Z"/><path class="cls-18" d="M326.7148,602.5967h12.2588l12.1192,17.83,12.0488-17.83H375.4v46.456H360.5645V632.3369l-9.4717,13.93-9.542-13.93v16.7158h-14.836Zm8.7764,40.8838V611.5117l15.6016,22.7061,15.5312-22.7061v31.9688h1.8115V608.168H366.624l-15.5312,22.915-15.6016-22.915H333.68v35.3125Z"/><path class="cls-18" d="M416.4238,620.2871a18.289,18.289,0,0,1-1.6718,8.1836,14.6108,14.6108,0,0,1-4.5616,5.4678,19.5545,19.5545,0,0,1-6.7558,3.0644,33.8942,33.8942,0,0,1-8.3233.9756v11.0742H380.2754v-46.456h14.8359a33.9917,33.9917,0,0,1,8.3233.9746,19.5915,19.5915,0,0,1,6.7558,3.0644,14.6264,14.6264,0,0,1,4.5616,5.4678A18.2946,18.2946,0,0,1,416.4238,620.2871Zm-6.7558,0a12.6723,12.6723,0,0,0-1.08-5.4326,9.8468,9.8468,0,0,0-3.0293-3.7607,13.5886,13.5886,0,0,0-4.6318-2.1944,22.0566,22.0566,0,0,0-5.8155-.7314H387.24v35.3125h1.8116V632.4062h6.06a22.0151,22.0151,0,0,0,5.8155-.7314,13.6038,13.6038,0,0,0,4.6318-2.1934,9.8561,9.8561,0,0,0,3.0293-3.7617A12.6692,12.6692,0,0,0,409.668,620.2871Zm-1.95,0a10.8368,10.8368,0,0,1-1.0449,5.0147,8.518,8.518,0,0,1-2.7862,3.2041,11.7423,11.7423,0,0,1-4.0049,1.707,21.1987,21.1987,0,0,1-4.77.5215h-6.06V609.84h6.06a21.1407,21.1407,0,0,1,4.77.5225,11.7586,11.7586,0,0,1,4.0049,1.7061,8.5394,8.5394,0,0,1,2.7862,3.2041A10.8447,10.8447,0,0,1,407.7178,620.2871Zm-12.6065,5.1543h.627a5.6039,5.6039,0,0,0,4.2138-1.3584,6.2371,6.2371,0,0,0,0-7.5918,5.6039,5.6039,0,0,0-4.2138-1.3584h-.627Z"/><path class="cls-18" d="M432.5811,634.6348a22.7473,22.7473,0,0,0,3.2041.7666,25.4228,25.4228,0,0,0,3.1689.5576,30.8011,30.8011,0,0,0,3.5869.209q3.2037,0,3.2041-2.3682a2.65,2.65,0,0,0-.9746-1.8457,29.4609,29.4609,0,0,0-2.4726-2.09q-1.4986-1.15-3.2041-2.542a23.1012,23.1012,0,0,1-3.2042-3.2041,16.74,16.74,0,0,1-2.4726-4.0743,13.0045,13.0045,0,0,1-.9746-5.1894,13.3872,13.3872,0,0,1,1.1836-5.7813,11.6287,11.6287,0,0,1,3.2734-4.1787,14.7381,14.7381,0,0,1,4.9111-2.542,20.3271,20.3271,0,0,1,6.0245-.8711,32.4854,32.4854,0,0,1,3.3427.1748q1.6714.1745,2.9952.3135,1.5307.208,2.9951.418v13.0244q-.5581-.0688-1.2539-.14-.5582-.0689-1.2539-.14c-.4639-.0449-.9522-.0693-1.462-.0693-.2793,0-.6269.0117-1.0449.0351a6.3491,6.3491,0,0,0-1.1845.1739,2.4272,2.4272,0,0,0-.9747.4873,1.2027,1.2027,0,0,0-.4179.9756q0,.558.94,1.3925.94.8364,2.2979,1.95,1.3593,1.1148,2.9951,2.5772a20.7972,20.7972,0,0,1,2.9951,3.3437,19.5248,19.5248,0,0,1,2.2988,4.2481,14.2352,14.2352,0,0,1,.94,5.2939,16.6989,16.6989,0,0,1-.9746,5.7461,12.215,12.215,0,0,1-3.03,4.666,14.4955,14.4955,0,0,1-5.2578,3.1348,22.533,22.533,0,0,1-7.5918,1.1484,46.1279,46.1279,0,0,1-4.9112-.2431q-2.2631-.2446-4.0039-.5918a33.8866,33.8866,0,0,1-3.6923-.836Zm5.8505,8.3584q.9756.2094,2.09.3486.9741.1392,2.0547.2432t2.1943.1045a15.89,15.89,0,0,0,3.7959-.4522,9.5611,9.5611,0,0,0,3.3086-1.498,7.671,7.671,0,0,0,2.333-2.6817,8.4385,8.4385,0,0,0,.87-4.0049,7.7549,7.7549,0,0,0-1.01-3.83,17.7579,17.7579,0,0,0-2.5772-3.4825,43.7086,43.7086,0,0,0-3.3428-3.2041q-1.7767-1.5308-3.3437-3.1a19.201,19.201,0,0,1-2.5772-3.1338,5.9077,5.9077,0,0,1-1.01-3.2392,4.7832,4.7832,0,0,1,1.6025-3.8653q1.6011-1.3578,5.1543-1.3584.5566,0,1.1484.0352t1.1495.1045a8.8716,8.8716,0,0,0,1.1142.0693v-1.8105a8.38,8.38,0,0,1-1.0449-.07c-.3252-.0459-.6856-.08-1.0791-.1045-.3955-.0225-.8008-.0342-1.2188-.0342a10.5612,10.5612,0,0,0-6.1992,1.7061,6.0532,6.0532,0,0,0-2.4375,5.3281,7.0485,7.0485,0,0,0,1.01,3.6562,18.378,18.378,0,0,0,2.5771,3.3438q1.5675,1.6377,3.3428,3.1689,1.7769,1.5323,3.3438,3.1a17.1664,17.1664,0,0,1,2.5771,3.2383,6.6555,6.6555,0,0,1,1.01,3.4824,6.0232,6.0232,0,0,1-2.2637,5.085,9.995,9.995,0,0,1-6.2334,1.7412,24.5161,24.5161,0,0,1-4.3184-.3486q-1.0443-.1377-2.02-.3477Z"/><path class="cls-18" d="M465.1768,602.5967H492.55v12.1885H480.0127V619.94h12.3281V631.501H480.0127v5.3633h13.0244v12.1884h-27.86Zm22.706,40.8838V641.81h-13.93V626.5557h13.2334v-1.6719H473.9531V609.84h13.93V608.168H472.1416v35.3125Z"/><path class="cls-18" d="M497.2148,602.5967h16.02a27.607,27.607,0,0,1,8.2539,1.1836,19.22,19.22,0,0,1,6.582,3.4824,15.9668,15.9668,0,0,1,4.3526,5.6768,18.2635,18.2635,0,0,1,1.5673,7.7656,15.9456,15.9456,0,0,1-.9756,5.92,18.1572,18.1572,0,0,1-2.1582,4.04,15.0708,15.0708,0,0,1-3.1347,3.0645l8.706,15.3232H519.0156l-6.9648-11.77v11.77h-14.836Zm14.4873,30.2969a24.9485,24.9485,0,0,0,5.294-.5567l6.6162,11.1436h2.1592l-6.9649-11.7012a13.0852,13.0852,0,0,0,5.99-4.0742,10.9869,10.9869,0,0,0,2.2285-7.1387,11.5614,11.5614,0,0,0-1.1846-5.3633,11.3426,11.3426,0,0,0-3.2383-3.8662,14.5448,14.5448,0,0,0-4.8408-2.3681,21.8889,21.8889,0,0,0-6.06-.8008H504.18v35.3125h1.8115V632.8936Zm-5.7109-1.6709V609.84h5.7109q6.337,0,9.9249,2.7862a9.4614,9.4614,0,0,1,3.5869,7.94,9.3613,9.3613,0,0,1-3.5869,7.9043q-3.5874,2.7525-9.9249,2.752Zm6.06-5.7813h.7656a8.1464,8.1464,0,0,0,4.4932-1.1836,5.1929,5.1929,0,0,0,0-7.94,8.1551,8.1551,0,0,0-4.4932-1.1846h-.7656Z"/><path class="cls-18" d="M581.3516,618.4072a8.5007,8.5007,0,0,0-3.1348-1.707,12.282,12.282,0,0,0-3.6914-.5918,9.1142,9.1142,0,0,0-3.6914.7314,8.7772,8.7772,0,0,0-2.8906,2.02,9.3271,9.3271,0,0,0-1.9151,3.1,10.7668,10.7668,0,0,0-.6963,3.9,9.9061,9.9061,0,0,0,.7657,3.9,9.3455,9.3455,0,0,0,2.09,3.1,9.6511,9.6511,0,0,0,3.1,2.0195,9.87,9.87,0,0,0,3.7959.7315,9.2467,9.2467,0,0,0,4.3184-1.01,10.32,10.32,0,0,0,3.3427-2.751h-4.1787v-9.751h17.9v15.4619a25.6687,25.6687,0,0,1-3.831,5.1885,24.306,24.306,0,0,1-4.9805,4.0049,23.885,23.885,0,0,1-5.9551,2.5772,24.2641,24.2641,0,0,1-30.9941-23.4717,24.9176,24.9176,0,0,1,1.8115-9.4727,24.3442,24.3442,0,0,1,4.9795-7.7656,23.2789,23.2789,0,0,1,7.5225-5.2236,23.0055,23.0055,0,0,1,9.3681-1.9161,26.2867,26.2867,0,0,1,6.7559.7666,25.9274,25.9274,0,0,1,4.8056,1.7413,17.6389,17.6389,0,0,1,3.8311,2.4375Zm.6963-8.9853a11.4562,11.4562,0,0,0-2.02-.6963,19.5728,19.5728,0,0,0-2.2988-.4873,18.7849,18.7849,0,0,0-2.9248-.209,17.8835,17.8835,0,0,0-6.8955,1.3232,17.2162,17.2162,0,0,0-5.5723,3.6563,16.8264,16.8264,0,0,0-3.7265,5.6074,18.7285,18.7285,0,0,0-1.3575,7.2432,18.2934,18.2934,0,0,0,1.3926,7.2431,16.7028,16.7028,0,0,0,3.8311,5.6075,17.9152,17.9152,0,0,0,5.6757,3.6562,18.1318,18.1318,0,0,0,6.9307,1.3233,17.02,17.02,0,0,0,8.7061-2.2637,18.5247,18.5247,0,0,0,6.3379-6.0244v-9.1241h-7.3829v1.6719h5.5723v6.9649a15.7469,15.7469,0,0,1-13.2334,6.9648A16.7043,16.7043,0,0,1,568.85,640.73a15.2271,15.2271,0,0,1-8.5322-8.3574,16.5309,16.5309,0,0,1-1.2539-6.5127,16.9516,16.9516,0,0,1,1.2187-6.5127,15.3641,15.3641,0,0,1,3.3438-5.084,14.7244,14.7244,0,0,1,4.98-3.2734,16.4388,16.4388,0,0,1,6.1992-1.1495,12.8256,12.8256,0,0,1,2.3682.209q1.1131.21,1.95.418.9742.2782,1.8106.5566Z"/><path class="cls-18" d="M599.251,625.8594a23.7216,23.7216,0,0,1,1.916-9.4727,24.365,24.365,0,0,1,12.9892-12.9892,24.3733,24.3733,0,0,1,18.9454,0,24.365,24.365,0,0,1,12.9892,12.9892,24.3848,24.3848,0,0,1,0,18.9453,24.3648,24.3648,0,0,1-12.9892,12.9893,24.3862,24.3862,0,0,1-18.9454,0A24.3648,24.3648,0,0,1,601.167,635.332,23.7176,23.7176,0,0,1,599.251,625.8594Zm6.5478,0a17.3283,17.3283,0,0,0,1.3926,6.93,17.9724,17.9724,0,0,0,9.5068,9.5078,17.94,17.94,0,0,0,13.86,0,17.9688,17.9688,0,0,0,9.5078-9.5078,17.94,17.94,0,0,0,0-13.86,17.9706,17.9706,0,0,0-9.5078-9.5068,17.94,17.94,0,0,0-13.86,0,17.9742,17.9742,0,0,0-9.5068,9.5068A17.3363,17.3363,0,0,0,605.7988,625.8594Zm17.83,16.0195a15.489,15.489,0,0,1-6.2334-1.2539,16.295,16.295,0,0,1-8.5322-8.5322,16.1207,16.1207,0,0,1,0-12.4668,16.2941,16.2941,0,0,1,8.5322-8.5322,16.12,16.12,0,0,1,12.4668,0,16.2941,16.2941,0,0,1,8.5322,8.5322,16.1207,16.1207,0,0,1,0,12.4668,16.295,16.295,0,0,1-8.5322,8.5322A15.4924,15.4924,0,0,1,623.6289,641.8789Zm-9.751-16.0195a9.4775,9.4775,0,0,0,.7657,3.7959,9.78,9.78,0,0,0,5.1894,5.1885,9.7812,9.7812,0,0,0,7.5918,0,9.7744,9.7744,0,0,0,5.1885-5.1885,9.7812,9.7812,0,0,0,0-7.5918,9.7807,9.7807,0,0,0-5.1885-5.1895,9.793,9.793,0,0,0-7.5918,0,9.7864,9.7864,0,0,0-5.1894,5.1895A9.4772,9.4772,0,0,0,613.8779,625.8594Z"/><path class="cls-18" d="M651.8359,649.0527v-46.456h12.8858a42.5485,42.5485,0,0,1,11.666,1.4619,23.3507,23.3507,0,0,1,8.6367,4.3887,18.9377,18.9377,0,0,1,5.3633,7.2783,28.3632,28.3632,0,0,1,0,20.1289,18.931,18.931,0,0,1-5.3633,7.2783,23.7408,23.7408,0,0,1-8.6367,4.4229,41.5722,41.5722,0,0,1-11.666,1.497Zm6.9649-5.5722h5.9209q10.1674,0,15.3574-4.6319,5.1885-4.63,5.1895-13.0586t-5.1895-13.0244q-5.19-4.5981-15.3574-4.5976h-5.9209Zm1.8115-1.6709V609.84h4.1094q8.8447,0,13.7558,4.0049t4.91,11.9453q0,7.9395-4.91,11.98t-13.7558,4.04Zm6.06-5.99q5.2236,0,8.0791-2.4726t2.8554-7.5567q0-5.0844-2.8554-7.5224t-8.0791-2.4375Z"/><path class="cls-18" d="M702.1934,614.7852H693.626V602.5967h32.457v12.1885h-8.5674v34.2675H702.1934Zm8.5664,28.6953V609.84h9.96V608.168h-21.73V609.84h9.96v33.6407Z"/><path class="cls-18" d="M761.4639,650.2363a26.4882,26.4882,0,0,1-7.94-1.1142,16.3335,16.3335,0,0,1-6.06-3.3428,14.6542,14.6542,0,0,1-3.8653-5.6416,21.5945,21.5945,0,0,1-1.3584-8.01V602.5967h14.836V631.501a5.933,5.933,0,0,0,1.01,3.7265,5.0733,5.0733,0,0,0,6.7559,0,5.9393,5.9393,0,0,0,1.01-3.7265V602.5967h14.9052v29.5312a21.5925,21.5925,0,0,1-1.3584,8.01,14.4745,14.4745,0,0,1-3.9,5.6416,16.671,16.671,0,0,1-6.0937,3.3428A26.4833,26.4833,0,0,1,761.4639,650.2363Zm0-8.3574q-10.4473,0-10.4473-10.2383V608.168h-1.8115v23.4726q0,5.8506,3.17,8.9492,3.1685,3.1011,9.0889,3.1t9.124-3.1q3.2036-3.0981,3.2041-8.9492V608.168h-1.8809v23.4726Q771.9111,641.8784,761.4639,641.8789Z"/><path class="cls-18" d="M785.4219,649.0527v-46.456h12.8857a42.5485,42.5485,0,0,1,11.666,1.4619,23.3519,23.3519,0,0,1,8.6368,4.3887,18.9375,18.9375,0,0,1,5.3632,7.2783,28.3632,28.3632,0,0,1,0,20.1289,18.9307,18.9307,0,0,1-5.3632,7.2783,23.7421,23.7421,0,0,1-8.6368,4.4229,41.5722,41.5722,0,0,1-11.666,1.497Zm6.9648-5.5722h5.9209q10.1675,0,15.3574-4.6319,5.1885-4.63,5.19-13.0586t-5.19-13.0244q-5.19-4.5981-15.3574-4.5976h-5.9209Zm1.8115-1.6709V609.84h4.1094q8.8448,0,13.7559,4.0049t4.91,11.9453q0,7.9395-4.91,11.98t-13.7559,4.04Zm6.06-5.99q5.2236,0,8.0791-2.4726t2.8555-7.5567q0-5.0844-2.8555-7.5224t-8.0791-2.4375Z"/><path class="cls-18" d="M843.5791,602.5967H859.32v46.456H843.5791Zm8.7764,40.8838V608.168h-1.8116v35.3125Z"/><path class="cls-18" d="M893.7969,618.4072a8.5007,8.5007,0,0,0-3.1348-1.707,12.282,12.282,0,0,0-3.6914-.5918,9.1146,9.1146,0,0,0-3.6914.7314,8.7772,8.7772,0,0,0-2.8906,2.02,9.3271,9.3271,0,0,0-1.9151,3.1,10.7668,10.7668,0,0,0-.6963,3.9,9.9061,9.9061,0,0,0,.7657,3.9,9.3455,9.3455,0,0,0,2.09,3.1,9.6522,9.6522,0,0,0,3.1,2.0195,9.87,9.87,0,0,0,3.7959.7315,9.2467,9.2467,0,0,0,4.3184-1.01,10.3215,10.3215,0,0,0,3.3428-2.751h-4.1788v-9.751h17.9v15.4619a25.6687,25.6687,0,0,1-3.831,5.1885,24.3033,24.3033,0,0,1-4.9805,4.0049,23.885,23.885,0,0,1-5.9551,2.5772A24.2641,24.2641,0,0,1,863.15,625.8594a24.9176,24.9176,0,0,1,1.8115-9.4727,24.3442,24.3442,0,0,1,4.98-7.7656,23.2789,23.2789,0,0,1,7.5225-5.2236,23.0055,23.0055,0,0,1,9.3681-1.9161,26.2867,26.2867,0,0,1,6.7559.7666,25.9313,25.9313,0,0,1,4.8057,1.7413,17.64,17.64,0,0,1,3.831,2.4375Zm.6963-8.9853a11.4562,11.4562,0,0,0-2.02-.6963,19.5728,19.5728,0,0,0-2.2988-.4873,18.7849,18.7849,0,0,0-2.9248-.209,17.8839,17.8839,0,0,0-6.8955,1.3232,17.2172,17.2172,0,0,0-5.5723,3.6563,16.8264,16.8264,0,0,0-3.7265,5.6074,18.7285,18.7285,0,0,0-1.3575,7.2432,18.2934,18.2934,0,0,0,1.3926,7.2431,16.7028,16.7028,0,0,0,3.8311,5.6075,17.9146,17.9146,0,0,0,5.6758,3.6562,18.131,18.131,0,0,0,6.9306,1.3233,17.02,17.02,0,0,0,8.7061-2.2637,18.5247,18.5247,0,0,0,6.3379-6.0244v-9.1241H895.19v1.6719h5.5722v6.9649a15.7469,15.7469,0,0,1-13.2334,6.9648,16.7043,16.7043,0,0,1-6.2334-1.1494,15.2279,15.2279,0,0,1-8.5322-8.3574,16.5327,16.5327,0,0,1-1.2539-6.5127,16.9516,16.9516,0,0,1,1.2187-6.5127,15.3641,15.3641,0,0,1,3.3438-5.084,14.7244,14.7244,0,0,1,4.98-3.2734A16.4388,16.4388,0,0,1,887.25,609.84a12.8256,12.8256,0,0,1,2.3682.209q1.1133.21,1.95.418.9741.2782,1.8105.5566Z"/><path class="cls-18" d="M912.74,602.5967h27.3731v12.1885H927.5762V619.94h12.3281V631.501H927.5762v5.3633h13.0244v12.1884H912.74Zm22.7061,40.8838V641.81h-13.93V626.5557H934.75v-1.6719H921.5166V609.84h13.93V608.168H919.7051v35.3125Z"/><path class="cls-18" d="M944.7783,602.5967h12.19l12.8154,17.8994V602.5967H984.34v46.456H972.0811l-12.7461-17.83v17.83H944.7783Zm8.2891,40.8838V611.3027l22.9844,32.1778h1.8105V608.168h-1.8105v32.1787L953.0674,608.168h-1.8115v35.3125Z"/></g></svg>
