<svg xmlns="http://www.w3.org/2000/svg" width="482" height="260" viewBox="0 0 482 260"><defs><style>.cls-1{fill:#2b00a5;}.cls-2{fill:#aa2100;}</style></defs><title>Liv</title><g id="Layer_1" data-name="Layer 1"><rect class="cls-1" x="50" y="55" width="388" height="137" rx="12"/><path class="cls-2" d="M288,86c21,30-44,82-44,82s-62-52-45-77c20.2822-29.8267,45,13,45,13S268.5192,58.17,288,86Z"/><path class="cls-2" d="M167,87c21,30-44,82-44,82S61,117,78,92c20.2822-29.8267,45,13,45,13S147.5192,59.17,167,87Z"/><path class="cls-2" d="M409,87c21,30-44,82-44,82s-62-52-45-77c20.2822-29.8267,45,13,45,13S389.5192,59.17,409,87Z"/></g></svg>
