<svg xmlns="http://www.w3.org/2000/svg" xmlns:xlink="http://www.w3.org/1999/xlink" width="387" height="374" viewBox="0 0 387 374"><defs><style>.cls-1{fill:#2b00a5;}.cls-2{fill:#fff;}.cls-3{opacity:0.44;}</style></defs><title>Point</title><g id="Layer_1" data-name="Layer 1"><rect class="cls-1" x="52" y="84" width="289" height="243" rx="12"/><polygon class="cls-2" points="181 113 81 113 77 108 81 102 181 102 186 108 181 113"/><polygon class="cls-2" points="312 206 212 206 208 201 212 195 312 195 317 201 312 206"/><polygon class="cls-2" points="211 208 212 286 208 292 204 287 202 208 207 203 211 208"/><polygon class="cls-2" points="209 114 210 192 206 198 202 193 200 114 205 109 209 114"/><polygon class="cls-2" points="79 207 80 285 76 291 72 286 70 207 75 202 79 207"/><polygon class="cls-2" points="191 208 192 286 188 292 184 287 182 208 187 203 191 208"/><polygon class="cls-2" points="191 116 192 194 188 200 184 195 182 116 187 111 191 116"/><polygon class="cls-2" points="79 116 80 194 76 200 72 195 70 116 75 111 79 116"/><polygon class="cls-2" points="322 116 323 194 319 200 315 195 313 116 318 111 322 116"/><polygon class="cls-2" points="323 208 324 286 320 292 316 287 314 208 319 203 323 208"/><polygon class="cls-2" points="314 299 214 299 210 294 214 288 314 288 319 294 314 299"/><polygon class="cls-2" points="312 113 212 113 208 108 212 102 312 102 317 108 312 113"/><polygon class="cls-2" points="181 206 81 206 77 201 81 195 181 195 186 201 181 206"/><polygon class="cls-2" points="181 299 81 299 77 294 81 288 181 288 186 294 181 299"/></g><g id="Layer_3" data-name="Layer 3"><g class="cls-3"><image width="1995" height="1157" transform="translate(-1971 -36)" xlink:href="Point1.png"/></g></g></svg>
