<svg xmlns="http://www.w3.org/2000/svg" width="252" height="257" viewBox="0 0 252 257"><defs><style>.cls-1{fill:#7f002e;}.cls-2{fill:#fff;}</style></defs><title>replay</title><g id="Layer_3" data-name="Layer 3"><circle class="cls-1" cx="126" cy="130" r="121"/><circle class="cls-2" cx="126" cy="130" r="105.044"/><path class="cls-1" d="M34.1846,113.7148H47.7539a23.3748,23.3748,0,0,1,6.9922,1.003,16.28,16.28,0,0,1,5.5752,2.9492,13.5366,13.5366,0,0,1,3.6875,4.8086,15.4764,15.4764,0,0,1,1.3271,6.5791,13.5142,13.5142,0,0,1-.8261,5.0146,15.3342,15.3342,0,0,1-1.8291,3.4219,12.7545,12.7545,0,0,1-2.6543,2.5957l7.375,12.98h-14.75l-5.9-9.9707v9.9707H34.1846Zm12.2715,25.6641a21.11,21.11,0,0,0,4.4843-.4717l5.6045,9.4405H58.374l-5.8994-9.9122a11.0826,11.0826,0,0,0,5.0733-3.4521,9.3021,9.3021,0,0,0,1.8886-6.0469,9.7977,9.7977,0,0,0-1.0029-4.5429,9.6111,9.6111,0,0,0-2.7441-3.2745,12.2619,12.2619,0,0,0-4.1006-2.0058,18.52,18.52,0,0,0-5.1328-.6787H40.084v29.9131h1.5342v-8.9688Zm-4.8379-1.415V119.8506h4.8379q5.3687,0,8.4072,2.3594a8.0191,8.0191,0,0,1,3.039,6.7265,7.9338,7.9338,0,0,1-3.039,6.6963q-3.04,2.3321-8.4072,2.3311Zm5.1328-4.8975H47.4a6.9039,6.9039,0,0,0,3.8057-1.0029,4.3994,4.3994,0,0,0,0-6.7266A6.9114,6.9114,0,0,0,47.4,124.334H46.751Z"/><path class="cls-1" d="M68.5811,113.7148H91.7676v10.3243h-10.62v4.3662H91.5908v9.7939H81.1475v4.543H92.1807v10.3252h-23.6Zm19.2334,34.6329v-1.4161h-11.8V134.0107h11.21v-1.416h-11.21V119.8506h11.8v-1.416H74.4805v29.9131Z"/><path class="cls-1" d="M126.3408,128.7a15.5011,15.5011,0,0,1-1.416,6.9326,12.3764,12.3764,0,0,1-3.8643,4.6318,16.5923,16.5923,0,0,1-5.7226,2.5958,28.72,28.72,0,0,1-7.0508.8261v9.3809H95.7207V113.7148h12.5664a28.8127,28.8127,0,0,1,7.0508.8252,16.5955,16.5955,0,0,1,5.7226,2.5967,12.3742,12.3742,0,0,1,3.8643,4.6309A15.5041,15.5041,0,0,1,126.3408,128.7Zm-5.7226,0a10.737,10.737,0,0,0-.9141-4.6016,8.36,8.36,0,0,0-2.5664-3.1865,11.5288,11.5288,0,0,0-3.9238-1.8584,18.67,18.67,0,0,0-4.9268-.6191H101.62v29.9131h1.5342v-9.3809h5.1328a18.6693,18.6693,0,0,0,4.9268-.62,11.5288,11.5288,0,0,0,3.9238-1.8584,8.3567,8.3567,0,0,0,2.5664-3.1856A10.7409,10.7409,0,0,0,120.6182,128.7Zm-1.6524,0a9.1825,9.1825,0,0,1-.8847,4.248,7.2131,7.2131,0,0,1-2.3594,2.7139,9.9387,9.9387,0,0,1-3.3926,1.4453,17.8855,17.8855,0,0,1-4.042.4434h-5.1328v-17.7h5.1328a17.9376,17.9376,0,0,1,4.042.4424,9.9759,9.9759,0,0,1,3.3926,1.4453,7.2349,7.2349,0,0,1,2.3594,2.7138A9.1889,9.1889,0,0,1,118.9658,128.7Zm-10.6787,4.3662h.5313a4.7468,4.7468,0,0,0,3.5693-1.15,5.28,5.28,0,0,0,0-6.4306,4.7429,4.7429,0,0,0-3.5693-1.1514h-.5313Z"/><path class="cls-1" d="M129.291,113.7148h13.0977v29.0274h10.8554v10.3252H129.291ZM149.94,148.3477v-1.4161H136.7246v-28.497H135.19v29.9131Z"/><path class="cls-1" d="M166.9912,113.7148h9.44l14.9277,39.3526H178.9678l-1.2979-3.54H165.752l-1.2979,3.54h-12.39Zm-6.1357,34.6329,1.1211-2.95h19.47l1.1211,2.95h1.6514L172.832,118.4346H170.59l-11.3867,29.9131Zm10.8554-28.4971,9.2041,24.1308H162.5068Zm2.6553,21.0039-2.6553-6.9033-2.6552,6.9033Z"/><path class="cls-1" d="M193.8359,136.1348l-12.2129-22.42h13.9825l4.5429,8.3184,4.4844-8.3184h13.9834l-12.2139,22.42v16.9326H193.8359Zm7.08,12.2129V134.2461l8.6133-15.8115h-1.8281l-7.5528,13.9824-7.61-13.9824h-1.77l8.5547,15.8115v14.1016Z"/></g></svg>
