<svg xmlns="http://www.w3.org/2000/svg" xmlns:xlink="http://www.w3.org/1999/xlink" width="1920" height="1080" viewBox="0 0 1920 1080"><defs><style>.cls-1{fill:#29abe2;opacity:0.38;}.cls-2{fill:#ffb555;}.cls-3{fill:#fc9;}.cls-4{fill:#c69c6d;}.cls-5,.cls-6{fill:none;stroke:#fc9;stroke-linecap:round;stroke-linejoin:round;}.cls-5{stroke-width:6px;}.cls-6{stroke-width:4.9677px;}.cls-7{fill:#2b00a5;}.cls-10,.cls-8{fill:#fff;}.cls-9{fill:#aa2100;}.cls-10{stroke:#2b00a5;stroke-miterlimit:10;stroke-width:5px;}.cls-11{opacity:0.44;}.cls-12{fill:#3fb6f5;}.cls-13{fill:#7f002e;}</style></defs><title>Setting</title><g id="Layer_3" data-name="Layer 3"><rect class="cls-1" x="-3" width="1923" height="1080"/><ellipse class="cls-2" cx="255.6537" cy="614.3648" rx="93.805" ry="303.4867"/><ellipse class="cls-2" cx="1646.2106" cy="614.2839" rx="93.805" ry="339.1258"/><path class="cls-3" d="M1690.3182,840.5681c-31.3886,0-57.8629,56.54-66.2152,133.8845V415.0793c0-47.1974-29.7964-85.8129-66.2153-85.8129H377.0483c-36.4189,0-66.2152,38.6155-66.2152,85.8129V974.4526c-8.3524-77.3442-34.8266-133.8845-66.2153-133.8845-38.0934,0-68.9742,83.2426-68.9742,185.9279a479.5484,479.5484,0,0,0,3.7725,60.6679c5,.97,10.73,2.3513,16.1726,2.5264.2491.0042.4983.01.7473.014,4.56.0513,8.8832-.8032,12.3578-3.5407,3.2669-2.5738,6.3857.2118,7.1537,3.7456,1.19.017,2.3791.0225,3.5686.0361.8132-.1208,1.625-.2388,2.4435-.372a126.9082,126.9082,0,0,1,27.9492-1.5372c6.0971.3418,12.1733.7783,18.2587.9325a388.4713,388.4713,0,0,1,41.6786-1.3157q.5829-4.5087,1.087-9.1133v9.1444q4.092.1284,8.1716.3723c5.6564-.7716,11.3033-1.69,17.0215-1.49a4.4779,4.4779,0,0,1,3.617,1.9937c30.4991-.2091,60.9982.3522,91.4974,3.175a4.262,4.262,0,0,1,2.6951-.9018c21.331.03,42.7253,1.0564,64.0035-1.2559,9.16-.9954,17.968-1.4817,27.1554-.476,8.8559.97,17.6439,2.6433,26.4868,3.7518,18.2966,2.2931,36.3546-1.96,54.6488-.7125l1.6529.1129a4.5642,4.5642,0,0,1,4.3511-3.2489c18.9378.0278,37.8637.83,56.7975,1.1863,16.0846.3024,32.14-.0368,48.2191.7169,8.0269.3763,16.0666.7227,24.0985.3444,7.7384-.3642,15.352-1.8742,23.06-2.6264,15.0358-1.4674,30.1381-1.763,45.1855-3.1421a183.6592,183.6592,0,0,1,44.2706.8092,97.5785,97.5785,0,0,1,13.7148,1.5251c1.7657.3012,3.5243.6354,5.28.9849,18.4556-.2627,36.8965-.6553,55.3732-.3324,20.6425.3606,41.3382-.1407,61.9168,1.8392a4.2627,4.2627,0,0,1,3.1339-1.3051c22.796-.0451,45.6488-1.47,68.3047,2.3655,1.4771.25,2.95.53,4.4227.8184,23.7119.0571,47.4012,1.8179,71.1138,1.6941,20.91-.1091,41.6853-3.217,62.5433-4.5683,20.4382-1.3245,41.2277-1.2068,61.69-.5911,12.7556.3837,25.3395,2.5848,38.06,3.56a144.8577,144.8577,0,0,0,18.5484.4855,33.6951,33.6951,0,0,0,6.496-.7793,14.0849,14.0849,0,0,0,2.4146-.794c.0845-.13.1138-.1531.1213-.1388,2.7071-3.7409,7.511-1.8282,8.7431,1.8307,8.1813-.0977,16.3619-.2509,24.54-.5467,18.0334-.6521,35.6457-6.7476,53.7337-6.1063a4.4348,4.4348,0,0,1,3.3827,1.6937c12.9826.1317,25.8536,2.3091,38.6841,4.6178a325.7322,325.7322,0,0,0,44.4229,5.2553c26.229,1.0907,52.4685,1.9479,78.6733,3.7307,15.106,1.0278,30.0543,2.71,45.0244,2.8207V1078.54q1.441,13.3447,3.5872,25.8006a145.8429,145.8429,0,0,0,24.1894-2.1049c12.6-2.2464,25.2864-2.4927,37.9953-2.9191a276.7037,276.7037,0,0,0,39.5814-4.6687c8.553-1.5281,17.0815-2.9505,25.6121-3.9977a476.954,476.954,0,0,0,4.2241-64.1538C1759.2925,923.8107,1728.4116,840.5681,1690.3182,840.5681Z"/><path class="cls-3" d="M1610.7661,1058.13c-12.8962,1.1994-23.6348,12.1677-28.3019,27.2662l61.0392-.5315C1638.1,1067.95,1625.1783,1056.8337,1610.7661,1058.13Z"/><path class="cls-3" d="M318.8872,1088.0721c3.9515-.5378,7.8983-1.146,11.8674-1.4043-4.4461-15.7472-15.4037-27.3049-28.6565-28.5376q-1.1719-.1082-2.3278-.1081c-14.5265,0-27.2392,12.7039-31.537,30.9234A363.5968,363.5968,0,0,1,318.8872,1088.0721Z"/><path class="cls-3" d="M1679.2823,812.5074c-11.6878,0-22.8045,3.9483-33.1075,11.42V417.7991c0-73.2261-44.5586-132.7991-99.323-132.7991H366.0125C311.248,285,266.69,344.573,266.69,417.7991V823.927c-10.3031-7.4713-21.42-11.42-33.1077-11.42-59.1508,0-102.0819,99.29-102.0819,236.0873,0,13.0059.4122,25.6466,1.1659,37.9207,7.4257.0324,14.629,1.7615,22.1458.7057,7.0048-.9838,13.67-1.6957,20.7008-.7256,6.8562.9462,16.0289,3.85,23.9725,3.0822-1.119-12.6216-1.77-26.2817-1.77-40.983,0-95.2224,26.9377-147.5546,35.8666-147.5546,5.5341,0,26.1079,30.0837,33.4255,99.9955,2.4142,23.0338,17.7555,39.6553,35.0907,38.0234,17.3514-1.6139,30.8067-20.9047,30.8067-44.1582V417.7991c0-24.41,14.8511-44.2664,33.1077-44.2664H1546.8518c18.2566,0,33.1077,19.8565,33.1077,44.2664V994.9008c0,23.2535,13.4553,42.5443,30.8066,44.1582,17.4268,1.6391,32.6765-14.9932,35.0907-38.0234,7.3178-69.9118,27.8915-99.9955,33.4255-99.9955,8.929,0,35.8666,52.3322,35.8666,147.5546,0,12.6533-.4795,24.5412-1.3253,35.6577l66.5685-.58q.9632-17.0648.9722-35.078C1781.3643,911.7969,1738.4331,812.5074,1679.2823,812.5074Z"/><path d="M575.0624,1046.8308c-1.198.0835-2.3966.16-3.5963.2183,1.2035.0559,2.406.1307,3.6091.1941C575.0662,1047.1053,575.06,1046.9687,575.0624,1046.8308Z"/><path d="M612.1342,1091.7627q4.79.0058,9.58.067c.3907-5.1017.6056-10.3373.6056-15.6881,0-51.08-18.5285-92.4888-41.3846-92.4888s-41.3845,41.4087-41.3845,92.4888c0,5.98.257,11.8242.742,17.4878,3.726.48,7.4524.9582,11.1887,1.35,18.2966,1.9165,36.3546-1.6379,54.6488-.5955.5524.0315,1.1022.0606,1.654.0921A4.5307,4.5307,0,0,1,612.1342,1091.7627Z"/><path d="M1317.8665,1094.9084a40.0259,40.0259,0,0,0,6.496-.6513,16.1,16.1,0,0,0,2.4146-.6636c.0845-.1089.1138-.1279.1213-.116,2.7071-3.1264,7.511-1.5279,8.7431,1.53,8.1813-.0817,16.3619-.21,24.54-.4569,9.598-.29,19.0769-1.8664,28.5715-3.1991.3665-4.9493.56-10.0286.56-15.21,0-51.08-18.5284-92.4888-41.3846-92.4888s-41.3846,41.4087-41.3846,92.4888c0,6.43.2942,12.7056.8531,18.7654C1310.8881,1095.0264,1314.3816,1095.0594,1317.8665,1094.9084Z"/><rect class="cls-4" x="418.156" y="946.6573" width="320.0406" height="73.9911" rx="6"/><rect class="cls-4" x="1190.6677" y="946.6573" width="320.0406" height="73.9911" rx="6"/><path class="cls-2" d="M1900,173.0116s-157.2613,231.4123-645.5991,277.6948C778.0889,495.8491,266.69,429.6689,200.4743,313.9627,141.3615,210.6676,604.7141,18.6975,1069.55,109.8992,1541.3339,202.4641,1900,173.0116,1900,173.0116Z"/><path class="cls-5" d="M318.6313,275.6044C504.9855,384.8483,660.7208,413.56,765.1185,420.2823c85.6677,5.5166,217.2383-9.6792,476.8818-40.2961,97.6024-11.5091,178.2426-21.8757,233.32-29.1455"/><path class="cls-5" d="M291.7613,243.9919a936.3515,936.3515,0,0,0,248.3073,40.7494c64.5651,1.73,76.3486-4.7893,226.2356-17.464,163.5485-13.83,275.0295-16.6817,336.5944-17.4641,103.2472-1.3121,154.8715-1.9682,198.6459,5.8214,59.3677,10.5645,84.876,23.6323,137.9485,17.464,38.8371-4.5139,58.4974-15.3844,115.8767-23.2854a621.5462,621.5462,0,0,1,88.2871-5.8213"/><path class="cls-6" d="M331.2434,264.1705c139.4783-55.2631,256.19-71.9293,338.0233-76.7359,104.1588-6.1181,115.5074,9.11,245.3395,0,145.0621-10.1784,176.6346-32.3975,294.4074-28.2712,80.7909,2.8306,93.9,14.2664,190.82,24.2324,78.8994,8.1131,179.6773,11.79,299.8594,0"/><rect class="cls-7" x="27" y="68" width="289" height="243" rx="12"/><rect class="cls-7" x="30" y="902" width="388" height="137" rx="12"/><path class="cls-7" d="M1833,437H1611a12.0353,12.0353,0,0,1-12-12l84-164L1599,98a12.0353,12.0353,0,0,1,12-12h222a12.0353,12.0353,0,0,1,12,12l-86,167,86,160A12.0353,12.0353,0,0,1,1833,437Z"/><path class="cls-8" d="M1822.1707,429H1621.8293c-5.9561,0-10.8293-5.1539-10.8293-11.453l75.8049-156.5242L1611,105.453c0-6.2991,4.8732-11.453,10.8293-11.453h200.3414C1828.1268,94,1833,99.1539,1833,105.453l-77.61,159.3875L1833,417.547C1833,423.8461,1828.1268,429,1822.1707,429Z"/><polygon class="cls-8" points="156 97 56 97 52 92 56 86 156 86 161 92 156 97"/><polygon class="cls-8" points="287 190 187 190 183 185 187 179 287 179 292 185 287 190"/><polygon class="cls-8" points="186 192 187 270 183 276 179 271 177 192 182 187 186 192"/><polygon class="cls-8" points="184 98 185 176 181 182 177 177 175 98 180 93 184 98"/><polygon class="cls-8" points="54 191 55 269 51 275 47 270 45 191 50 186 54 191"/><polygon class="cls-8" points="166 192 167 270 163 276 159 271 157 192 162 187 166 192"/><polygon class="cls-8" points="166 100 167 178 163 184 159 179 157 100 162 95 166 100"/><polygon class="cls-8" points="54 100 55 178 51 184 47 179 45 100 50 95 54 100"/><polygon class="cls-8" points="297 100 298 178 294 184 290 179 288 100 293 95 297 100"/><polygon class="cls-8" points="298 192 299 270 295 276 291 271 289 192 294 187 298 192"/><polygon class="cls-8" points="289 283 189 283 185 278 189 272 289 272 294 278 289 283"/><polygon class="cls-8" points="287 97 187 97 183 92 187 86 287 86 292 92 287 97"/><polygon class="cls-8" points="156 190 56 190 52 185 56 179 156 179 161 185 156 190"/><polygon class="cls-8" points="156 283 56 283 52 278 56 272 156 272 161 278 156 283"/><path class="cls-9" d="M268,933c21,30-44,82-44,82s-62-52-45-77c20.2822-29.8267,45,13,45,13S248.5192,905.17,268,933Z"/><path class="cls-9" d="M147,934c21,30-44,82-44,82s-62-52-45-77c20.2822-29.8267,45,13,45,13S127.5192,906.17,147,934Z"/><path class="cls-9" d="M389,934c21,30-44,82-44,82s-62-52-45-77c20.2822-29.8267,45,13,45,13S369.5192,906.17,389,934Z"/><ellipse class="cls-10" cx="1720" cy="266" rx="35.5" ry="4.5"/><g class="cls-11"><image width="1995" height="1157" transform="translate(-39 -36)" xlink:href="Setting1.png"/></g><path class="cls-12" d="M1457,558c17.5037,147.8086-42.0161,312.0964-127,357-89.8036,47.45-324.11,26.8909-452,53-289,59-351.3352-113.8077-401-401C454,434,596.8306,361.9741,675,308c84-58,101-153,253-121,140.8407,29.6507,283.2749,6.483,344.6934,105.8085C1360,434,1443.6085,444.9164,1457,558Z"/><path class="cls-13" d="M716.5469,434.1611a45.02,45.02,0,0,0,6.4414.6221,49.4633,49.4633,0,0,0,6.3144.2236,60.1837,60.1837,0,0,0,7.0352-.5664q6.2314-.8686,5.5918-5.4756a5.1966,5.1966,0,0,0-2.3985-3.3261,57.5133,57.5133,0,0,0-5.3769-3.3936q-3.2285-1.831-6.9219-4.0771a45.4358,45.4358,0,0,1-7.1035-5.3643,32.8551,32.8551,0,0,1-5.9141-7.2568,25.52,25.52,0,0,1-3.3046-9.83,26.32,26.32,0,0,1,.7343-11.5684,22.82,22.82,0,0,1,5.2364-9.0166,28.9208,28.9208,0,0,1,8.8613-6.2783,39.9378,39.9378,0,0,1,11.4863-3.3271,63.685,63.685,0,0,1,6.5508-.5694q3.2988-.1141,5.9121-.2021,3.0351-.0088,5.9395,0l3.5332,25.3389q-1.1046.0189-2.4766.07-1.1045.0175-2.4766.0683c-.916.0371-1.873.1231-2.8652.2617-.543.0752-1.2168.1934-2.0234.3506a12.6355,12.6355,0,0,0-2.2559.66,4.7411,4.7411,0,0,0-1.7637,1.2129,2.353,2.353,0,0,0-.5488,2.0107q.1524,1.084,2.207,2.4551,2.0566,1.3711,5,3.1689,2.9443,1.8033,6.5254,4.2032a40.8316,40.8316,0,0,1,6.7344,5.6914,38.3934,38.3934,0,0,1,5.625,7.6406,28.0072,28.0072,0,0,1,3.2637,10.0439,32.8146,32.8146,0,0,1-.3379,11.4424,24.0081,24.0081,0,0,1-4.6289,9.9014,28.4415,28.4415,0,0,1-9.3809,7.5234,44.248,44.248,0,0,1-14.457,4.2959,90.6466,90.6466,0,0,1-9.6192.8574q-4.4706.1377-7.9511-.0664a65.6328,65.6328,0,0,1-7.4082-.625Zm13.6484,14.6739q1.9541.1421,4.16.11,1.9335.0088,4.0625-.083,2.13-.0894,4.2968-.3916a31.1351,31.1351,0,0,0,7.2618-1.91,18.7553,18.7553,0,0,0,6.0312-3.81,15.08,15.08,0,0,0,3.8106-5.8506,16.5456,16.5456,0,0,0,.6074-8.0264,15.2164,15.2164,0,0,0-3.0039-7.18,34.7675,34.7675,0,0,0-5.9571-6.0752,85.8232,85.8232,0,0,0-7.373-5.3262q-3.87-2.4975-7.3457-5.124a37.6136,37.6136,0,0,1-5.8633-5.3985,11.5877,11.5877,0,0,1-2.8437-6.0254,9.4084,9.4084,0,0,1,2.0683-7.956q2.7482-3.0762,9.66-4.041c.7207-.1006,1.4707-.1807,2.2441-.2432q1.16-.0908,2.2637-.1074a17.7876,17.7876,0,0,0,2.1875-.168l-.4922-3.5234a16.5116,16.5116,0,0,1-2.0508.1484q-.97,0-2.1289.09-1.1631.0938-2.3808.2627-7.3155,1.0194-11.5957,5-4.2832,3.9858-3.2969,11.0293a13.8424,13.8424,0,0,0,2.9551,6.8388,36.1277,36.1277,0,0,0,5.9218,5.8047q3.4923,2.7612,7.3633,5.2588,3.87,2.5005,7.3457,5.123a33.6776,33.6776,0,0,1,5.8906,5.6016,13.0593,13.0593,0,0,1,2.91,6.502q.9083,6.5039-3.0254,10.5048-3.9317,4.002-11.6562,5.0782a48.3942,48.3942,0,0,1-8.4942.4941q-2.0712.0147-4.0234-.1309Z"/><path class="cls-13" d="M771.27,362.99l53.252-7.4248,3.3066,23.7119-24.3906,3.4,1.3984,10.0274,23.9825-3.3438,3.1367,22.4932-23.9824,3.3437,1.4531,10.4336,25.3379-3.5332,3.3066,23.7129-54.1992,7.5576Zm55.2637,73.3789-.4531-3.2519-27.1016,3.7783-4.1367-29.6748,25.7441-3.59-.4531-3.251-25.7441,3.59L790.3066,374.7l27.1016-3.7783-.4531-3.251L786.332,371.94l9.5782,68.6983Z"/><path class="cls-13" d="M848.83,376.3486l-16.666,2.3243-3.3067-23.712L892,346.1562l3.3066,23.712-16.666,2.3242,9.2949,66.667-29.8105,4.1562Zm24.4492,53.503-9.125-65.4473,19.3769-2.7022-.4531-3.2509-42.2773,5.8945.4531,3.251,19.377-2.7022,9.125,65.4473Z"/><path class="cls-13" d="M911.9727,367.5449l-16.668,2.3242-3.3067-23.7119,63.1446-8.8047,3.3066,23.712-16.666,2.3242,9.2949,66.667-29.81,4.1562Zm24.4492,53.502L927.2969,355.6l19.3769-2.7012-.4531-3.2509-42.2773,5.8945.4531,3.251,19.3769-2.7022,9.125,65.4473Z"/><path class="cls-13" d="M959.8828,336.6914l30.6231-4.2695,12.6015,90.3789-30.623,4.2695ZM988.0449,413.85l-9.5781-68.6982-3.5215.4912,9.5781,68.6982Z"/><path class="cls-13" d="M999.99,331.1l23.7129-3.3057,29.7871,31.3467-4.8554-34.8232,28.3183-3.9483,12.6016,90.3789-23.8477,3.3243-29.6328-31.2305,4.836,34.6885-28.3184,3.9482Zm27.2149,77.29-8.7285-62.6015,53.4433,56.3672,3.5235-.4912-9.5782-68.6983-3.5234.4912,8.7285,62.6016-53.4433-56.3672-3.5235.4912,9.5781,68.6983Z"/><path class="cls-13" d="M1148.3145,341.7744a16.7043,16.7043,0,0,0-6.5606-2.4687,24.1146,24.1146,0,0,0-7.3437-.15,17.89,17.89,0,0,0-6.9825,2.4248,17.198,17.198,0,0,0-5.0742,4.7138,18.2412,18.2412,0,0,0-2.8867,6.5489,21.1716,21.1716,0,0,0-.2969,7.7763A19.46,19.46,0,0,0,1121.7188,368a18.3969,18.3969,0,0,0,4.9062,5.4629,18.9853,18.9853,0,0,0,6.5781,3.0889,19.3913,19.3913,0,0,0,7.5821.3935,18.1757,18.1757,0,0,0,8.1269-3.1377,20.2486,20.2486,0,0,0,5.7578-6.2588l-8.1308,1.1328-2.6446-18.97,34.8243-4.8555,4.1953,30.0811a50.32,50.32,0,0,1-6.0469,11.1338,47.7484,47.7484,0,0,1-8.6016,9.1435,46.95,46.95,0,0,1-10.8867,6.628,47.659,47.659,0,0,1-66.6641-37.2559,48.9681,48.9681,0,0,1,.9532-18.92,47.8114,47.8114,0,0,1,7.582-16.458,45.7239,45.7239,0,0,1,13.2188-12.2031,45.1664,45.1664,0,0,1,17.705-6.2676,51.6463,51.6463,0,0,1,13.35-.3418,50.8567,50.8567,0,0,1,9.8223,2.083,34.5516,34.5516,0,0,1,8.1133,3.7041Zm-1.0821-17.667a22.4736,22.4736,0,0,0-4.1191-.8076,39.298,39.298,0,0,0-4.6035-.3262,37.26,37.26,0,0,0-5.7481.3877,35.1431,35.1431,0,0,0-13.0547,4.4453,33.8044,33.8044,0,0,0-9.85,8.625,33.0637,33.0637,0,0,0-5.7265,11.918,36.73,36.73,0,0,0-.6778,14.4609,35.9146,35.9146,0,0,0,4.6739,13.7139,32.7847,32.7847,0,0,0,8.9746,9.8692,35.1681,35.1681,0,0,0,12.0351,5.5752,35.6372,35.6372,0,0,0,13.84.6943,33.4355,33.4355,0,0,0,16.3242-6.7656,36.3931,36.3931,0,0,0,10.6972-13.44l-2.4746-17.75L1153.16,356.71l.4531,3.2519,10.84-1.5117,1.8887,13.55a30.9246,30.9246,0,0,1-23.8555,17.14,32.8406,32.8406,0,0,1-12.4394-.5449,29.9214,29.9214,0,0,1-18.8653-13.9463,32.4535,32.4535,0,0,1-4.207-12.3291,33.2527,33.2527,0,0,1,.6055-13,30.1947,30.1947,0,0,1,5.125-10.7988,28.9845,28.9845,0,0,1,8.7988-7.7187,32.3381,32.3381,0,0,1,11.75-3.918,25.3169,25.3169,0,0,1,4.6621-.2354q2.2236.1056,3.9082.2842,1.9717.28,3.6738.5938Z"/><path class="cls-13" d="M1187.1328,368.5488a45.167,45.167,0,0,0,6.4395.6211,49.6665,49.6665,0,0,0,6.3164.2246,60.2192,60.2192,0,0,0,7.0351-.5674q6.2314-.8687,5.5918-5.4755a5.2128,5.2128,0,0,0-2.3984-3.3262,57.9933,57.9933,0,0,0-5.377-3.3936q-3.2284-1.83-6.9218-4.0771a45.3792,45.3792,0,0,1-7.1036-5.3643,32.8692,32.8692,0,0,1-5.914-7.2558,25.5244,25.5244,0,0,1-3.3047-9.83,26.3171,26.3171,0,0,1,.7344-11.5684,22.8149,22.8149,0,0,1,5.2363-9.0175,28.9133,28.9133,0,0,1,8.8613-6.2784,39.9416,39.9416,0,0,1,11.4864-3.3271,63.6805,63.6805,0,0,1,6.5507-.5693q3.299-.1128,5.9121-.2012,3.0353-.01,5.9395,0l3.5332,25.3388q-1.1045.0177-2.4785.0694-1.1045.0176-2.4746.0683-1.377.0557-2.8653.2618-.8143.1141-2.0234.3515a12.5913,12.5913,0,0,0-2.2559.6592,4.7762,4.7762,0,0,0-1.7656,1.2129,2.36,2.36,0,0,0-.5488,2.0107q.1524,1.084,2.207,2.4551,2.0566,1.3712,5.002,3.17,2.9443,1.8018,6.5254,4.2022a40.8847,40.8847,0,0,1,6.7343,5.6914,38.3979,38.3979,0,0,1,5.6231,7.6416,28.0031,28.0031,0,0,1,3.2656,10.043,32.8592,32.8592,0,0,1-.3379,11.4423,23.99,23.99,0,0,1-4.6308,9.9024,28.4434,28.4434,0,0,1-9.3789,7.5224,44.2009,44.2009,0,0,1-14.4571,4.2959,90.6922,90.6922,0,0,1-9.6191.8575q-4.4708.1377-7.9512-.0664a65.63,65.63,0,0,1-7.4082-.6241Zm13.6484,14.6739q1.9542.1406,4.16.1093,1.9336.0088,4.0625-.082,2.127-.0894,4.2969-.3926a31.09,31.09,0,0,0,7.2617-1.91,18.7624,18.7624,0,0,0,6.0313-3.8106,15.0794,15.0794,0,0,0,3.81-5.8506,16.5659,16.5659,0,0,0,.6074-8.0263,15.2316,15.2316,0,0,0-3.0039-7.1787,34.7852,34.7852,0,0,0-5.959-6.0762,85.7112,85.7112,0,0,0-7.3711-5.3262q-3.87-2.4975-7.3457-5.123a37.5212,37.5212,0,0,1-5.8632-5.3995,11.5868,11.5868,0,0,1-2.8438-6.0253,9.4034,9.4034,0,0,1,2.0684-7.9561q2.748-3.0762,9.6582-4.041c.7226-.1006,1.4726-.18,2.2461-.2432q1.16-.0893,2.2636-.1074a17.3466,17.3466,0,0,0,2.1856-.168l-.49-3.5234a16.3323,16.3323,0,0,1-2.0507.1494q-.97-.0015-2.1289.0889-1.1631.0938-2.3809.2627-7.3184,1.02-11.5977,5.001-4.28,3.9843-3.2968,11.0283a13.86,13.86,0,0,0,2.957,6.8388,36.0807,36.0807,0,0,0,5.92,5.8057q3.4952,2.76,7.3653,5.2578,3.87,2.5,7.3437,5.1231a33.6221,33.6221,0,0,1,5.8926,5.6025,13.0371,13.0371,0,0,1,2.9082,6.501q.9083,6.5039-3.0235,10.5058t-11.6562,5.0772a48.3235,48.3235,0,0,1-8.4941.4951q-2.0713.0132-4.0235-.1309Z"/><circle class="cls-13" cx="718" cy="592" r="69"/><circle class="cls-13" cx="718" cy="758" r="69"/><path class="cls-8" d="M747,631c-16-8-48-26-48-26s-21.72-1-30-1V578h30.02S730,561,747,553Z"/><path class="cls-8" d="M755.2547,602.1347a.5475.5475,0,0,1-.55-.2245,1.939,1.939,0,0,1,.0223-1.3168,1.5708,1.5708,0,0,1,1.0295-.7795c.9885-.7769,4.123-2.3453,4.0864-7.7522s-3.1675-7.3654-4.7085-7.6926a1.2592,1.2592,0,0,1-1.04-.7654,1.6232,1.6232,0,0,1,.0849-1.2018c.2514-.4411.7305-.3486.9394-.35,3.7144-.0252,6.756,4.45,6.7936,9.9958S758.9691,602.11,755.2547,602.1347Z"/><path class="cls-8" d="M758.3626,609.0826a.9253.9253,0,0,1-.93-.3794,3.2771,3.2771,0,0,1,.0377-2.226,2.6558,2.6558,0,0,1,1.74-1.3175c1.6711-1.3132,6.97-3.9645,6.9076-13.1042s-5.3542-12.45-7.9591-13.0034a2.1284,2.1284,0,0,1-1.7579-1.2938,2.7436,2.7436,0,0,1,.1434-2.0316c.4249-.7457,1.2349-.5892,1.5879-.5916,6.2788-.0426,11.42,7.5223,11.4838,16.8967S764.6413,609.04,758.3626,609.0826Z"/><path class="cls-8" d="M765.4812,614.5661a.9569.9569,0,0,1-1.0369-.503,5.0912,5.0912,0,0,1,.0388-2.9431,2.9867,2.9867,0,0,1,1.9377-1.74c1.8607-1.734,7.7626-5.2319,7.6806-17.3162s-5.9853-16.469-8.8894-17.2038a2.42,2.42,0,0,1-1.9611-1.7131,4.2473,4.2473,0,0,1,.1569-2.686,1.5619,1.5619,0,0,1,1.7691-.78c6.9981-.0475,12.7393,9.9619,12.8234,22.3564S772.4793,614.5186,765.4812,614.5661Z"/><path class="cls-8" d="M751.4514,780.2153c-.3706-2.219-2.16-3.9883-4.7641-5.0726V726.4313h-53.12v45.2765a22.1261,22.1261,0,0,0-3.8482.3047c-7.4794,1.2495-12.9281,5.94-12.17,10.4767s7.4355,7.2014,14.9148,5.9519,12.9281-5.94,12.17-10.4767c-.3706-2.219-2.16-3.9882-4.7642-5.0726V732.7337h40.5155v41.2249a22.1178,22.1178,0,0,0-3.8483.3048c-7.4793,1.2495-12.9281,5.94-12.17,10.4767s7.4355,7.2014,14.9148,5.9519S752.2093,784.7519,751.4514,780.2153Z"/></g></svg>
