<svg xmlns="http://www.w3.org/2000/svg" xmlns:xlink="http://www.w3.org/1999/xlink" width="1920" height="1080" viewBox="0 0 1920 1080"><defs><style>.cls-1{fill:#29abe2;opacity:0.38;}.cls-2{fill:#ffb555;}.cls-3{fill:#fc9;}.cls-4{fill:#c69c6d;}.cls-5,.cls-6{fill:none;stroke:#fc9;stroke-linecap:round;stroke-linejoin:round;}.cls-5{stroke-width:6px;}.cls-6{stroke-width:4.9677px;}.cls-7{fill:#2b00a5;}.cls-10,.cls-8{fill:#fff;}.cls-9{fill:#aa2100;}.cls-10{stroke:#2b00a5;stroke-miterlimit:10;stroke-width:5px;}.cls-11{opacity:0.44;}.cls-12{fill:#3fb6f5;}.cls-13{fill:#7f002e;}</style></defs><title>Slutskærm_vinder</title><g id="Layer_3" data-name="Layer 3"><rect class="cls-1" x="-3" y="3" width="1923" height="1080"/><ellipse class="cls-2" cx="255.6537" cy="617.3648" rx="93.805" ry="303.4867"/><ellipse class="cls-2" cx="1646.2106" cy="617.2839" rx="93.805" ry="339.1258"/><path class="cls-3" d="M1690.3182,843.5681c-31.3886,0-57.8629,56.54-66.2152,133.8845V418.0793c0-47.1974-29.7964-85.8129-66.2153-85.8129H377.0483c-36.4189,0-66.2152,38.6155-66.2152,85.8129V977.4526c-8.3524-77.3442-34.8266-133.8845-66.2153-133.8845-38.0934,0-68.9742,83.2426-68.9742,185.9279a479.5484,479.5484,0,0,0,3.7725,60.6679c5,.97,10.73,2.3513,16.1726,2.5264.2491.0042.4983.01.7473.014,4.56.0513,8.8832-.8032,12.3578-3.5407,3.2669-2.5738,6.3857.2118,7.1537,3.7456,1.19.017,2.3791.0225,3.5686.0361.8132-.1208,1.625-.2388,2.4435-.372a126.9082,126.9082,0,0,1,27.9492-1.5372c6.0971.3418,12.1733.7783,18.2587.9325a388.4713,388.4713,0,0,1,41.6786-1.3157q.5829-4.5087,1.087-9.1133v9.1444q4.092.1284,8.1716.3723c5.6564-.7716,11.3033-1.69,17.0215-1.49a4.4779,4.4779,0,0,1,3.617,1.9937c30.4991-.2091,60.9982.3522,91.4974,3.175a4.262,4.262,0,0,1,2.6951-.9018c21.331.03,42.7253,1.0564,64.0035-1.2559,9.16-.9954,17.968-1.4817,27.1554-.476,8.8559.97,17.6439,2.6433,26.4868,3.7518,18.2966,2.2931,36.3546-1.96,54.6488-.7125l1.6529.1129a4.5642,4.5642,0,0,1,4.3511-3.2489c18.9378.0278,37.8637.83,56.7975,1.1863,16.0846.3024,32.14-.0368,48.2191.7169,8.0269.3763,16.0666.7227,24.0985.3444,7.7384-.3642,15.352-1.8742,23.06-2.6264,15.0358-1.4674,30.1381-1.763,45.1855-3.1421a183.6592,183.6592,0,0,1,44.2706.8092,97.5785,97.5785,0,0,1,13.7148,1.5251c1.7657.3012,3.5243.6354,5.28.9849,18.4556-.2627,36.8965-.6553,55.3732-.3324,20.6425.3606,41.3382-.1407,61.9168,1.8392a4.2627,4.2627,0,0,1,3.1339-1.3051c22.796-.0451,45.6488-1.47,68.3047,2.3655,1.4771.25,2.95.53,4.4227.8184,23.7119.0571,47.4012,1.8179,71.1138,1.6941,20.91-.1091,41.6853-3.217,62.5433-4.5683,20.4382-1.3245,41.2277-1.2068,61.69-.5911,12.7556.3837,25.3395,2.5848,38.06,3.56a144.8577,144.8577,0,0,0,18.5484.4855,33.6951,33.6951,0,0,0,6.496-.7793,14.0849,14.0849,0,0,0,2.4146-.794c.0845-.13.1138-.1531.1213-.1388,2.7071-3.7409,7.511-1.8282,8.7431,1.8307,8.1813-.0977,16.3619-.2509,24.54-.5467,18.0334-.6521,35.6457-6.7476,53.7337-6.1063a4.4348,4.4348,0,0,1,3.3827,1.6937c12.9826.1317,25.8536,2.3091,38.6841,4.6178a325.7322,325.7322,0,0,0,44.4229,5.2553c26.229,1.0907,52.4685,1.9479,78.6733,3.7307,15.106,1.0278,30.0543,2.71,45.0244,2.8207V1081.54q1.441,13.3447,3.5872,25.8006a145.8429,145.8429,0,0,0,24.1894-2.1049c12.6-2.2464,25.2864-2.4927,37.9953-2.9191a276.7037,276.7037,0,0,0,39.5814-4.6687c8.553-1.5281,17.0815-2.9505,25.6121-3.9977a476.954,476.954,0,0,0,4.2241-64.1538C1759.2925,926.8107,1728.4116,843.5681,1690.3182,843.5681Z"/><path class="cls-3" d="M1610.7661,1061.13c-12.8962,1.1994-23.6348,12.1677-28.3019,27.2662l61.0392-.5315C1638.1,1070.95,1625.1783,1059.8337,1610.7661,1061.13Z"/><path class="cls-3" d="M318.8872,1091.0721c3.9515-.5378,7.8983-1.146,11.8674-1.4043-4.4461-15.7472-15.4037-27.3049-28.6565-28.5376q-1.1719-.1082-2.3278-.1081c-14.5265,0-27.2392,12.7039-31.537,30.9234A363.5968,363.5968,0,0,1,318.8872,1091.0721Z"/><path class="cls-3" d="M1679.2823,815.5074c-11.6878,0-22.8045,3.9483-33.1075,11.42V420.7991c0-73.2261-44.5586-132.7991-99.323-132.7991H366.0125C311.248,288,266.69,347.573,266.69,420.7991V826.927c-10.3031-7.4713-21.42-11.42-33.1077-11.42-59.1508,0-102.0819,99.29-102.0819,236.0873,0,13.0059.4122,25.6466,1.1659,37.9207,7.4257.0324,14.629,1.7615,22.1458.7057,7.0048-.9838,13.67-1.6957,20.7008-.7256,6.8562.9462,16.0289,3.85,23.9725,3.0822-1.119-12.6216-1.77-26.2817-1.77-40.983,0-95.2224,26.9377-147.5546,35.8666-147.5546,5.5341,0,26.1079,30.0837,33.4255,99.9955,2.4142,23.0338,17.7555,39.6553,35.0907,38.0234,17.3514-1.6139,30.8067-20.9047,30.8067-44.1582V420.7991c0-24.41,14.8511-44.2664,33.1077-44.2664H1546.8518c18.2566,0,33.1077,19.8565,33.1077,44.2664V997.9008c0,23.2535,13.4553,42.5443,30.8066,44.1582,17.4268,1.6391,32.6765-14.9932,35.0907-38.0234,7.3178-69.9118,27.8915-99.9955,33.4255-99.9955,8.929,0,35.8666,52.3322,35.8666,147.5546,0,12.6533-.4795,24.5412-1.3253,35.6577l66.5685-.58q.9632-17.0648.9722-35.078C1781.3643,914.7969,1738.4331,815.5074,1679.2823,815.5074Z"/><path d="M575.0624,1049.8308c-1.198.0835-2.3966.16-3.5963.2183,1.2035.0559,2.406.1307,3.6091.1941C575.0662,1050.1053,575.06,1049.9687,575.0624,1049.8308Z"/><path d="M612.1342,1094.7627q4.79.0058,9.58.067c.3907-5.1017.6056-10.3373.6056-15.6881,0-51.08-18.5285-92.4888-41.3846-92.4888s-41.3845,41.4087-41.3845,92.4888c0,5.98.257,11.8242.742,17.4878,3.726.48,7.4524.9582,11.1887,1.35,18.2966,1.9165,36.3546-1.6379,54.6488-.5955.5524.0315,1.1022.0606,1.654.0921A4.5307,4.5307,0,0,1,612.1342,1094.7627Z"/><path d="M1317.8665,1097.9084a40.0259,40.0259,0,0,0,6.496-.6513,16.1,16.1,0,0,0,2.4146-.6636c.0845-.1089.1138-.1279.1213-.116,2.7071-3.1264,7.511-1.5279,8.7431,1.53,8.1813-.0817,16.3619-.21,24.54-.4569,9.598-.29,19.0769-1.8664,28.5715-3.1991.3665-4.9493.56-10.0286.56-15.21,0-51.08-18.5284-92.4888-41.3846-92.4888s-41.3846,41.4087-41.3846,92.4888c0,6.43.2942,12.7056.8531,18.7654C1310.8881,1098.0264,1314.3816,1098.0594,1317.8665,1097.9084Z"/><rect class="cls-4" x="418.156" y="949.6573" width="320.0406" height="73.9911" rx="6"/><rect class="cls-4" x="1190.6677" y="949.6573" width="320.0406" height="73.9911" rx="6"/><path class="cls-2" d="M1900,176.0116s-157.2613,231.4123-645.5991,277.6948C778.0889,498.8491,266.69,432.6689,200.4743,316.9627,141.3615,213.6676,604.7141,21.6975,1069.55,112.8992,1541.3339,205.4641,1900,176.0116,1900,176.0116Z"/><path class="cls-5" d="M318.6313,278.6044C504.9855,387.8483,660.7208,416.56,765.1185,423.2823c85.6677,5.5166,217.2383-9.6792,476.8818-40.2961,97.6024-11.5091,178.2426-21.8757,233.32-29.1455"/><path class="cls-5" d="M291.7613,246.9919a936.3515,936.3515,0,0,0,248.3073,40.7494c64.5651,1.73,76.3486-4.7893,226.2356-17.464,163.5485-13.83,275.0295-16.6817,336.5944-17.4641,103.2472-1.3121,154.8715-1.9682,198.6459,5.8214,59.3677,10.5645,84.876,23.6323,137.9485,17.464,38.8371-4.5139,58.4974-15.3844,115.8767-23.2854a621.5462,621.5462,0,0,1,88.2871-5.8213"/><path class="cls-6" d="M331.2434,267.1705c139.4783-55.2631,256.19-71.9293,338.0233-76.7359,104.1588-6.1181,115.5074,9.11,245.3395,0,145.0621-10.1784,176.6346-32.3975,294.4074-28.2712,80.7909,2.8306,93.9,14.2664,190.82,24.2324,78.8994,8.1131,179.6773,11.79,299.8594,0"/><rect class="cls-7" x="27" y="71" width="289" height="243" rx="12"/><rect class="cls-7" x="30" y="905" width="388" height="137" rx="12"/><path class="cls-7" d="M1833,440H1611a12.0353,12.0353,0,0,1-12-12l84-164-84-163a12.0353,12.0353,0,0,1,12-12h222a12.0353,12.0353,0,0,1,12,12l-86,167,86,160A12.0353,12.0353,0,0,1,1833,440Z"/><path class="cls-8" d="M1822.1707,432H1621.8293c-5.9561,0-10.8293-5.1539-10.8293-11.453l75.8049-156.5242L1611,108.453c0-6.2991,4.8732-11.453,10.8293-11.453h200.3414c5.9561,0,10.8293,5.1539,10.8293,11.453l-77.61,159.3875L1833,420.547C1833,426.8461,1828.1268,432,1822.1707,432Z"/><polygon class="cls-8" points="156 100 56 100 52 95 56 89 156 89 161 95 156 100"/><polygon class="cls-8" points="287 193 187 193 183 188 187 182 287 182 292 188 287 193"/><polygon class="cls-8" points="186 195 187 273 183 279 179 274 177 195 182 190 186 195"/><polygon class="cls-8" points="184 101 185 179 181 185 177 180 175 101 180 96 184 101"/><polygon class="cls-8" points="54 194 55 272 51 278 47 273 45 194 50 189 54 194"/><polygon class="cls-8" points="166 195 167 273 163 279 159 274 157 195 162 190 166 195"/><polygon class="cls-8" points="166 103 167 181 163 187 159 182 157 103 162 98 166 103"/><polygon class="cls-8" points="54 103 55 181 51 187 47 182 45 103 50 98 54 103"/><polygon class="cls-8" points="297 103 298 181 294 187 290 182 288 103 293 98 297 103"/><polygon class="cls-8" points="298 195 299 273 295 279 291 274 289 195 294 190 298 195"/><polygon class="cls-8" points="289 286 189 286 185 281 189 275 289 275 294 281 289 286"/><polygon class="cls-8" points="287 100 187 100 183 95 187 89 287 89 292 95 287 100"/><polygon class="cls-8" points="156 193 56 193 52 188 56 182 156 182 161 188 156 193"/><polygon class="cls-8" points="156 286 56 286 52 281 56 275 156 275 161 281 156 286"/><path class="cls-9" d="M268,936c21,30-44,82-44,82s-62-52-45-77c20.2822-29.8267,45,13,45,13S248.5192,908.17,268,936Z"/><path class="cls-9" d="M147,937c21,30-44,82-44,82s-62-52-45-77c20.2822-29.8267,45,13,45,13S127.5192,909.17,147,937Z"/><path class="cls-9" d="M389,937c21,30-44,82-44,82s-62-52-45-77c20.2822-29.8267,45,13,45,13S369.5192,909.17,389,937Z"/><ellipse class="cls-10" cx="1720" cy="269" rx="35.5" ry="4.5"/><g class="cls-11"><image width="1995" height="1157" transform="translate(-36 -36)" xlink:href="Slutsk%C3%A6rm_vinder1.png"/></g><path class="cls-12" d="M1457,561c17.5037,147.8086-42.0161,312.0964-127,357-89.8036,47.45-324.11,26.8909-452,53-289,59-351.3352-113.8077-401-401C454,437,596.8306,364.9741,675,311c84-58,101-153,253-121,140.8407,29.6507,283.2749,6.483,344.6934,105.8085C1360,437,1443.6085,447.9164,1457,561Z"/><path class="cls-13" d="M521.2922,462.24q13.448-.0921,26.895-.21,3.821,66.9416,7.6407,133.8832,11.052-2.4892,22.11-4.9224,1.3269,22.9725,2.6541,45.9452-24.3338,7.19-48.616,14.7782Q526.6345,556.9771,521.2922,462.24Zm51.3657,155.4519q-.1836-3.1847-.3664-6.3693-13.4448,3.3943-26.8765,6.8873-3.7992-66.9524-7.5992-133.9047l-3.1448.1365q4.0029,70.6334,8.0061,141.2665Q557.66,621.6347,572.6579,617.6916Z"/><path class="cls-13" d="M574.7146,461.7757q23.8-.2482,47.5929-.5635,1.2649,21.1208,2.53,42.2414-10.8747.8947-21.7484,1.7994.5467,9.2534,1.0906,18.5069,10.68-1.2114,21.3663-2.4039,1.2014,20.0462,2.4013,40.0925-10.6634,1.8929-21.3219,3.8267.5676,9.6288,1.1348,19.2573,11.2485-2.3968,22.5048-4.7373,1.2651,21.0913,2.5291,42.183-24.0276,6.6727-48.0072,13.7212Q579.7509,548.7375,574.7146,461.7757Zm48.0262,143.116q-.1752-2.9348-.3493-5.8694-12.0253,2.8694-24.04,5.8155-1.6289-27.857-3.2581-55.714,11.45-1.761,22.9039-3.4854-.1748-2.9409-.35-5.8818-11.4591,1.6146-22.9114,3.2616-1.6066-27.4755-3.2137-54.9507,12.0936-.6564,24.1866-1.3124-.1747-2.9355-.3495-5.871-13.6682.61-27.3391,1.2163,3.7834,64.82,7.5661,129.6406Q609.1556,608.2646,622.7408,604.8917Z"/><path class="cls-13" d="M651.9692,460.7985q8.8911,33.2408,17.7442,64.994,4.8513-33.4465,9.7363-65.4154,14.1011-.2249,28.2027-.4663-11.1655,70.2165-22.1834,147.8961Q675.0553,610.52,664.65,613.3q-20.3442-72.0963-40.8918-152.1064Q637.8647,461.0059,651.9692,460.7985Zm23.2314,131.457q8.3737-59.6526,16.8535-114.8149l-3.3881.1525q-7.7572,50.4745-15.4348,104.63Q659.1578,532.75,644.9955,479.5571l-3.3868.152Q657.2,538.5714,672.6718,592.8468,673.9368,592.5507,675.2006,592.2555Z"/><path class="cls-13" d="M709.4686,459.88q23.7826-.4082,47.5619-.856,1.178,16.9,2.3559,33.8-10.8845.8217-21.7677,1.6564.5007,7.4117,1.0027,14.8233,10.6984-1.0858,21.3991-2.151,1.1178,16.04,2.2348,32.0811-10.6936,1.6412-21.3849,3.3219l1.0431,15.4244q11.2884-2.0672,22.5874-4.0807,1.178,16.8759,2.3556,33.7521-24.1508,5.6773-48.259,11.7014Q714.0329,529.6163,709.4686,459.88ZM756.8421,574.1q-.1624-2.349-.3235-4.6982Q744.444,571.86,732.3754,574.39q-1.4888-22.3232-2.9787-44.6463,11.4763-1.5477,22.9585-3.0591-.1617-2.3541-.3241-4.7083-11.4818,1.4206-22.9609,2.8747-1.4692-22.0173-2.9376-44.0347,12.0957-.6422,24.1932-1.279-.1618-2.35-.324-4.7-13.671.612-27.3409,1.2265,3.452,51.9512,6.9044,103.9024Q743.1986,576.9849,756.8421,574.1Z"/><path class="cls-13" d="M765.1376,458.8707q13.431-.2548,26.8623-.5195l6.5838,89.5965q11.1243-1.9026,22.2553-3.7543,1.17,15.3456,2.3383,30.6912-24.5581,5.3631-49.0768,11.0718Q769.6191,522.4136,765.1376,458.8707Zm50.1967,103.307q-.1606-2.1285-.3209-4.257-13.5474,2.562-27.0848,5.2114-3.237-44.849-6.4727-89.6978l-3.145.14q3.3987,47.327,6.7974,94.6541Q800.2148,565.1457,815.3343,562.1777Z"/><path class="cls-13" d="M845.3493,513.3522a80.6909,80.6909,0,0,1,1.4558-24.4739,56.3632,56.3632,0,0,1,7.7181-18.811,36.1792,36.1792,0,0,1,12.6062-11.881,33.8827,33.8827,0,0,1,16.1244-4.2014,42.8051,42.8051,0,0,1,12.4267,1.4726,57.2928,57.2928,0,0,1,9.5943,3.572,48.375,48.375,0,0,1,8.2185,4.984q-5.0973,13.9333-10.2046,28.4744a47.19,47.19,0,0,0-4.5487-3.1549,38.2982,38.2982,0,0,0-5.1125-2.0024,17.3583,17.3583,0,0,0-6.5781-.6846,13.8962,13.8962,0,0,0-6.7521,2.2353,17.7648,17.7648,0,0,0-5.1048,5.1894,23.0828,23.0828,0,0,0-3.0945,7.4317,28.11,28.11,0,0,0-.6006,8.8668,26.3033,26.3033,0,0,0,2.1242,8.5605,21.6014,21.6014,0,0,0,4.4122,6.5865,16.5687,16.5687,0,0,0,6.0959,3.9358,14.63,14.63,0,0,0,7.2967.6739,19.22,19.22,0,0,0,6.7987-2.2408,25.4728,25.4728,0,0,0,4.8463-3.4693,21.6638,21.6638,0,0,0,3.89-4.5141q7.6139,13.1528,15.2379,25.7143a42.9964,42.9964,0,0,1-7.2348,7.2144,70.9266,70.9266,0,0,1-8.9875,5.7195,43.6575,43.6575,0,0,1-12.3288,4.3425,36.2929,36.2929,0,0,1-17.7969-.5,34.3336,34.3336,0,0,1-14.7671-8.9336,49.8314,49.8314,0,0,1-10.56-16.7294A79.2222,79.2222,0,0,1,845.3493,513.3522Zm15.2516-1.751a52.5562,52.5562,0,0,1,.7916-14.8763,37.6468,37.6468,0,0,1,4.6493-12.2655,25.5186,25.5186,0,0,1,8.1775-8.3788,22.9413,22.9413,0,0,1,11.3757-3.427,26.9974,26.9974,0,0,1,5.6755.2656,22.4072,22.4072,0,0,1,4.29,1.0949,15.3379,15.3379,0,0,1,3.672,1.6454q.6861-1.872,1.37-3.7333-2.0332-.9663-4.29-1.788a41.1715,41.1715,0,0,0-4.8416-1.174,28.1746,28.1746,0,0,0-6.2255-.3581,24.7261,24.7261,0,0,0-11.5565,3.3543,28.2921,28.2921,0,0,0-9.2328,8.7884,42.0525,42.0525,0,0,0-5.8127,13.6676,60.1446,60.1446,0,0,0,2.7119,34.5929,36.4446,36.4446,0,0,0,7.9213,12.0323,26.3106,26.3106,0,0,0,10.8669,6.52,26.7316,26.7316,0,0,0,12.6033.6393,27.48,27.48,0,0,0,6.4783-1.9285,37.75,37.75,0,0,0,4.8214-2.5453,26.0078,26.0078,0,0,0,3.9063-3.1259q-1.0105-1.6756-2.0221-3.3616a16.3566,16.3566,0,0,1-3.4335,2.8753,26.3024,26.3024,0,0,1-4.2226,2.3388,26.7051,26.7051,0,0,1-18.1174.9164,23.7927,23.7927,0,0,1-9.6819-6.3638,34.0244,34.0244,0,0,1-6.67-10.983A50.9175,50.9175,0,0,1,860.6009,511.6012Z"/><path class="cls-13" d="M919.7034,505.1089a59.5343,59.5343,0,0,1,1.4817-20.31,49.3589,49.3589,0,0,1,7.5613-16.7522,37.49,37.49,0,0,1,12.4663-11.1585,33.8982,33.8982,0,0,1,16.0749-4.1643,40.6083,40.6083,0,0,1,16.8347,3.3842,50.5563,50.5563,0,0,1,14.5408,9.4509,52.1319,52.1319,0,0,1,10.65,13.9276,47.13,47.13,0,0,1,5.2514,17.1153,45.9161,45.9161,0,0,1-1.421,17.748,49.3849,49.3849,0,0,1-20.044,27.7467A42.0982,42.0982,0,0,1,966.956,548.75a35.4052,35.4052,0,0,1-16.8972-.8222A37.1151,37.1151,0,0,1,935.5,539.5621a47.2915,47.2915,0,0,1-10.6154-14.8467A58.2015,58.2015,0,0,1,919.7034,505.1089Zm11.39-1.1975A41.3851,41.3851,0,0,0,934.8744,518a34.9738,34.9738,0,0,0,7.785,10.7574,28.2876,28.2876,0,0,0,10.6437,6.2548,26.16,26.16,0,0,0,12.3545.8427,29.7173,29.7173,0,0,0,11.8051-4.6133,34.9551,34.9551,0,0,0,9.13-8.77,36.1919,36.1919,0,0,0,5.5377-11.56,34.7471,34.7471,0,0,0,1.0315-13.2221,35.478,35.478,0,0,0-3.8183-12.7547,37.6711,37.6711,0,0,0-7.8031-10.2678,35.47,35.47,0,0,0-10.6342-6.8341,28.9506,28.9506,0,0,0-12.3208-2.2135,25.4072,25.4072,0,0,0-11.7684,3.28,28.5315,28.5315,0,0,0-9.1122,8.2806,36.0925,36.0925,0,0,0-5.547,12.1389A42.0917,42.0917,0,0,0,931.0931,503.9114Zm34.2057,28.3773a23.4779,23.4779,0,0,1-11.112-.8232,25.9169,25.9169,0,0,1-9.5364-5.6644,31.7967,31.7967,0,0,1-7.0022-9.6093,36.6682,36.6682,0,0,1-3.4047-12.6086,37.2935,37.2935,0,0,1,.9585-13.0616,32.6371,32.6371,0,0,1,4.9966-10.8484,26.0748,26.0748,0,0,1,8.16-7.4741,22.8214,22.8214,0,0,1,10.5866-3.0136,25.68,25.68,0,0,1,11.0848,1.9307,31.7286,31.7286,0,0,1,9.5292,6.1277,33.9616,33.9616,0,0,1,7.0157,9.2173,31.9075,31.9075,0,0,1,3.4349,11.5313,31.3537,31.3537,0,0,1-.9315,11.9534,32.7376,32.7376,0,0,1-4.9882,10.3846,31.3371,31.3371,0,0,1-8.1739,7.867A26.3308,26.3308,0,0,1,965.2988,532.2887Zm-20.1482-29.8315a21.7417,21.7417,0,0,0,2.0818,7.5449,19.4126,19.4126,0,0,0,4.2482,5.8125,16.2617,16.2617,0,0,0,5.8107,3.4871,14.5429,14.5429,0,0,0,6.764.64,15.5856,15.5856,0,0,0,6.4609-2.37,18.3094,18.3094,0,0,0,4.9828-4.7283,19.98,19.98,0,0,0,3.5969-13.79,20.18,20.18,0,0,0-2.0921-7.1455,20.4028,20.4028,0,0,0-4.2546-5.6671,18.5036,18.5036,0,0,0-5.8069-3.6595,15.4167,15.4167,0,0,0-6.7541-1.05,14.3284,14.3284,0,0,0-6.4506,1.9706,16.3651,16.3651,0,0,0-4.9772,4.5815,19.8049,19.8049,0,0,0-3.0232,6.5558A22.0363,22.0363,0,0,0,945.1506,502.4572Z"/><path class="cls-13" d="M1006.5051,453.9028q10.6464-.2174,21.2932-.4307,12.3618,15.3214,24.7715,29.519,8.6323-15.7248,17.2138-30.34,10.6467-.2027,21.2952-.3988,4.9839,36.1924,9.97,72.3849-12.9788,1.894-25.948,3.8657-1.7618-13.6311-3.5244-27.2621-6.7933,12.2221-13.6168,25.1352-9.7894-10.4612-19.5456-21.583,1.7256,14.4477,3.45,28.8955-12.9612,2.0745-25.914,4.23Zm23.6294,71.6816q-3.279-28.1461-6.557-56.2925,15.8934,19.3449,31.8686,36.8534,11.18-20.5869,22.28-39.3374,3.3936,25.5883,6.788,51.1767,1.5838-.2122,3.1644-.4229-3.7566-28.1074-7.5145-56.2148-1.5736.0541-3.148.1088-11.07,18.8091-22.2237,39.4271-15.9932-17.83-31.9007-37.4781l-3.1475.1177q3.6144,31.2616,7.2293,62.5234Q1028.5542,525.8145,1030.1345,525.5844Z"/><path class="cls-13" d="M1166.3612,475.2924a19.9042,19.9042,0,0,1-1.067,11.4561,20.553,20.553,0,0,1-6.7354,8.2869,38.0168,38.0168,0,0,1-11.121,5.5055,72.6955,72.6955,0,0,1-14.3295,2.9646q1.2181,8.117,2.4361,16.2339-12.9863,1.7928-25.9652,3.6609-5.0149-35.6515-10.03-71.3031,12.8872-.2337,25.7752-.4561a74.6088,74.6088,0,0,1,14.6784,1.1475,45.2766,45.2766,0,0,1,12.4294,4.0638,27.7971,27.7971,0,0,1,9.1667,7.3309A23.2755,23.2755,0,0,1,1166.3612,475.2924Zm-11.7764.7069a16.4781,16.4781,0,0,0-3.0975-7.5216,18.1506,18.1506,0,0,0-6.1147-5.0862,30.381,30.381,0,0,0-8.5454-2.8486,47.781,47.781,0,0,0-10.2766-.7344q-6.8435.218-13.6867.4411,3.8457,26.5215,7.691,53.0428,1.5825-.2,3.1659-.3993-1.2094-8.2707-2.4175-16.5415,5.2887-.5109,10.5792-1.0135a46.0862,46.0862,0,0,0,9.9927-2.009,25.3386,25.3386,0,0,0,7.5976-3.8477,13.6276,13.6276,0,0,0,4.4469-5.7323A14.2344,14.2344,0,0,0,1154.5848,475.9993Zm-3.3987.2068a12.3822,12.3822,0,0,1-.7006,7.202,12.059,12.059,0,0,1-4.1464,4.93,22.0786,22.0786,0,0,1-6.6116,3.0454,44.1557,44.1557,0,0,1-8.2128,1.5043q-5.2876.4791-10.5761.9669l-4.5609-31.2107q5.27-.1944,10.54-.3852a45.5,45.5,0,0,1,8.4158.4563,26.0478,26.0478,0,0,1,7.3476,2.1778,16,16,0,0,1,5.564,4.3331A14.2911,14.2911,0,0,1,1151.1861,476.2061Zm-20.8358,8.9227q.5467-.0421,1.093-.0839c3.4055-.2623,5.7486-1.1071,7.0487-2.5216a6.4269,6.4269,0,0,0,1.405-5.6211,7.7282,7.7282,0,0,0-3.0856-5.3411c-1.6962-1.2275-4.2406-1.7664-7.6377-1.5974l-1.0909.0545Q1129.2156,477.5736,1130.35,485.1288Z"/><path class="cls-13" d="M1168.4079,450.936q13.4344-.2073,26.8707-.398,3.9781,22.1348,7.9547,44.27,11.2083-1.0573,22.4168-2.0725,1.44,7.5586,2.88,15.1169-24.7921,2.9233-49.563,6.103Q1173.6868,482.4457,1168.4079,450.936Zm51.9739,50.73q-.1959-1.0494-.3928-2.0988-13.6589,1.4059-27.3108,2.88-3.8687-22.1947-7.7384-44.39l-3.15.0887q4.0512,23.4312,8.1023,46.8624Q1205.1346,503.2927,1220.3818,501.6658Z"/><path class="cls-13" d="M1221.79,450.1806q23.79-.3038,47.5839-.5421,1.5,6.8646,3.0018,13.7292-10.9246.39-21.8474.8027.6225,3.0237,1.2471,6.0471,10.7514-.5268,21.5055-1.0274,1.4237,6.5159,2.8466,13.0319-10.7779.7629-21.554,1.56.6485,3.1463,1.2977,6.2922,11.3958-.9749,22.7956-1.9073,1.5027,6.8535,3.0041,13.7073-24.441,2.619-48.8674,5.4757Q1227.2985,478.7652,1221.79,450.1806Zm49.4741,46.2981q-.2033-.9558-.4087-1.9114-12.2025,1.1435-24.401,2.34-1.83-9.1245-3.66-18.2493,11.5553-.7479,23.112-1.46-.2048-.9579-.4087-1.916-11.553.6711-23.1048,1.3762-1.8048-9-3.61-17.9992,12.1254-.3387,24.2505-.6532-.204-.9559-.4087-1.912-13.6986.3064-27.3938.6418,4.2269,21.2473,8.4525,42.4952Q1257.4717,497.82,1271.2644,496.4787Z"/><path class="cls-13" d="M1291.1924,462.7141q-7.465.2523-14.9318.5157-1.5057-6.8148-3.0112-13.6294,28.2162-.2739,56.4419-.44,1.5743,6.1173,3.1493,12.2347-7.4688.2206-14.9365.4525,4.3743,17.702,8.7507,35.4037-13.4495,1.3242-26.8957,2.7171Q1295.4757,481.3413,1291.1924,462.7141Zm22.1927,29.83q-4.2553-17.7744-8.51-35.5488,8.6722-.1936,17.347-.3739-.2148-.8544-.4288-1.7087-18.9192.3306-37.8319.7218.2082.9184.416,1.8369,8.67-.2091,17.3442-.4053L1310.21,492.83Q1311.7973,492.6866,1313.3851,492.544Z"/><path class="cls-13" d="M1333.93,449.1365q23.8044-.13,47.6185-.1725,1.64,5.5192,3.2788,11.0385-10.9344.2625-21.8669.5507.6807,2.4384,1.3631,4.8767,10.7618-.3874,21.5253-.7475,1.5555,5.2391,3.1089,10.4784-10.7886.5877-21.5755,1.2084.71,2.5374,1.4188,5.0743,11.409-.77,22.82-1.5,1.64,5.51,3.281,11.0195-24.47,2.104-48.9273,4.4217Q1339.9518,472.26,1333.93,449.1365Zm50.4285,37.482c-.1495-.5129-.2973-1.0259-.4468-1.5387q-12.2179.9092-24.4286,1.8667-2.0013-7.3685-4.0021-14.7367,11.5669-.5752,23.1351-1.1154-.2232-.7715-.4468-1.5425-11.5637.504-23.1266,1.043-1.9739-7.2675-3.9468-14.5349,12.1331-.2194,24.2694-.4109c-.1495-.513-.2973-1.0261-.4468-1.5391q-13.7082.1737-27.4148.3823,4.6216,17.1644,9.2415,34.329Q1370.55,487.6878,1384.3583,486.6185Z"/><path class="cls-13" d="M866.9932,629.7646a26.6981,26.6981,0,0,0,1.8808-4.1787,9.2293,9.2293,0,0,0,.418-2.6464q0-4.6656-5.7119-4.667-.5582,0-1.0449.0351c-.3252.0235-.626.0586-.9053.1045a4.7432,4.7432,0,0,1-.9053.0693V605.5967q.9741-.21,1.7412-.3487t1.4971-.2089c.4883-.0459.998-.08,1.5332-.1045q.8-.0338,1.8457-.0352a29.8,29.8,0,0,1,6.5811.7315,17.7921,17.7921,0,0,1,5.8164,2.4033,12.87,12.87,0,0,1,4.1787,4.457,13.51,13.51,0,0,1,1.6015,6.8262,16.834,16.834,0,0,1-.417,3.7265,26.5085,26.5085,0,0,1-1.289,4.0049q-.8717,2.1592-2.2285,4.84t-3.169,6.2343l-.9053,1.7413h8.7754l-3.97,12.1884H855.292Zm11.5615,16.7159.6269-1.6709H867.76l7.87-14.9053a37.056,37.056,0,0,0,2.0547-4.7363,14.1105,14.1105,0,0,0,.8008-4.667q0-4.5967-2.96-6.9649a11.8389,11.8389,0,0,0-7.627-2.3681,2.017,2.017,0,0,0-.3828.0351,1.5972,1.5972,0,0,1-.3135.0352h-.2089v1.6709h.2089a1.5975,1.5975,0,0,0,.3135-.0342,1.9381,1.9381,0,0,1,.3828-.0352,9.69,9.69,0,0,1,6.3731,1.9854,7.0274,7.0274,0,0,1,2.4033,5.7461,13.0793,13.0793,0,0,1-.6973,4.0742,31.471,31.471,0,0,1-1.95,4.5625l-9.124,17.2725Z"/><path class="cls-13" d="M924.8018,628.8594q0,11.8418-4.9444,18.1094-4.9467,6.2681-13.791,6.2675-8.8463,0-13.791-6.2675-4.9453-6.27-4.9453-18.1094t4.9453-18.1094q4.9454-6.2681,13.791-6.2686t13.791,6.2686Q924.8013,617.02,924.8018,628.8594Zm-30.9942,0a35.3189,35.3189,0,0,0,.5928,6.373,20.4169,20.4169,0,0,0,1.9844,5.8858,12.0821,12.0821,0,0,0,3.7617,4.3173,11.3166,11.3166,0,0,0,11.84,0,12.1,12.1,0,0,0,3.7617-4.3173,20.4744,20.4744,0,0,0,1.9844-5.8858,34.6113,34.6113,0,0,0,0-12.7461,20.483,20.483,0,0,0-1.9844-5.8857,12.12,12.12,0,0,0-3.7617-4.3184,11.3224,11.3224,0,0,0-11.84,0,12.1025,12.1025,0,0,0-3.7617,4.3184,20.4255,20.4255,0,0,0-1.9844,5.8857A35.3191,35.3191,0,0,0,893.8076,628.8594Zm22.7061,0a37.07,37.07,0,0,1-.418,5.2588,19.5959,19.5959,0,0,1-1.5674,5.3974,11.7608,11.7608,0,0,1-3.2031,4.2139,9.0123,9.0123,0,0,1-10.5527,0,11.9457,11.9457,0,0,1-3.169-4.2139,19.6291,19.6291,0,0,1-1.5664-5.3974,33.2891,33.2891,0,0,1,0-10.5176,19.63,19.63,0,0,1,1.5664-5.3975,11.9543,11.9543,0,0,1,3.169-4.2138,9.0076,9.0076,0,0,1,10.5527,0,11.7691,11.7691,0,0,1,3.2031,4.2138,19.5966,19.5966,0,0,1,1.5674,5.3975A37.09,37.09,0,0,1,916.5137,628.8594Zm-5.99,0q0-10.9337-4.457-10.9356-4.4589,0-4.458,10.9356t4.458,10.9345Q910.5225,639.7939,910.5234,628.8594Z"/><path class="cls-13" d="M978.71,623.2871a18.2889,18.2889,0,0,1-1.6719,8.1836,14.6115,14.6115,0,0,1-4.5615,5.4678,19.555,19.555,0,0,1-6.7559,3.0644,33.8928,33.8928,0,0,1-8.3232.9756v11.0742h-14.836v-46.456h14.836a33.99,33.99,0,0,1,8.3232.9746,19.592,19.592,0,0,1,6.7559,3.0644,14.627,14.627,0,0,1,4.5615,5.4678A18.2946,18.2946,0,0,1,978.71,623.2871Zm-6.7559,0a12.6708,12.6708,0,0,0-1.08-5.4326,9.8468,9.8468,0,0,0-3.0293-3.7607,13.5886,13.5886,0,0,0-4.6318-2.1944,22.0564,22.0564,0,0,0-5.8154-.7314h-7.8711v35.3125h1.8115V635.4062h6.06a22.0148,22.0148,0,0,0,5.8154-.7314,13.6038,13.6038,0,0,0,4.6318-2.1934,9.8561,9.8561,0,0,0,3.0293-3.7617A12.6677,12.6677,0,0,0,971.9541,623.2871Zm-1.95,0a10.8356,10.8356,0,0,1-1.0449,5.0147,8.5187,8.5187,0,0,1-2.7861,3.2041,11.7432,11.7432,0,0,1-4.0049,1.707,21.1987,21.1987,0,0,1-4.77.5215h-6.06V612.84h6.06a21.1407,21.1407,0,0,1,4.77.5225,11.76,11.76,0,0,1,4.0049,1.7061,8.54,8.54,0,0,1,2.7861,3.2041A10.8434,10.8434,0,0,1,970.0039,623.2871Zm-12.6064,5.1543h.6269a5.6043,5.6043,0,0,0,4.2139-1.3584,6.2371,6.2371,0,0,0,0-7.5918,5.6043,5.6043,0,0,0-4.2139-1.3584h-.6269Z"/><path class="cls-13" d="M981.1465,628.8594a23.7216,23.7216,0,0,1,1.916-9.4727,24.3648,24.3648,0,0,1,12.9893-12.9892,24.3731,24.3731,0,0,1,18.9453,0,24.365,24.365,0,0,1,12.9892,12.9892,24.3848,24.3848,0,0,1,0,18.9453,24.3648,24.3648,0,0,1-12.9892,12.9893,24.386,24.386,0,0,1-18.9453,0,24.3645,24.3645,0,0,1-12.9893-12.9893A23.7176,23.7176,0,0,1,981.1465,628.8594Zm6.5478,0a17.3283,17.3283,0,0,0,1.3926,6.93,17.9721,17.9721,0,0,0,9.5069,9.5078,17.94,17.94,0,0,0,13.86,0,17.9688,17.9688,0,0,0,9.5078-9.5078,17.94,17.94,0,0,0,0-13.86,17.9706,17.9706,0,0,0-9.5078-9.5068,17.94,17.94,0,0,0-13.86,0,17.9739,17.9739,0,0,0-9.5069,9.5068A17.3363,17.3363,0,0,0,987.6943,628.8594Zm17.83,16.0195a15.489,15.489,0,0,1-6.2334-1.2539,16.296,16.296,0,0,1-8.5322-8.5322,16.1207,16.1207,0,0,1,0-12.4668,16.295,16.295,0,0,1,8.5322-8.5322,16.12,16.12,0,0,1,12.4668,0,16.2941,16.2941,0,0,1,8.5322,8.5322,16.1207,16.1207,0,0,1,0,12.4668,16.295,16.295,0,0,1-8.5322,8.5322A15.4921,15.4921,0,0,1,1005.5244,644.8789Zm-9.751-16.0195a9.4775,9.4775,0,0,0,.7657,3.7959,9.78,9.78,0,0,0,5.1894,5.1885,9.7812,9.7812,0,0,0,7.5918,0,9.7744,9.7744,0,0,0,5.1885-5.1885,9.7812,9.7812,0,0,0,0-7.5918,9.7807,9.7807,0,0,0-5.1885-5.1895,9.793,9.793,0,0,0-7.5918,0,9.7864,9.7864,0,0,0-5.1894,5.1895A9.4772,9.4772,0,0,0,995.7734,628.8594Z"/><path class="cls-13" d="M1033.7314,605.5967h15.7413v46.456h-15.7413Zm8.7764,40.8838V611.168h-1.8115v35.3125Z"/><path class="cls-13" d="M1054.3467,605.5967h12.1894l12.8155,17.8994V605.5967h14.5566v46.456h-12.2588l-12.7461-17.83v17.83h-14.5566Zm8.289,40.8838V614.3027l22.9844,32.1778h1.8106V611.168H1085.62v32.1787l-22.9844-32.1787h-1.8115v35.3125Z"/><path class="cls-13" d="M1104.9131,617.7852h-8.5674V605.5967h32.457v12.1885h-8.5673v34.2675h-15.3223Zm8.5664,28.6953V612.84h9.96V611.168h-21.73V612.84h9.96v33.6407Z"/><path class="cls-13" d="M1129.9844,637.6348a22.7506,22.7506,0,0,0,3.2041.7666,25.4228,25.4228,0,0,0,3.1689.5576,30.8011,30.8011,0,0,0,3.5869.209q3.2037,0,3.2041-2.3682a2.65,2.65,0,0,0-.9746-1.8457,29.4448,29.4448,0,0,0-2.4726-2.09q-1.4986-1.15-3.2041-2.542a23.0952,23.0952,0,0,1-3.2041-3.2041,16.7369,16.7369,0,0,1-2.4727-4.0743,13.0045,13.0045,0,0,1-.9746-5.1894,13.3886,13.3886,0,0,1,1.1836-5.7813,11.6309,11.6309,0,0,1,3.2734-4.1787,14.7377,14.7377,0,0,1,4.9112-2.542,20.3269,20.3269,0,0,1,6.0244-.8711,32.4888,32.4888,0,0,1,3.3428.1748q1.6713.1745,2.9951.3135,1.5308.208,2.9951.418v13.0244q-.5582-.0688-1.2539-.14-.5581-.0689-1.2539-.14c-.4639-.0449-.9522-.0693-1.4619-.0693-.2793,0-.627.0117-1.045.0351a6.35,6.35,0,0,0-1.1845.1739,2.4261,2.4261,0,0,0-.9746.4873,1.2025,1.2025,0,0,0-.418.9756q0,.558.94,1.3925.94.8364,2.2979,1.95,1.3593,1.1148,2.9951,2.5772a20.7972,20.7972,0,0,1,2.9951,3.3437,19.5248,19.5248,0,0,1,2.2988,4.2481,14.2352,14.2352,0,0,1,.9395,5.2939,16.6989,16.6989,0,0,1-.9746,5.7461,12.215,12.215,0,0,1-3.03,4.666,14.4946,14.4946,0,0,1-5.2578,3.1348,22.533,22.533,0,0,1-7.5918,1.1484,46.1259,46.1259,0,0,1-4.9111-.2431q-2.2632-.2446-4.0039-.5918a33.8833,33.8833,0,0,1-3.6924-.836Zm5.8506,8.3584q.9756.2094,2.09.3486.9741.1392,2.0547.2432t2.1943.1045a15.89,15.89,0,0,0,3.7959-.4522,9.5611,9.5611,0,0,0,3.3086-1.498,7.671,7.671,0,0,0,2.333-2.6817,8.4385,8.4385,0,0,0,.87-4.0049,7.7549,7.7549,0,0,0-1.01-3.83,17.75,17.75,0,0,0-2.5772-3.4825,43.7071,43.7071,0,0,0-3.3427-3.2041q-1.7769-1.5308-3.3438-3.1a19.2,19.2,0,0,1-2.5771-3.1338,5.9071,5.9071,0,0,1-1.01-3.2392,4.7832,4.7832,0,0,1,1.6025-3.8653q1.6011-1.3578,5.1543-1.3584.5566,0,1.1485.0352t1.1494.1045a8.8728,8.8728,0,0,0,1.1142.0693v-1.8105a8.38,8.38,0,0,1-1.0449-.07q-.4878-.0688-1.0791-.1045c-.3955-.0225-.8008-.0342-1.2187-.0342a10.5615,10.5615,0,0,0-6.1993,1.7061,6.0532,6.0532,0,0,0-2.4375,5.3281,7.0485,7.0485,0,0,0,1.01,3.6562,18.3787,18.3787,0,0,0,2.5772,3.3438q1.5673,1.6377,3.3427,3.1689,1.7769,1.5323,3.3438,3.1a17.1664,17.1664,0,0,1,2.5771,3.2383,6.6555,6.6555,0,0,1,1.01,3.4824,6.0232,6.0232,0,0,1-2.2637,5.085,9.9948,9.9948,0,0,1-6.2334,1.7412,24.5141,24.5141,0,0,1-4.3183-.3486q-1.0444-.1377-2.02-.3477Z"/></g></svg>
