<svg xmlns="http://www.w3.org/2000/svg" xmlns:xlink="http://www.w3.org/1999/xlink" width="1920" height="1080" viewBox="0 0 1920 1080"><defs><style>.cls-1{fill:#29abe2;opacity:0.38;}.cls-2{fill:#ffb555;}.cls-3{fill:#fc9;}.cls-4{fill:#c69c6d;}.cls-5,.cls-6{fill:none;stroke:#fc9;stroke-linecap:round;stroke-linejoin:round;}.cls-5{stroke-width:6px;}.cls-6{stroke-width:4.9677px;}.cls-7{fill:#2b00a5;}.cls-10,.cls-8{fill:#fff;}.cls-9{fill:#aa2100;}.cls-10{stroke:#2b00a5;stroke-miterlimit:10;stroke-width:5px;}.cls-11{opacity:0.44;}.cls-12{fill:#3fb6f5;}.cls-13{fill:#7f002e;}</style></defs><title>Slutskærm</title><g id="Layer_2" data-name="Layer 2"><rect class="cls-1" x="-1" y="-2" width="1923" height="1080"/></g><g id="Layer_1" data-name="Layer 1"><ellipse class="cls-2" cx="257.6537" cy="612.3648" rx="93.805" ry="303.4867"/><ellipse class="cls-2" cx="1648.2106" cy="612.2839" rx="93.805" ry="339.1258"/><path class="cls-3" d="M1692.3182,838.5681c-31.3886,0-57.8629,56.54-66.2152,133.8845V413.0793c0-47.1974-29.7964-85.8129-66.2153-85.8129H379.0483c-36.4189,0-66.2152,38.6155-66.2152,85.8129V972.4526c-8.3524-77.3442-34.8266-133.8845-66.2153-133.8845-38.0934,0-68.9742,83.2426-68.9742,185.9279a479.5484,479.5484,0,0,0,3.7725,60.6679c5,.97,10.73,2.3513,16.1726,2.5264.2491.0042.4983.01.7473.014,4.56.0513,8.8832-.8032,12.3578-3.5407,3.2669-2.5738,6.3857.2118,7.1537,3.7456,1.19.017,2.3791.0225,3.5686.0361.8132-.1208,1.625-.2388,2.4435-.372a126.9082,126.9082,0,0,1,27.9492-1.5372c6.0971.3418,12.1733.7783,18.2587.9325a388.4713,388.4713,0,0,1,41.6786-1.3157q.5829-4.5087,1.087-9.1133v9.1444q4.092.1284,8.1716.3723c5.6564-.7716,11.3033-1.69,17.0215-1.49a4.4779,4.4779,0,0,1,3.617,1.9937c30.4991-.2091,60.9982.3522,91.4974,3.175a4.262,4.262,0,0,1,2.6951-.9018c21.331.03,42.7253,1.0564,64.0035-1.2559,9.16-.9954,17.968-1.4817,27.1554-.476,8.8559.97,17.6439,2.6433,26.4868,3.7518,18.2966,2.2931,36.3546-1.96,54.6488-.7125l1.6529.1129a4.5642,4.5642,0,0,1,4.3511-3.2489c18.9378.0278,37.8637.83,56.7975,1.1863,16.0846.3024,32.14-.0368,48.2191.7169,8.0269.3763,16.0666.7227,24.0985.3444,7.7384-.3642,15.352-1.8742,23.06-2.6264,15.0358-1.4674,30.1381-1.763,45.1855-3.1421a183.6592,183.6592,0,0,1,44.2706.8092,97.5785,97.5785,0,0,1,13.7148,1.5251c1.7657.3012,3.5243.6354,5.28.9849,18.4556-.2627,36.8965-.6553,55.3732-.3324,20.6425.3606,41.3382-.1407,61.9168,1.8392a4.2627,4.2627,0,0,1,3.1339-1.3051c22.796-.0451,45.6488-1.47,68.3047,2.3655,1.4771.25,2.95.53,4.4227.8184,23.7119.0571,47.4012,1.8179,71.1138,1.6941,20.91-.1091,41.6853-3.217,62.5433-4.5683,20.4382-1.3245,41.2277-1.2068,61.69-.5911,12.7556.3837,25.3395,2.5848,38.06,3.56a144.8577,144.8577,0,0,0,18.5484.4855,33.6951,33.6951,0,0,0,6.496-.7793,14.0849,14.0849,0,0,0,2.4146-.794c.0845-.13.1138-.1531.1213-.1388,2.7071-3.7409,7.511-1.8282,8.7431,1.8307,8.1813-.0977,16.3619-.2509,24.54-.5467,18.0334-.6521,35.6457-6.7476,53.7337-6.1063a4.4348,4.4348,0,0,1,3.3827,1.6937c12.9826.1317,25.8536,2.3091,38.6841,4.6178a325.7322,325.7322,0,0,0,44.4229,5.2553c26.229,1.0907,52.4685,1.9479,78.6733,3.7307,15.106,1.0278,30.0543,2.71,45.0244,2.8207V1076.54q1.441,13.3447,3.5872,25.8006a145.8429,145.8429,0,0,0,24.1894-2.1049c12.6-2.2464,25.2864-2.4927,37.9953-2.9191a276.7037,276.7037,0,0,0,39.5814-4.6687c8.553-1.5281,17.0815-2.9505,25.6121-3.9977a476.954,476.954,0,0,0,4.2241-64.1538C1761.2925,921.8107,1730.4116,838.5681,1692.3182,838.5681Z"/><path class="cls-3" d="M1612.7661,1056.13c-12.8962,1.1994-23.6348,12.1677-28.3019,27.2662l61.0392-.5315C1640.1,1065.95,1627.1783,1054.8337,1612.7661,1056.13Z"/><path class="cls-3" d="M320.8872,1086.0721c3.9515-.5378,7.8983-1.146,11.8674-1.4043-4.4461-15.7472-15.4037-27.3049-28.6565-28.5376q-1.1719-.1082-2.3278-.1081c-14.5265,0-27.2392,12.7039-31.537,30.9234A363.5968,363.5968,0,0,1,320.8872,1086.0721Z"/><path class="cls-3" d="M1681.2823,810.5074c-11.6878,0-22.8045,3.9483-33.1075,11.42V415.7991c0-73.2261-44.5586-132.7991-99.323-132.7991H368.0125C313.248,283,268.69,342.573,268.69,415.7991V821.927c-10.3031-7.4713-21.42-11.42-33.1077-11.42-59.1508,0-102.0819,99.29-102.0819,236.0873,0,13.0059.4122,25.6466,1.1659,37.9207,7.4257.0324,14.629,1.7615,22.1458.7057,7.0048-.9838,13.67-1.6957,20.7008-.7256,6.8562.9462,16.0289,3.85,23.9725,3.0822-1.119-12.6216-1.77-26.2817-1.77-40.983,0-95.2224,26.9377-147.5546,35.8666-147.5546,5.5341,0,26.1079,30.0837,33.4255,99.9955,2.4142,23.0338,17.7555,39.6553,35.0907,38.0234,17.3514-1.6139,30.8067-20.9047,30.8067-44.1582V415.7991c0-24.41,14.8511-44.2664,33.1077-44.2664H1548.8518c18.2566,0,33.1077,19.8565,33.1077,44.2664V992.9008c0,23.2535,13.4553,42.5443,30.8066,44.1582,17.4268,1.6391,32.6765-14.9932,35.0907-38.0234,7.3178-69.9118,27.8915-99.9955,33.4255-99.9955,8.929,0,35.8666,52.3322,35.8666,147.5546,0,12.6533-.4795,24.5412-1.3253,35.6577l66.5685-.58q.9632-17.0648.9722-35.078C1783.3643,909.7969,1740.4331,810.5074,1681.2823,810.5074Z"/><path d="M577.0624,1044.8308c-1.198.0835-2.3966.16-3.5963.2183,1.2035.0559,2.406.1307,3.6091.1941C577.0662,1045.1053,577.06,1044.9687,577.0624,1044.8308Z"/><path d="M614.1342,1089.7627q4.79.0058,9.58.067c.3907-5.1017.6056-10.3373.6056-15.6881,0-51.08-18.5285-92.4888-41.3846-92.4888s-41.3845,41.4087-41.3845,92.4888c0,5.98.257,11.8242.742,17.4878,3.726.48,7.4524.9582,11.1887,1.35,18.2966,1.9165,36.3546-1.6379,54.6488-.5955.5524.0315,1.1022.0606,1.654.0921A4.5307,4.5307,0,0,1,614.1342,1089.7627Z"/><path d="M1319.8665,1092.9084a40.0259,40.0259,0,0,0,6.496-.6513,16.1,16.1,0,0,0,2.4146-.6636c.0845-.1089.1138-.1279.1213-.116,2.7071-3.1264,7.511-1.5279,8.7431,1.53,8.1813-.0817,16.3619-.21,24.54-.4569,9.598-.29,19.0769-1.8664,28.5715-3.1991.3665-4.9493.56-10.0286.56-15.21,0-51.08-18.5284-92.4888-41.3846-92.4888s-41.3846,41.4087-41.3846,92.4888c0,6.43.2942,12.7056.8531,18.7654C1312.8881,1093.0264,1316.3816,1093.0594,1319.8665,1092.9084Z"/><rect class="cls-4" x="420.156" y="944.6573" width="320.0406" height="73.9911" rx="6"/><rect class="cls-4" x="1192.6677" y="944.6573" width="320.0406" height="73.9911" rx="6"/><path class="cls-2" d="M1902,171.0116s-157.2613,231.4123-645.5991,277.6948C780.0889,493.8491,268.69,427.6689,202.4743,311.9627,143.3615,208.6676,606.7141,16.6975,1071.55,107.8992,1543.3339,200.4641,1902,171.0116,1902,171.0116Z"/><path class="cls-5" d="M320.6313,273.6044C506.9855,382.8483,662.7208,411.56,767.1185,418.2823c85.6677,5.5166,217.2383-9.6792,476.8818-40.2961,97.6024-11.5091,178.2426-21.8757,233.32-29.1455"/><path class="cls-5" d="M293.7613,241.9919a936.3515,936.3515,0,0,0,248.3073,40.7494c64.5651,1.73,76.3486-4.7893,226.2356-17.464,163.5485-13.83,275.0295-16.6817,336.5944-17.4641,103.2472-1.3121,154.8715-1.9682,198.6459,5.8214,59.3677,10.5645,84.876,23.6323,137.9485,17.464,38.8371-4.5139,58.4974-15.3844,115.8767-23.2854a621.5462,621.5462,0,0,1,88.2871-5.8213"/><path class="cls-6" d="M333.2434,262.1705c139.4783-55.2631,256.19-71.9293,338.0233-76.7359,104.1588-6.1181,115.5074,9.11,245.3395,0,145.0621-10.1784,176.6346-32.3975,294.4074-28.2712,80.7909,2.8306,93.9,14.2664,190.82,24.2324,78.8994,8.1131,179.6773,11.79,299.8594,0"/><rect class="cls-7" x="29" y="66" width="289" height="243" rx="12"/><rect class="cls-7" x="32" y="900" width="388" height="137" rx="12"/><path class="cls-7" d="M1835,435H1613a12.0353,12.0353,0,0,1-12-12l84-164L1601,96a12.0353,12.0353,0,0,1,12-12h222a12.0353,12.0353,0,0,1,12,12l-86,167,86,160A12.0353,12.0353,0,0,1,1835,435Z"/><path class="cls-8" d="M1824.1707,427H1623.8293c-5.9561,0-10.8293-5.1539-10.8293-11.453l75.8049-156.5242L1613,103.453c0-6.2991,4.8732-11.453,10.8293-11.453h200.3414C1830.1268,92,1835,97.1539,1835,103.453l-77.61,159.3875L1835,415.547C1835,421.8461,1830.1268,427,1824.1707,427Z"/><polygon class="cls-8" points="158 95 58 95 54 90 58 84 158 84 163 90 158 95"/><polygon class="cls-8" points="289 188 189 188 185 183 189 177 289 177 294 183 289 188"/><polygon class="cls-8" points="188 190 189 268 185 274 181 269 179 190 184 185 188 190"/><polygon class="cls-8" points="186 96 187 174 183 180 179 175 177 96 182 91 186 96"/><polygon class="cls-8" points="56 189 57 267 53 273 49 268 47 189 52 184 56 189"/><polygon class="cls-8" points="168 190 169 268 165 274 161 269 159 190 164 185 168 190"/><polygon class="cls-8" points="168 98 169 176 165 182 161 177 159 98 164 93 168 98"/><polygon class="cls-8" points="56 98 57 176 53 182 49 177 47 98 52 93 56 98"/><polygon class="cls-8" points="299 98 300 176 296 182 292 177 290 98 295 93 299 98"/><polygon class="cls-8" points="300 190 301 268 297 274 293 269 291 190 296 185 300 190"/><polygon class="cls-8" points="291 281 191 281 187 276 191 270 291 270 296 276 291 281"/><polygon class="cls-8" points="289 95 189 95 185 90 189 84 289 84 294 90 289 95"/><polygon class="cls-8" points="158 188 58 188 54 183 58 177 158 177 163 183 158 188"/><polygon class="cls-8" points="158 281 58 281 54 276 58 270 158 270 163 276 158 281"/><path class="cls-9" d="M270,931c21,30-44,82-44,82s-62-52-45-77c20.2822-29.8267,45,13,45,13S250.5192,903.17,270,931Z"/><path class="cls-9" d="M149,932c21,30-44,82-44,82s-62-52-45-77c20.2822-29.8267,45,13,45,13S129.5192,904.17,149,932Z"/><path class="cls-9" d="M391,932c21,30-44,82-44,82s-62-52-45-77c20.2822-29.8267,45,13,45,13S371.5192,904.17,391,932Z"/><ellipse class="cls-10" cx="1722" cy="264" rx="35.5" ry="4.5"/></g><g id="Layer_3" data-name="Layer 3"><g class="cls-11"><image width="1995" height="1157" transform="translate(-37 -38)" xlink:href="Slutsk%C3%A6rm1.png"/></g><path class="cls-12" d="M1459,556c17.5037,147.8086-42.0161,312.0964-127,357-89.8036,47.45-324.11,26.8909-452,53-289,59-351.3352-113.8077-401-401C456,432,598.8306,359.9741,677,306c84-58,101-153,253-121,140.8407,29.6507,283.2749,6.483,344.6934,105.8085C1362,432,1445.6085,442.9164,1459,556Z"/><path class="cls-13" d="M659.5254,443.8456a17.3321,17.3321,0,0,0-5.93-6.0351,17.6873,17.6873,0,0,0-7.4634-2.66,13.5033,13.5033,0,0,0-7.9453,1.5838,21.3649,21.3649,0,0,0-6.7778,5.9773,37.3643,37.3643,0,0,0-5.1821,9.7682,54.8575,54.8575,0,0,0-2.9615,12.6656,47.8262,47.8262,0,0,0,.1153,12.8837,32.1054,32.1054,0,0,0,3.2378,10.3531,19.5812,19.5812,0,0,0,5.8188,6.8374,13.9146,13.9146,0,0,0,7.7993,2.6452,15.6741,15.6741,0,0,0,9.5342-2.9082,30.0555,30.0555,0,0,0,8.0435-8.435q-4.4232-.1914-8.8457-.3907,1.7226-15.5288,3.4448-31.0575,18.7361,1.4752,37.48,2.8043-2.4037,23.6379-4.8061,47.2757a96.07,96.07,0,0,1-9.8208,15.854,74.5792,74.5792,0,0,1-11.999,12.46,54.441,54.441,0,0,1-13.71,8.2484,39.9225,39.9225,0,0,1-14.6123,3.0969,33.1321,33.1321,0,0,1-19.7525-5.9,46.2989,46.2989,0,0,1-14.6709-17.1254q-5.775-11.0185-7.9785-26.2386a122.0888,122.0888,0,0,1-.0141-32.698,133.9663,133.9663,0,0,1,7.7583-31.6277,97.2016,97.2016,0,0,1,13.4907-24.768,52.6971,52.6971,0,0,1,17.5054-15.0624A31.8936,31.8936,0,0,1,651.1582,388.1a37.7921,37.7921,0,0,1,13.54,4.5363,48.0123,48.0123,0,0,1,9.25,6.9042,42.3241,42.3241,0,0,1,7.0615,8.6624Q670.3851,425.6807,659.5254,443.8456Zm4.5513-28.263a19.8456,19.8456,0,0,0-3.9239-2.7222,30.3249,30.3249,0,0,0-4.5639-2.1529,26.0078,26.0078,0,0,0-5.95-1.4473,25.35,25.35,0,0,0-14.6968,2.4432A38.6026,38.6026,0,0,0,622.0215,422.28a65.5134,65.5134,0,0,0-9.9673,17.7366,98.118,98.118,0,0,0-5.7671,23.8854,91.0708,91.0708,0,0,0,.0142,24.3153,56.4568,56.4568,0,0,0,5.9184,18.8948,34.4806,34.4806,0,0,0,10.7261,12.2512,25.1418,25.1418,0,0,0,14.3687,4.4349c6.873.0455,13.373-2.344,19.4492-7.0362a59.6194,59.6194,0,0,0,15.5234-18.5685q1.486-14.1546,2.9722-28.3093-7.766-.4595-15.5322-.944-.2865,2.637-.5738,5.2743,5.8727.3324,11.7446.6507-1.1492,10.85-2.2983,21.7006a49.254,49.254,0,0,1-13.6562,15.6658,27.8653,27.8653,0,0,1-16.9742,5.7548,23.1892,23.1892,0,0,1-12.914-3.928,30.0385,30.0385,0,0,1-9.5982-10.9933,51.9731,51.9731,0,0,1-5.3217-17.0979,81.6731,81.6731,0,0,1-.0435-21.7814,88.0986,88.0986,0,0,1,5.1543-21.3981A60.2162,60.2162,0,0,1,624.2,426.72a33.46,33.46,0,0,1,11.5606-9.5034,23.3945,23.3945,0,0,1,13.2226-2.14,17.7975,17.7975,0,0,1,4.812,1.2693q2.2243.9476,3.8784,1.8189,1.9153,1.13,3.5469,2.2116Q662.6514,417.9735,664.0767,415.5826Z"/><path class="cls-13" d="M732.08,403.1818q11.4294,1.5149,22.8672,2.9744,12.3837,68.55,26.5708,131.0917-15.7559.6387-31.5171,1.177-1.1522-5.8578-2.29-11.7625-15.0983.297-30.2.5019-2.2172,6.17-4.4493,12.3842-15.77.4211-31.5473.7415Q707.7417,468.8846,732.08,403.1818Zm-26.582,119.98q1.9174-5.2045,3.8252-10.377,24.5455.1137,49.0859-.0178,1.0086,4.8847,2.0273,9.736,2.09-.0369,4.1783-.0753-10.4253-48.9242-19.8086-101.3334-2.7319-.2988-5.4634-.6008-18.48,49.69-38.0264,102.6933Q703.4077,523.1755,705.4976,523.162Zm36.1455-97.5327q7.5636,42.3558,15.8183,82.4418-23.1629-.0122-46.3276-.243Q726.7388,465.6492,741.6431,425.6293Zm.2636,71.8137q-2.3049-11.7451-4.5556-23.6777-4.3485,11.6319-8.7564,23.442Q735.251,497.3342,741.9067,497.443Z"/><path class="cls-13" d="M793.2822,410.8893q12.5955,1.503,25.2,2.9386,10.8663,24.865,22.1861,48.11,13.9884-22.0961,27.5507-42.71,12.62,1.3028,25.251,2.5384-2.458,54.9911-4.915,109.9821-15.9507.993-31.9112,1.883,1.1273-20.6814,2.2554-41.3627-10.9731,17.2321-22.21,35.3736-9.1692-17.2753-18.0689-35.55-1.4517,21.8257-2.9018,43.6513-15.9705.758-31.9507,1.4129Q788.5247,474.0228,793.2822,410.8893ZM803.707,521.5526q2.9766-42.4383,5.9536-84.8766,14.0714,31.4931,28.8838,60.3278,18.2307-28.9005,35.751-55.3707-1.965,38.8551-3.93,77.71,1.938-.0774,3.8745-.1563,2.108-42.6879,4.2154-85.3758-1.8743-.1516-3.7491-.305-17.4894,26.5359-35.6792,55.5279Q824.2852,459.7587,810.2832,427.8q-1.872-.1787-3.7436-.3588-3.3553,47.1065-6.7115,94.2126Q801.7683,521.6038,803.707,521.5526Z"/><path class="cls-13" d="M903.5186,422.7381q28.2092,2.6991,56.457,5.062-.2784,13.0064-.5571,26.0126-13.0752-.5285-26.146-1.1284-.1773,5.7337-.3536,11.4676,12.912.36,25.8267.6506-.2665,12.346-.5327,24.6922-13.043.2257-26.0864.3815-.1839,5.9663-.3677,11.9325,13.8458-.4173,27.6875-.9131-.2739,12.9849-.5459,25.97-29.9136,2.2908-59.8623,4.2191Q901.2785,476.9112,903.5186,422.7381Zm44.6137,92.8829q.0447-1.8123.09-3.6245-14.8683.7464-29.7422,1.4029.6093-17.3033,1.2173-34.6063,13.94.1064,27.8828.1323.0468-1.8161.0927-3.6323-13.9211-.1062-27.8422-.2925.6-17.0661,1.2011-34.1322,14.4573.9538,28.9209,1.82.0447-1.8122.0908-3.6245-16.32-1.0741-32.6313-2.26-1.4685,40.29-2.9385,80.5793Q931.3067,516.56,948.1323,515.621Z"/><path class="cls-13" d="M1011.8711,482.3771a45.4879,45.4879,0,0,1,4.1416-18.9023,44.1319,44.1319,0,0,1,27.0093-24.0238,50.7423,50.7423,0,0,1,19.5468-2.241,61.3774,61.3774,0,0,1,19.6529,4.6876,64.2333,64.2333,0,0,1,16.355,9.8112,49.364,49.364,0,0,1,11.3339,13.32,33.653,33.653,0,0,1,4.6128,15.6738,32.4136,32.4136,0,0,1-3.4526,15.8876,46.3768,46.3768,0,0,1-10.66,13.8694,62.8861,62.8861,0,0,1-16.3442,10.5346,63.9763,63.9763,0,0,1-20.2339,5.42,53.3375,53.3375,0,0,1-20.3447-1.6723,44.5361,44.5361,0,0,1-16.63-8.7729,42.1727,42.1727,0,0,1-11.0635-14.7391A43.8327,43.8327,0,0,1,1011.8711,482.3771Zm13.7856-.0982a31.0042,31.0042,0,0,0,2.9239,13.4824,31.3643,31.3643,0,0,0,8.1406,10.6328,34.01,34.01,0,0,0,12.1274,6.5372,39.4544,39.4544,0,0,0,14.8145,1.5043,45.1465,45.1465,0,0,0,14.7373-3.6383,43.9165,43.9165,0,0,0,11.9219-7.5823,33.73,33.73,0,0,0,7.8457-10.2408,24.8831,24.8831,0,0,0,2.5722-11.92,25.5243,25.5243,0,0,0-3.292-11.78,35.2579,35.2579,0,0,0-8.2856-9.8757,44.3763,44.3763,0,0,0-11.9805-7.0913,43.7639,43.7639,0,0,0-14.4433-3.118,38.171,38.171,0,0,0-14.37,1.9358,34.3716,34.3716,0,0,0-11.7774,6.826,32.8524,32.8524,0,0,0-7.9927,10.794A31.7857,31.7857,0,0,0,1025.6567,482.2789Zm37.9595,28.8438a35.4239,35.4239,0,0,1-13.3081-1.4281,31.0967,31.0967,0,0,1-10.8555-5.9125,28.5074,28.5074,0,0,1-7.3335-9.4878,27.39,27.39,0,0,1-2.6494-12.05,28.14,28.14,0,0,1,2.63-12.1,29.8063,29.8063,0,0,1,7.1865-9.6423,31.4059,31.4059,0,0,1,10.5562-6.1794,34.3351,34.3351,0,0,1,12.9428-1.82,38.8115,38.8115,0,0,1,13.0093,2.732,39.5185,39.5185,0,0,1,10.7378,6.355,31.626,31.626,0,0,1,7.4478,8.8807,22.946,22.946,0,0,1,2.9477,10.6744,22.4712,22.4712,0,0,1-2.332,10.7958,30.52,30.52,0,0,1-7.0679,9.2,39.3219,39.3219,0,0,1-10.6719,6.7864A40.0213,40.0213,0,0,1,1063.6162,511.1227Zm-20.9473-29.0192a16.1626,16.1626,0,0,0,1.6563,7.1739,17.5415,17.5415,0,0,0,4.4575,5.7117,19.6254,19.6254,0,0,0,6.6021,3.6342,21.9566,21.9566,0,0,0,8.0688,1.03,23.656,23.656,0,0,0,8.0269-1.7868,22.6857,22.6857,0,0,0,6.4926-4.0426,18.3587,18.3587,0,0,0,4.2979-5.66,14.38,14.38,0,0,0,1.4595-6.73,14.61,14.61,0,0,0-1.7652-6.6638,18.7893,18.7893,0,0,0-4.5024-5.4862,22.8861,22.8861,0,0,0-6.5576-3.7995,23.2873,23.2873,0,0,0-7.9571-1.5128,21.6334,21.6334,0,0,0-7.9184,1.2771,19.9283,19.9283,0,0,0-6.4487,3.8166,18.0853,18.0853,0,0,0-4.3414,5.8254A16.4406,16.4406,0,0,0,1042.6689,482.1035Z"/><path class="cls-13" d="M1130.63,438.9879q9.041,15.8749,18.312,30.56,7.3331-15.13,14.4424-29.1165,16.8141.6831,33.6386,1.2475-15.6957,29.5467-32.52,65.1047-12.8708,1.53-25.7539,2.9925a830.1289,830.1289,0,0,1-41.72-72.5042Q1113.825,438.1893,1130.63,438.9879Zm22.0019,60.9341q12.9083-27.3986,25.1333-51.3225-2.03-.0365-4.0576-.0747-11.2353,21.9688-23.0268,46.8269-14.9173-22.5421-29.2608-48.0983-2.0266-.06-4.0542-.1225,15.72,28.3693,32.1514,53.0948Q1151.0747,500.0744,1152.6323,499.922Z"/><path class="cls-13" d="M1199.19,441.7512q28.3777.939,56.7769,1.54,1.0231,6.6471,2.0478,13.2941-13.0986.2859-26.1967.5.3933,3.0479.7871,6.0957,12.92-.4439,25.8384-.9569.97,6.3139,1.9394,12.628-13.0041,1.0365-26.0117,2.0032.4093,3.1715.8188,6.3429,13.7878-1.2776,27.5664-2.6332,1.0276,6.6252,2.0547,13.25-29.6769,4.1469-59.4057,7.9329Q1202.2969,471.75,1199.19,441.7512Zm53.7334,47.3186q-.1354-.9405-.2714-1.8807-14.781,1.67-29.5743,3.25-1.1067-9.3591-2.2129-18.7181,13.9242-.7609,27.8448-1.6019-.1348-.9446-.27-1.889-13.908.76-27.8174,1.44-1.0921-9.2309-2.1831-18.4617,14.5085.0528,29.0219.0177-.1362-.94-.2714-1.8807-16.3821-.0569-32.7613-.226,2.5218,21.9015,5.042,43.8031Q1236.2024,491.053,1252.9233,489.07Z"/><path class="cls-13" d="M1265.6509,443.4866q16.6215.318,33.2524.52a146.4652,146.4652,0,0,1,17.3755,1.217,96.3222,96.3222,0,0,1,14.4,2.9289,39.303,39.303,0,0,1,10.2666,4.42c2.66,1.7259,4.3057,3.6968,4.9321,5.9949a5.3623,5.3623,0,0,1-.7832,4.8184,16.01,16.01,0,0,1-3.6875,3.6321,33.4758,33.4758,0,0,1-5.9658,3.164q10.771,5.43,21.6743,9.8417-18.4921,2.9427-37.0068,5.7446-8.573-4.1532-17.0581-8.9321,1.1206,5.5755,2.2417,11.1511-15.7815,2.3392-31.58,4.5763Q1269.6822,468.0251,1265.6509,443.4866Zm35.83,29.2608q5.7318-.5333,11.0566-1.5588,8.0684,4.4244,16.2139,8.286,2.2881-.3078,4.5776-.6178-8.5833-3.9522-17.0825-8.5267a38.9165,38.9165,0,0,0,11.7934-4.66c2.75-1.82,3.8189-3.9112,3.212-6.3579a7.3972,7.3972,0,0,0-3.5821-4.3957,28.4049,28.4049,0,0,0-7.55-3.111,68.1777,68.1777,0,0,0-10.5635-1.9243,110.5379,110.5379,0,0,0-12.7749-.6218q-7.8318.054-15.663.0823,3.2064,17.7487,6.4125,35.4975,1.922-.2418,3.8423-.4852-.9718-5.2507-1.9443-10.5015Q1295.4549,473.3078,1301.481,472.7474Zm-12.3584-.5525q-1.9636-10.6047-3.9268-21.2095,5.9509-.0614,11.9033-.1373c8.8067-.1088,15.88.6438,21.2456,2.1338,5.3662,1.4987,8.4082,3.6278,9.1128,6.5456.7012,2.9177-1.2646,5.3227-5.93,7.3491-4.6626,2.0178-11.4585,3.5015-20.3642,4.283Q1295.1426,471.6848,1289.1226,472.1949Zm11.6733-6.5759q.8049-.0543,1.6094-.1088a33.9055,33.9055,0,0,0,9.208-1.725c2.4267-.8884,3.46-2.1486,3.0893-3.8094-.3662-1.6605-1.9218-2.784-4.6474-3.4055a38.3079,38.3079,0,0,0-9.6216-.7678q-.8.0255-1.6011.0507Q1299.8147,460.7361,1300.7959,465.619Z"/><path class="cls-13" d="M833.6006,582.7852h-8.5674V570.5967H857.49v12.1885h-8.5673v34.2675H833.6006Zm8.5664,28.6953V577.84h9.96V576.168H830.3965V577.84h9.96v33.6407Z"/><path class="cls-13" d="M859.9268,570.5967h16.0195A27.607,27.607,0,0,1,884.2,571.78a19.22,19.22,0,0,1,6.582,3.4824,15.9668,15.9668,0,0,1,4.3526,5.6768,18.2635,18.2635,0,0,1,1.5673,7.7656,15.9651,15.9651,0,0,1-.9746,5.92,18.2025,18.2025,0,0,1-2.1591,4.04,15.0712,15.0712,0,0,1-3.1348,3.0645l8.706,15.3232H881.7275l-6.9648-11.77v11.77H859.9268Zm14.4873,30.2969a24.9476,24.9476,0,0,0,5.2939-.5567l6.6162,11.1436h2.1592l-6.9648-11.7012a13.0854,13.0854,0,0,0,5.99-4.0742,10.9869,10.9869,0,0,0,2.2285-7.1387,11.5614,11.5614,0,0,0-1.1846-5.3633,11.3434,11.3434,0,0,0-3.2382-3.8662,14.5463,14.5463,0,0,0-4.8409-2.3681,21.8887,21.8887,0,0,0-6.06-.8008h-7.5225v35.3125h1.8115V600.8936Zm-5.711-1.6709V577.84h5.711q6.3369,0,9.9248,2.7862a9.4614,9.4614,0,0,1,3.5869,7.94,9.3613,9.3613,0,0,1-3.5869,7.9043q-3.5874,2.7525-9.9248,2.752Zm6.06-5.7813h.7656a8.1464,8.1464,0,0,0,4.4932-1.1836,5.1929,5.1929,0,0,0,0-7.94,8.1551,8.1551,0,0,0-4.4932-1.1846h-.7656Z"/><path class="cls-13" d="M911.1191,597.0635l-14.417-26.4668H913.209l5.3633,9.82,5.2929-9.82h16.5069l-14.417,26.4668v19.9892h-14.836Zm8.3584,14.417V594.834l10.169-18.666h-2.1592l-8.915,16.5068-8.9854-16.5068h-2.09l10.1,18.666v16.6465Z"/><path class="cls-13" d="M969.1367,570.5967H980.28l17.622,46.456H983.2754l-1.5322-4.1787H967.6738l-1.5322,4.1787h-14.626Zm-7.2441,40.8838,1.3242-3.4825h22.9844l1.3232,3.4825h1.95L976.0322,576.168h-2.6465l-13.4433,35.3125ZM974.709,577.84l10.8652,28.4864H963.8428Zm3.1338,24.795-3.1338-8.1485-3.1348,8.1485Z"/><path class="cls-13" d="M1028.5479,586.4072a8.5007,8.5007,0,0,0-3.1348-1.707,12.282,12.282,0,0,0-3.6914-.5918,9.1142,9.1142,0,0,0-3.6914.7314,8.7776,8.7776,0,0,0-2.8907,2.02,9.3268,9.3268,0,0,0-1.915,3.1,10.7668,10.7668,0,0,0-.6963,3.9,9.9078,9.9078,0,0,0,.7656,3.9,9.3473,9.3473,0,0,0,2.09,3.1,9.6511,9.6511,0,0,0,3.1,2.0195,9.87,9.87,0,0,0,3.7959.7315,9.2467,9.2467,0,0,0,4.3184-1.01,10.32,10.32,0,0,0,3.3427-2.751h-4.1787v-9.751h17.9v15.4619a25.6687,25.6687,0,0,1-3.831,5.1885,24.306,24.306,0,0,1-4.9805,4.0049,23.8866,23.8866,0,0,1-5.9551,2.5772,24.2641,24.2641,0,0,1-30.9941-23.4717,24.9176,24.9176,0,0,1,1.8115-9.4727,24.3442,24.3442,0,0,1,4.98-7.7656,23.28,23.28,0,0,1,7.5224-5.2236,23.0063,23.0063,0,0,1,9.3682-1.9161,26.2867,26.2867,0,0,1,6.7559.7666,25.9274,25.9274,0,0,1,4.8056,1.7413,17.6389,17.6389,0,0,1,3.8311,2.4375Zm.6962-8.9853a11.4523,11.4523,0,0,0-2.0195-.6963,19.5773,19.5773,0,0,0-2.2988-.4873,18.7849,18.7849,0,0,0-2.9248-.209,17.8835,17.8835,0,0,0-6.8955,1.3232,17.2162,17.2162,0,0,0-5.5723,3.6563,16.8281,16.8281,0,0,0-3.7266,5.6074,18.73,18.73,0,0,0-1.3574,7.2432,18.2934,18.2934,0,0,0,1.3926,7.2431,16.7028,16.7028,0,0,0,3.8311,5.6075,17.9152,17.9152,0,0,0,5.6757,3.6562,18.1318,18.1318,0,0,0,6.9307,1.3233,17.02,17.02,0,0,0,8.7061-2.2637,18.5235,18.5235,0,0,0,6.3378-6.0244v-9.1241H1029.94v1.6719h5.5723v6.9649a15.7472,15.7472,0,0,1-13.2334,6.9648,16.7043,16.7043,0,0,1-6.2334-1.1494,15.2271,15.2271,0,0,1-8.5322-8.3574,16.5309,16.5309,0,0,1-1.2539-6.5127,16.9516,16.9516,0,0,1,1.2187-6.5127,15.3626,15.3626,0,0,1,3.3438-5.084,14.7244,14.7244,0,0,1,4.9795-3.2734,16.4388,16.4388,0,0,1,6.1992-1.1495,12.8237,12.8237,0,0,1,2.3681.209q1.1133.21,1.95.418.9742.2782,1.8106.5566Z"/><path class="cls-13" d="M1061.2822,570.5967h11.1436l17.6221,46.456h-14.627l-1.5322-4.1787h-14.0694l-1.5322,4.1787h-14.626Zm-7.2441,40.8838,1.3242-3.4825h22.9844l1.3232,3.4825h1.95l-13.4424-35.3125h-2.6465l-13.4433,35.3125Zm12.8164-33.6407,10.8652,28.4864h-21.7314Zm3.1338,24.795-3.1338-8.1485-3.1348,8.1485Z"/><path class="cls-13" d="M1091.0918,570.5967h15.7412v46.456h-15.7412Zm8.7764,40.8838V576.168h-1.8116v35.3125Z"/><path class="cls-13" d="M1111.707,570.5967h12.1895l12.8154,17.8994V570.5967h14.5567v46.456H1139.01l-12.7461-17.83v17.83H1111.707Zm8.2891,40.8838V579.3027l22.9844,32.1778h1.8105V576.168h-1.8105v32.1787l-22.9844-32.1787h-1.8115v35.3125Z"/><path class="cls-13" d="M1156.6309,603.332a14.7738,14.7738,0,0,1,.9746-5.6416,26.3547,26.3547,0,0,1,2.1591-4.2138q1.1836-1.8457,2.1592-3.3086a5.2485,5.2485,0,0,0,.9746-2.9258,3.6566,3.6566,0,0,0-.5566-2.124,3.8687,3.8687,0,0,0-1.4629-1.2539,6.38,6.38,0,0,0-2.124-.5918,22.4312,22.4312,0,0,0-2.542-.14H1154.75V570.1787q1.2539-.2094,2.1934-.3486t1.707-.209c.51-.0459,1.01-.08,1.4971-.1045q.731-.0338,1.707-.0352a23.82,23.82,0,0,1,7.1738,1.0108,15.9576,15.9576,0,0,1,5.4668,2.89,13.1382,13.1382,0,0,1,3.5176,4.5274,13.499,13.499,0,0,1,1.2539,5.8506,12.3626,12.3626,0,0,1-1.2187,5.5371,50.52,50.52,0,0,1-2.6817,4.7715q-1.4634,2.2983-2.6816,4.5273a9.726,9.726,0,0,0-1.2188,4.7363Zm0,2.0889h14.9043v11.6318h-14.9043Zm9.2627-6.4775a6.3451,6.3451,0,0,1,.9052-2.9248q.9052-1.6714,1.9854-3.587t1.9853-3.9355a9.667,9.667,0,0,0,.9053-3.97,8.0624,8.0624,0,0,0-2.3682-6.06q-2.3686-2.2983-7.3828-2.2988h-1.8105V577.84h1.8105a12.07,12.07,0,0,1,3.0645.3829,7.7408,7.7408,0,0,1,2.5771,1.1845,5.798,5.798,0,0,1,1.7764,2.0889,6.5664,6.5664,0,0,1,.6611,3.03,9.5861,9.5861,0,0,1-.9052,4.0048q-.9054,1.985-1.9854,3.8653t-1.9844,3.5527a6.4208,6.4208,0,0,0-.9052,2.9942Zm1.4628,13.0947v-1.6026H1160.81v1.6026Z"/></g></svg>
