<svg xmlns="http://www.w3.org/2000/svg" width="1920" height="1080" viewBox="0 0 1920 1080"><defs><style>.cls-1{fill:#29abe2;opacity:0.38;}.cls-2{fill:#ffb555;}.cls-3{fill:#fc9;}.cls-4{fill:#c69c6d;}.cls-5,.cls-6{fill:none;stroke:#fc9;stroke-linecap:round;stroke-linejoin:round;}.cls-5{stroke-width:6px;}.cls-6{stroke-width:4.9677px;}</style></defs><title>spilskærm</title><g id="Layer_2" data-name="Layer 2"><rect class="cls-1" x="-3" width="1923" height="1080"/></g><g id="Layer_1" data-name="Layer 1"><ellipse class="cls-2" cx="255.6537" cy="614.3648" rx="93.805" ry="303.4867"/><ellipse class="cls-2" cx="1646.2106" cy="614.2839" rx="93.805" ry="339.1258"/><path class="cls-3" d="M1690.3182,840.5681c-31.3886,0-57.8629,56.54-66.2152,133.8845V415.0793c0-47.1974-29.7964-85.8129-66.2153-85.8129H377.0483c-36.4189,0-66.2152,38.6155-66.2152,85.8129V974.4526c-8.3524-77.3442-34.8266-133.8845-66.2153-133.8845-38.0934,0-68.9742,83.2426-68.9742,185.9279a479.5484,479.5484,0,0,0,3.7725,60.6679c5,.97,10.73,2.3513,16.1726,2.5264.2491.0042.4983.01.7473.014,4.56.0513,8.8832-.8032,12.3578-3.5407,3.2669-2.5738,6.3857.2118,7.1537,3.7456,1.19.017,2.3791.0225,3.5686.0361.8132-.1208,1.625-.2388,2.4435-.372a126.9082,126.9082,0,0,1,27.9492-1.5372c6.0971.3418,12.1733.7783,18.2587.9325a388.4713,388.4713,0,0,1,41.6786-1.3157q.5829-4.5087,1.087-9.1133v9.1444q4.092.1284,8.1716.3723c5.6564-.7716,11.3033-1.69,17.0215-1.49a4.4779,4.4779,0,0,1,3.617,1.9937c30.4991-.2091,60.9982.3522,91.4974,3.175a4.262,4.262,0,0,1,2.6951-.9018c21.331.03,42.7253,1.0564,64.0035-1.2559,9.16-.9954,17.968-1.4817,27.1554-.476,8.8559.97,17.6439,2.6433,26.4868,3.7518,18.2966,2.2931,36.3546-1.96,54.6488-.7125l1.6529.1129a4.5642,4.5642,0,0,1,4.3511-3.2489c18.9378.0278,37.8637.83,56.7975,1.1863,16.0846.3024,32.14-.0368,48.2191.7169,8.0269.3763,16.0666.7227,24.0985.3444,7.7384-.3642,15.352-1.8742,23.06-2.6264,15.0358-1.4674,30.1381-1.763,45.1855-3.1421a183.6592,183.6592,0,0,1,44.2706.8092,97.5785,97.5785,0,0,1,13.7148,1.5251c1.7657.3012,3.5243.6354,5.28.9849,18.4556-.2627,36.8965-.6553,55.3732-.3324,20.6425.3606,41.3382-.1407,61.9168,1.8392a4.2627,4.2627,0,0,1,3.1339-1.3051c22.796-.0451,45.6488-1.47,68.3047,2.3655,1.4771.25,2.95.53,4.4227.8184,23.7119.0571,47.4012,1.8179,71.1138,1.6941,20.91-.1091,41.6853-3.217,62.5433-4.5683,20.4382-1.3245,41.2277-1.2068,61.69-.5911,12.7556.3837,25.3395,2.5848,38.06,3.56a144.8577,144.8577,0,0,0,18.5484.4855,33.6951,33.6951,0,0,0,6.496-.7793,14.0849,14.0849,0,0,0,2.4146-.794c.0845-.13.1138-.1531.1213-.1388,2.7071-3.7409,7.511-1.8282,8.7431,1.8307,8.1813-.0977,16.3619-.2509,24.54-.5467,18.0334-.6521,35.6457-6.7476,53.7337-6.1063a4.4348,4.4348,0,0,1,3.3827,1.6937c12.9826.1317,25.8536,2.3091,38.6841,4.6178a325.7322,325.7322,0,0,0,44.4229,5.2553c26.229,1.0907,52.4685,1.9479,78.6733,3.7307,15.106,1.0278,30.0543,2.71,45.0244,2.8207V1078.54q1.441,13.3447,3.5872,25.8006a145.8429,145.8429,0,0,0,24.1894-2.1049c12.6-2.2464,25.2864-2.4927,37.9953-2.9191a276.7037,276.7037,0,0,0,39.5814-4.6687c8.553-1.5281,17.0815-2.9505,25.6121-3.9977a476.954,476.954,0,0,0,4.2241-64.1538C1759.2925,923.8107,1728.4116,840.5681,1690.3182,840.5681Z"/><path class="cls-3" d="M1610.7661,1058.13c-12.8962,1.1994-23.6348,12.1677-28.3019,27.2662l61.0392-.5315C1638.1,1067.95,1625.1783,1056.8337,1610.7661,1058.13Z"/><path class="cls-3" d="M318.8872,1088.0721c3.9515-.5378,7.8983-1.146,11.8674-1.4043-4.4461-15.7472-15.4037-27.3049-28.6565-28.5376q-1.1719-.1082-2.3278-.1081c-14.5265,0-27.2392,12.7039-31.537,30.9234A363.5968,363.5968,0,0,1,318.8872,1088.0721Z"/><path class="cls-3" d="M1679.2823,812.5074c-11.6878,0-22.8045,3.9483-33.1075,11.42V417.7991c0-73.2261-44.5586-132.7991-99.323-132.7991H366.0125C311.248,285,266.69,344.573,266.69,417.7991V823.927c-10.3031-7.4713-21.42-11.42-33.1077-11.42-59.1508,0-102.0819,99.29-102.0819,236.0873,0,13.0059.4122,25.6466,1.1659,37.9207,7.4257.0324,14.629,1.7615,22.1458.7057,7.0048-.9838,13.67-1.6957,20.7008-.7256,6.8562.9462,16.0289,3.85,23.9725,3.0822-1.119-12.6216-1.77-26.2817-1.77-40.983,0-95.2224,26.9377-147.5546,35.8666-147.5546,5.5341,0,26.1079,30.0837,33.4255,99.9955,2.4142,23.0338,17.7555,39.6553,35.0907,38.0234,17.3514-1.6139,30.8067-20.9047,30.8067-44.1582V417.7991c0-24.41,14.8511-44.2664,33.1077-44.2664H1546.8518c18.2566,0,33.1077,19.8565,33.1077,44.2664V994.9008c0,23.2535,13.4553,42.5443,30.8066,44.1582,17.4268,1.6391,32.6765-14.9932,35.0907-38.0234,7.3178-69.9118,27.8915-99.9955,33.4255-99.9955,8.929,0,35.8666,52.3322,35.8666,147.5546,0,12.6533-.4795,24.5412-1.3253,35.6577l66.5685-.58q.9632-17.0648.9722-35.078C1781.3643,911.7969,1738.4331,812.5074,1679.2823,812.5074Z"/><path d="M575.0624,1046.8308c-1.198.0835-2.3966.16-3.5963.2183,1.2035.0559,2.406.1307,3.6091.1941C575.0662,1047.1053,575.06,1046.9687,575.0624,1046.8308Z"/><path d="M612.1342,1091.7627q4.79.0058,9.58.067c.3907-5.1017.6056-10.3373.6056-15.6881,0-51.08-18.5285-92.4888-41.3846-92.4888s-41.3845,41.4087-41.3845,92.4888c0,5.98.257,11.8242.742,17.4878,3.726.48,7.4524.9582,11.1887,1.35,18.2966,1.9165,36.3546-1.6379,54.6488-.5955.5524.0315,1.1022.0606,1.654.0921A4.5307,4.5307,0,0,1,612.1342,1091.7627Z"/><path d="M1317.8665,1094.9084a40.0259,40.0259,0,0,0,6.496-.6513,16.1,16.1,0,0,0,2.4146-.6636c.0845-.1089.1138-.1279.1213-.116,2.7071-3.1264,7.511-1.5279,8.7431,1.53,8.1813-.0817,16.3619-.21,24.54-.4569,9.598-.29,19.0769-1.8664,28.5715-3.1991.3665-4.9493.56-10.0286.56-15.21,0-51.08-18.5284-92.4888-41.3846-92.4888s-41.3846,41.4087-41.3846,92.4888c0,6.43.2942,12.7056.8531,18.7654C1310.8881,1095.0264,1314.3816,1095.0594,1317.8665,1094.9084Z"/><rect class="cls-4" x="418.156" y="946.6573" width="320.0406" height="73.9911" rx="6"/><rect class="cls-4" x="1190.6677" y="946.6573" width="320.0406" height="73.9911" rx="6"/><path class="cls-2" d="M1900,173.0116s-157.2613,231.4123-645.5991,277.6948C778.0889,495.8491,266.69,429.6689,200.4743,313.9627,141.3615,210.6676,604.7141,18.6975,1069.55,109.8992,1541.3339,202.4641,1900,173.0116,1900,173.0116Z"/><path class="cls-5" d="M318.6313,275.6044C504.9855,384.8483,660.7208,413.56,765.1185,420.2823c85.6677,5.5166,217.2383-9.6792,476.8818-40.2961,97.6024-11.5091,178.2426-21.8757,233.32-29.1455"/><path class="cls-5" d="M291.7613,243.9919a936.3515,936.3515,0,0,0,248.3073,40.7494c64.5651,1.73,76.3486-4.7893,226.2356-17.464,163.5485-13.83,275.0295-16.6817,336.5944-17.4641,103.2472-1.3121,154.8715-1.9682,198.6459,5.8214,59.3677,10.5645,84.876,23.6323,137.9485,17.464,38.8371-4.5139,58.4974-15.3844,115.8767-23.2854a621.5462,621.5462,0,0,1,88.2871-5.8213"/><path class="cls-6" d="M331.2434,264.1705c139.4783-55.2631,256.19-71.9293,338.0233-76.7359,104.1588-6.1181,115.5074,9.11,245.3395,0,145.0621-10.1784,176.6346-32.3975,294.4074-28.2712,80.7909,2.8306,93.9,14.2664,190.82,24.2324,78.8994,8.1131,179.6773,11.79,299.8594,0"/></g></svg>
