<svg xmlns="http://www.w3.org/2000/svg" width="378" height="513" viewBox="0 0 378 513"><defs><style>.cls-1{fill:#2b00a5;}.cls-2,.cls-3{fill:#fff;}.cls-3{stroke:#2b00a5;stroke-miterlimit:10;stroke-width:5px;}</style></defs><title>Tid</title><g id="Layer_1" data-name="Layer 1"><path class="cls-1" d="M312,416H90a12.0353,12.0353,0,0,1-12-12l84-164L78,77A12.0353,12.0353,0,0,1,90,65H312a12.0353,12.0353,0,0,1,12,12L238,244l86,160A12.0353,12.0353,0,0,1,312,416Z"/><path class="cls-2" d="M301.1707,408H100.8293C94.8732,408,90,402.8461,90,396.547l75.8049-156.5242L90,84.453C90,78.1539,94.8732,73,100.8293,73H301.1707C307.1268,73,312,78.1539,312,84.453L234.39,243.8405,312,396.547C312,402.8461,307.1268,408,301.1707,408Z"/><ellipse class="cls-3" cx="199" cy="245" rx="35.5" ry="4.5"/></g></svg>
