<svg xmlns="http://www.w3.org/2000/svg" width="1920" height="1080" viewBox="0 0 1920 1080"><defs><style>.cls-1,.cls-2,.cls-3{fill:#29abe2;}.cls-1{opacity:0.44;}.cls-2,.cls-3{stroke:#29abe2;stroke-width:10px;}.cls-13,.cls-14,.cls-17,.cls-19,.cls-2,.cls-20,.cls-21,.cls-24,.cls-3,.cls-8,.cls-9{stroke-miterlimit:10;}.cls-2{opacity:0.37;}.cls-19,.cls-20,.cls-21,.cls-24,.cls-4{fill:#fff;}.cls-5{fill:#b50000;}.cls-6{fill:#2900d4;}.cls-7,.cls-8,.cls-9{fill:#f2f2f2;}.cls-8,.cls-9{stroke:#ccc;}.cls-14,.cls-9{stroke-width:2px;}.cls-10{fill:#006837;}.cls-11{fill:#009245;}.cls-12{fill:#007;}.cls-13,.cls-14,.cls-17,.cls-19,.cls-20,.cls-21{stroke:#000;}.cls-13,.cls-21{stroke-width:7px;}.cls-14,.cls-27,.cls-28{fill:none;}.cls-15{fill:#fc9;}.cls-16{fill:#00a;}.cls-18{fill:#df001f;}.cls-20{stroke-width:0.5px;}.cls-22{fill:#ffb59c;}.cls-23{fill:#ffb555;}.cls-24{stroke:#fff;stroke-width:4.1459px;}.cls-25{fill:#f8b2b0;}.cls-26{fill:#c69c6d;}.cls-27,.cls-28{stroke:#fc9;stroke-linecap:round;stroke-linejoin:round;}.cls-27{stroke-width:6px;}.cls-28{stroke-width:4.9677px;}.cls-29{fill:#7f002e;}</style></defs><title>Titelskærm</title><g id="Layer_1" data-name="Layer 1"><path class="cls-1" d="M0,0V1046.0549c.05,4.5428.04,9.0874,0,13.633V1066H1920V0Z"/><rect class="cls-2" x="1328" y="114" width="433" height="56" rx="12"/><rect class="cls-2" x="-87" y="127" width="433" height="56" rx="12"/><rect class="cls-2" x="350" width="433" height="56" rx="12"/><rect class="cls-2" x="1504" y="403" width="433" height="56" rx="12"/><rect class="cls-2" x="356" y="225" width="433" height="56" rx="12"/><path class="cls-3" d="M1825.1711,230.2413c13.86-8.4481,22.7615-21.5,22.7615-36.16,0-25.4727-26.8447-46.1225-59.9592-46.1225a75.7882,75.7882,0,0,0-21.88,3.1821A62.1914,62.1914,0,0,0,1733.336,142c-23.7247,0-44.1018,12.8364-53.0194,31.1937a77.1972,77.1972,0,0,0-19.7122-2.5281c-32.9187,0-59.6044,20.1255-59.6044,44.9516,0,22.871,22.6538,41.7388,51.9588,44.5709a68.4884,68.4884,0,0,0,104.2679,42.7178,75.7157,75.7157,0,0,0,22.2318,3.2888c33.1145,0,59.9592-20.65,59.9592-46.1225C1839.4177,248.6935,1834.0505,238.2845,1825.1711,230.2413Z"/><path class="cls-3" d="M236.1711,542.2413c13.86-8.4481,22.7615-21.5,22.7615-36.16,0-25.4727-26.8447-46.1225-59.9592-46.1225a75.7882,75.7882,0,0,0-21.88,3.1821A62.1914,62.1914,0,0,0,144.336,454c-23.7247,0-44.1018,12.8364-53.0194,31.1937a77.1972,77.1972,0,0,0-19.7122-2.5281C38.6857,482.6656,12,502.7911,12,527.6172c0,22.871,22.6538,41.7388,51.9588,44.5709a68.4884,68.4884,0,0,0,104.2679,42.7178,75.7157,75.7157,0,0,0,22.2318,3.2888c33.1145,0,59.9592-20.65,59.9592-46.1225C250.4177,560.6935,245.0505,550.2845,236.1711,542.2413Z"/><path class="cls-3" d="M404.1944,170.7594c16.1145-1.9473,29.6235-10.139,35.6965-23.4813,10.5527-23.1841-5.3254-53.1-35.4646-66.8181a75.7911,75.7911,0,0,0-21.2325-6.1682,62.1907,62.1907,0,0,0-26.0271-21.89c-21.5931-9.8285-45.4572-6.5871-61.1784,6.4264a77.2017,77.2017,0,0,0-16.8938-10.4672c-29.961-13.6374-62.5866-6.3753-72.8714,16.22-9.4749,20.8161,3.327,47.3735,28.8258,62.0915a68.4883,68.4883,0,0,0,77.2027,82.0752,75.7151,75.7151,0,0,0,18.8718,12.2034c30.1393,13.7185,63.1267,6.0452,73.6794-17.1389C409.5167,193.4557,408.9439,181.7584,404.1944,170.7594Z"/><path class="cls-3" d="M993.2286,148.0734c12.3269-10.56,19.0217-24.87,16.6724-39.34-4.0822-25.1435-33.8893-41.2242-66.5758-35.9173a75.7865,75.7865,0,0,0-21.0873,6.6475A62.1909,62.1909,0,0,0,888.439,75.69c-23.4181,3.8021-41.4746,19.7383-47.335,39.2874a77.1952,77.1952,0,0,0-19.8626.6636c-32.4932,5.2756-55.6087,29.4176-51.63,53.9228,3.6653,22.5754,29.05,37.5689,58.43,35.668a68.4885,68.4885,0,0,0,109.7662,25.4557,75.7158,75.7158,0,0,0,22.4714-.3166c32.6865-5.307,55.875-29.9919,51.7927-55.1354C1010.2483,164.004,1003.2823,154.59,993.2286,148.0734Z"/><rect x="1142.6328" y="67.1671" width="5.6517" height="209.0292" transform="translate(91.7761 -309.2582) rotate(16.0097)"/><rect class="cls-4" x="1161" y="88" width="128" height="95" transform="translate(84.8822 -332.599) rotate(16.0097)"/><rect class="cls-5" x="1150.0912" y="172.4624" width="127.4994" height="4.0582" transform="translate(95.2032 -328.009) rotate(16.0097)"/><rect class="cls-5" x="1152.0912" y="164.4624" width="127.4994" height="4.0582" transform="translate(93.0744 -328.8709) rotate(16.0097)"/><rect class="cls-5" x="1155.0912" y="155.4624" width="127.4994" height="4.0582" transform="translate(90.7085 -330.0474) rotate(16.0097)"/><rect class="cls-5" x="1157.0912" y="147.4624" width="127.4994" height="4.0582" transform="translate(88.5797 -330.9092) rotate(16.0097)"/><rect class="cls-5" x="1160.0912" y="138.4624" width="127.4994" height="4.0582" transform="translate(86.2139 -332.0857) rotate(16.0097)"/><rect class="cls-5" x="1216.0166" y="138.9201" width="72.5253" height="4.1838" transform="translate(87.4604 -339.9088) rotate(16.0097)"/><rect class="cls-5" x="1219.0166" y="129.9201" width="72.5253" height="4.1838" transform="translate(85.0946 -341.0852) rotate(16.0097)"/><rect class="cls-5" x="1221.0166" y="122.9201" width="72.5253" height="4.1838" transform="translate(83.2416 -341.9083) rotate(16.0097)"/><rect class="cls-5" x="1223.0166" y="114.9201" width="72.5253" height="4.1838" transform="translate(81.1127 -342.7702) rotate(16.0097)"/><rect class="cls-5" x="1225.0166" y="107.9201" width="72.5253" height="4.1838" transform="translate(79.2597 -343.5933) rotate(16.0097)"/><rect class="cls-5" x="1228.0166" y="97.9201" width="72.5253" height="4.1838" transform="translate(76.6181 -344.8085) rotate(16.0097)"/><rect class="cls-6" x="1168.8123" y="78.2392" width="55.8885" height="47.9843" transform="translate(74.6113 -326.0998) rotate(16.0097)"/><polygon class="cls-4" points="1183.183 82.727 1180.192 81.443 1177.439 83.179 1177.736 79.938 1175.234 77.855 1178.409 77.136 1179.616 74.114 1181.281 76.911 1184.528 77.125 1182.383 79.572 1183.183 82.727"/><polygon class="cls-4" points="1182.183 93.727 1179.192 92.443 1176.439 94.179 1176.736 90.938 1174.234 88.855 1177.409 88.136 1178.616 85.114 1180.281 87.911 1183.528 88.125 1181.383 90.572 1182.183 93.727"/><polygon class="cls-4" points="1195.183 94.727 1192.192 93.443 1189.439 95.179 1189.736 91.938 1187.234 89.855 1190.409 89.136 1191.616 86.114 1193.281 88.911 1196.528 89.125 1194.383 91.572 1195.183 94.727"/><polygon class="cls-4" points="1193.183 85.727 1190.192 84.443 1187.439 86.179 1187.736 82.938 1185.234 80.855 1188.409 80.136 1189.616 77.114 1191.281 79.911 1194.528 80.125 1192.383 82.572 1193.183 85.727"/><polygon class="cls-4" points="1188.183 100.727 1185.192 99.443 1182.439 101.179 1182.736 97.938 1180.234 95.855 1183.409 95.136 1184.616 92.114 1186.281 94.911 1189.528 95.125 1187.383 97.572 1188.183 100.727"/><polygon class="cls-4" points="1178.183 102.727 1175.192 101.443 1172.439 103.179 1172.736 99.938 1170.234 97.855 1173.409 97.136 1174.616 94.114 1176.281 96.911 1179.528 97.125 1177.383 99.572 1178.183 102.727"/><polygon class="cls-4" points="1174.183 114.727 1171.192 113.443 1168.439 115.179 1168.736 111.938 1166.234 109.855 1169.409 109.136 1170.616 106.114 1172.281 108.911 1175.528 109.125 1173.383 111.572 1174.183 114.727"/><polygon class="cls-4" points="1184.183 109.727 1181.192 108.443 1178.439 110.179 1178.736 106.938 1176.234 104.855 1179.409 104.136 1180.616 101.114 1182.281 103.911 1185.528 104.125 1183.383 106.572 1184.183 109.727"/><polygon class="cls-4" points="1182.183 120.727 1179.192 119.443 1176.439 121.179 1176.736 117.938 1174.234 115.855 1177.409 115.136 1178.616 112.114 1180.281 114.911 1183.528 115.125 1181.383 117.572 1182.183 120.727"/><polygon class="cls-4" points="1190.183 116.727 1187.192 115.443 1184.439 117.179 1184.736 113.938 1182.234 111.855 1185.409 111.136 1186.616 108.114 1188.281 110.911 1191.528 111.125 1189.383 113.572 1190.183 116.727"/><polygon class="cls-4" points="1195.183 108.727 1192.192 107.443 1189.439 109.179 1189.736 105.938 1187.234 103.855 1190.409 103.136 1191.616 100.114 1193.281 102.911 1196.528 103.125 1194.383 105.572 1195.183 108.727"/><polygon class="cls-4" points="1201.183 101.727 1198.192 100.443 1195.439 102.179 1195.736 98.938 1193.234 96.855 1196.409 96.136 1197.616 93.114 1199.281 95.911 1202.528 96.125 1200.383 98.572 1201.183 101.727"/><polygon class="cls-4" points="1203.183 88.727 1200.192 87.443 1197.439 89.179 1197.736 85.938 1195.234 83.855 1198.409 83.136 1199.616 80.114 1201.281 82.911 1204.528 83.125 1202.383 85.572 1203.183 88.727"/><polygon class="cls-4" points="1209.183 95.727 1206.192 94.443 1203.439 96.179 1203.736 92.938 1201.234 90.855 1204.409 90.136 1205.616 87.114 1207.281 89.911 1210.528 90.125 1208.383 92.572 1209.183 95.727"/><polygon class="cls-4" points="1217.183 92.727 1214.192 91.443 1211.439 93.179 1211.736 89.938 1209.234 87.855 1212.409 87.136 1213.616 84.114 1215.281 86.911 1218.528 87.125 1216.383 89.572 1217.183 92.727"/><polygon class="cls-4" points="1227.183 94.727 1224.192 93.443 1221.439 95.179 1221.736 91.938 1219.234 89.855 1222.409 89.136 1223.616 86.114 1225.281 88.911 1228.528 89.125 1226.383 91.572 1227.183 94.727"/><polygon class="cls-4" points="1216.183 101.727 1213.192 100.443 1210.439 102.179 1210.736 98.938 1208.234 96.855 1211.409 96.136 1212.616 93.114 1214.281 95.911 1217.528 96.125 1215.383 98.572 1216.183 101.727"/><polygon class="cls-4" points="1224.183 104.727 1221.192 103.443 1218.439 105.179 1218.736 101.938 1216.234 99.855 1219.409 99.136 1220.616 96.114 1222.281 98.911 1225.528 99.125 1223.383 101.572 1224.183 104.727"/><polygon class="cls-4" points="1209.183 107.727 1206.192 106.443 1203.439 108.179 1203.736 104.938 1201.234 102.855 1204.409 102.136 1205.616 99.114 1207.281 101.911 1210.528 102.125 1208.383 104.572 1209.183 107.727"/><polygon class="cls-4" points="1202.183 114.727 1199.192 113.443 1196.439 115.179 1196.736 111.938 1194.234 109.855 1197.409 109.136 1198.616 106.114 1200.281 108.911 1203.528 109.125 1201.383 111.572 1202.183 114.727"/><polygon class="cls-4" points="1218.183 111.727 1215.192 110.443 1212.439 112.179 1212.736 108.938 1210.234 106.855 1213.409 106.136 1214.616 103.114 1216.281 105.911 1219.528 106.125 1217.383 108.572 1218.183 111.727"/><polygon class="cls-4" points="1210.183 117.727 1207.192 116.443 1204.439 118.179 1204.736 114.938 1202.234 112.855 1205.409 112.136 1206.616 109.114 1208.281 111.911 1211.528 112.125 1209.383 114.572 1210.183 117.727"/><polygon class="cls-4" points="1219.183 120.727 1216.192 119.443 1213.439 121.179 1213.736 117.938 1211.234 115.855 1214.409 115.136 1215.616 112.114 1217.281 114.911 1220.528 115.125 1218.383 117.572 1219.183 120.727"/><polygon class="cls-4" points="1216.183 129.727 1213.192 128.443 1210.439 130.179 1210.736 126.938 1208.234 124.855 1211.409 124.136 1212.616 121.114 1214.281 123.911 1217.528 124.125 1215.383 126.572 1216.183 129.727"/><polygon class="cls-4" points="1208.183 126.727 1205.192 125.443 1202.439 127.179 1202.736 123.938 1200.234 121.855 1203.409 121.136 1204.616 118.114 1206.281 120.911 1209.528 121.125 1207.383 123.572 1208.183 126.727"/><polygon class="cls-4" points="1198.183 123.727 1195.192 122.443 1192.439 124.179 1192.736 120.938 1190.234 118.855 1193.409 118.136 1194.616 115.114 1196.281 117.911 1199.528 118.125 1197.383 120.572 1198.183 123.727"/><rect class="cls-7" x="663.5143" y="209.1382" width="641.4168" height="193.6612"/><rect class="cls-7" x="167" y="351.2937" width="1585" height="673.0069"/><polygon class="cls-7" points="1501.339 461.748 424.528 461.748 995.675 92.503 1501.339 461.748"/><polygon class="cls-8" points="1376.352 392.498 563.25 392.498 994.524 113.681 1376.352 392.498"/><rect class="cls-8" x="562.5633" y="392.4982" width="49.4454" height="619.4411"/><rect class="cls-8" x="750.7305" y="392.4982" width="49.4454" height="619.4411"/><rect class="cls-8" x="1160.0286" y="392.4982" width="49.4454" height="619.4411"/><rect class="cls-8" x="1327.5936" y="392.4982" width="49.4454" height="619.4411"/><rect class="cls-9" x="206.831" y="392.4982" width="71.4211" height="141.4688"/><rect class="cls-9" x="206.831" y="568.3041" width="71.4211" height="141.4688"/><rect class="cls-9" x="207.5178" y="744.7967" width="71.4211" height="141.4688"/><rect class="cls-9" x="326.3241" y="392.4982" width="71.4211" height="141.4688"/><rect class="cls-9" x="645.659" y="417.9077" width="71.4211" height="141.4688"/><rect class="cls-9" x="1233.51" y="417.9077" width="71.4211" height="141.4688"/><rect class="cls-9" x="1233.51" y="585.4726" width="71.4211" height="141.4688"/><rect class="cls-9" x="645.659" y="585.4726" width="71.4211" height="141.4688"/><rect class="cls-9" x="326.3241" y="568.3041" width="71.4211" height="141.4688"/><rect class="cls-9" x="327.0108" y="744.7967" width="71.4211" height="141.4688"/><rect class="cls-9" x="444.4437" y="392.4982" width="71.4211" height="141.4688"/><rect class="cls-9" x="444.4437" y="568.3041" width="71.4211" height="141.4688"/><rect class="cls-9" x="445.1304" y="744.7967" width="71.4211" height="141.4688"/><rect class="cls-9" x="1639.3744" y="391.1247" width="71.4211" height="141.4688"/><rect class="cls-9" x="1529.4957" y="391.1247" width="71.4211" height="141.4688"/><rect class="cls-9" x="1429.2314" y="392.4982" width="71.4211" height="141.4688"/><rect class="cls-9" x="1429.2314" y="568.3041" width="71.4211" height="141.4688"/><rect class="cls-9" x="1429.9181" y="746.1702" width="71.4211" height="141.4688"/><rect class="cls-9" x="1529.4957" y="568.3041" width="71.4211" height="141.4688"/><rect class="cls-9" x="1530.1824" y="746.1702" width="71.4211" height="141.4688"/><rect class="cls-9" x="1639.3744" y="568.3041" width="71.4211" height="141.4688"/><rect class="cls-9" x="1640.0611" y="747.5437" width="71.4211" height="141.4688"/><rect class="cls-9" x="898.5126" y="702.2187" width="142.8423" height="313.1542"/><ellipse class="cls-10" cx="294.5" cy="967" rx="103.5" ry="78"/><ellipse class="cls-10" cx="412.5" cy="986" rx="103.5" ry="78"/><ellipse class="cls-10" cx="563.5" cy="955" rx="103.5" ry="78"/><ellipse class="cls-10" cx="464.5" cy="1063.1884" rx="51.5" ry="38.8116"/><ellipse class="cls-10" cx="538.5" cy="1014.1884" rx="51.5" ry="38.8116"/><ellipse class="cls-10" cx="697.5" cy="947.1884" rx="51.5" ry="38.8116"/><ellipse class="cls-10" cx="654.5" cy="1002.1884" rx="51.5" ry="38.8116"/><ellipse class="cls-10" cx="602.5" cy="1024.1884" rx="51.5" ry="38.8116"/><ellipse class="cls-10" cx="724.5" cy="986.1884" rx="51.5" ry="38.8116"/><ellipse class="cls-10" cx="814.5" cy="1002.1884" rx="51.5" ry="38.8116"/><ellipse class="cls-10" cx="748.5" cy="1024.1884" rx="51.5" ry="38.8116"/><ellipse class="cls-10" cx="890.5" cy="1041.1884" rx="51.5" ry="38.8116"/><ellipse class="cls-10" cx="838.5" cy="1041.1884" rx="51.5" ry="38.8116"/><ellipse class="cls-10" cx="995.5" cy="1041.1884" rx="51.5" ry="38.8116"/><ellipse class="cls-10" cx="941.5" cy="1033.1884" rx="51.5" ry="38.8116"/><ellipse class="cls-10" cx="1062.5" cy="1002.1884" rx="51.5" ry="38.8116"/><ellipse class="cls-10" cx="1135.5" cy="1024.1884" rx="51.5" ry="38.8116"/><ellipse class="cls-10" cx="1070.5" cy="1033.1884" rx="51.5" ry="38.8116"/><ellipse class="cls-10" cx="1187.5" cy="1033.1884" rx="51.5" ry="38.8116"/><ellipse class="cls-10" cx="1187.5" cy="978.1884" rx="51.5" ry="38.8116"/><ellipse class="cls-10" cx="1285.5" cy="1002.1884" rx="51.5" ry="38.8116"/><ellipse class="cls-10" cx="1274.5" cy="1049.1884" rx="51.5" ry="38.8116"/><ellipse class="cls-10" cx="1187.5" cy="1056.1884" rx="51.5" ry="38.8116"/><ellipse class="cls-10" cx="1021.5" cy="1056.1884" rx="51.5" ry="38.8116"/><ellipse class="cls-10" cx="903.5" cy="1056.1884" rx="51.5" ry="38.8116"/><path class="cls-10" d="M748.2346,1090.0256A31.2745,31.2745,0,0,0,754,1072.1885c0-21.4351-23.0574-38.8118-51.5-38.8118s-51.5,17.3767-51.5,38.8118a30.9185,30.9185,0,0,0,4.7644,16.3027C686.5879,1088.3485,717.4106,1089.5347,748.2346,1090.0256Z"/><ellipse class="cls-10" cx="672.5" cy="1025.1884" rx="51.5" ry="38.8116"/><ellipse class="cls-10" cx="563.5" cy="1037.1884" rx="51.5" ry="38.8116"/><ellipse class="cls-10" cx="520.5" cy="1037.1884" rx="51.5" ry="38.8116"/><path class="cls-10" d="M584.3948,1092.2513c3.716-.4283,7.4328-.8555,11.1584-1.1951,11.46-1.045,22.9536-1.7029,34.4539-2.0931,10.62-.36,21.239-.4865,31.8584-.478a30.2653,30.2653,0,0,0,5.5759-11.7781c4.7239-20.908-13.9372-42.9387-41.6807-49.2068s-54.0632,5.6-58.7871,26.5081C563.8311,1067.9187,571.0476,1082.32,584.3948,1092.2513Z"/><path class="cls-10" d="M509.4443,1097.2312q3.5285-.4959,7.0616-.8625c16.8171-1.7635,33.7426-1.4362,50.6032-2.4435,3.5657-.213,7.1194-.5478,10.6687-.9284a31.0243,31.0243,0,0,0,8.6453-15.2732c4.7239-20.908-13.9373-42.9387-41.6807-49.2068s-54.0632,5.6-58.7871,26.5081C482.3645,1070.9187,492.291,1087.4573,509.4443,1097.2312Z"/><path class="cls-10" d="M271.7676,1094.5139c11.7956.0813,22.67-2.1274,34.2092-3.9585,8.3157-1.3194,20.2769-3.7276,27.7065,1.7024a5.13,5.13,0,0,1,2.0706,5.1934c2.0259.4439,4.0317.97,6.019,1.5659a30.7778,30.7778,0,0,0,7.7059-14.2927c4.7238-20.908-13.9373-42.9386-41.6807-49.2068s-54.0632,5.6-58.7871,26.5082c-2.52,11.1554,1.6267,22.6246,10.249,31.854C263.4268,1094.25,267.5967,1094.4851,271.7676,1094.5139Z"/><ellipse class="cls-10" cx="804.4076" cy="1057.3808" rx="38.8116" ry="51.5" transform="translate(-404.2495 1608.991) rotate(-77.2689)"/><ellipse class="cls-10" cx="1106.0607" cy="1073.3677" rx="38.8116" ry="51.5" transform="translate(-184.6674 1915.6916) rotate(-77.2689)"/><ellipse class="cls-10" cx="1030.3384" cy="1071.1848" rx="38.8116" ry="38.7914" transform="translate(-241.573 1840.1291) rotate(-77.2689)"/><ellipse class="cls-10" cx="1337.3384" cy="1033.1848" rx="38.8116" ry="38.7914" transform="translate(34.8373 2109.9558) rotate(-77.2689)"/><ellipse class="cls-10" cx="1362.3384" cy="1063.1848" rx="38.8116" ry="38.7914" transform="translate(25.0655 2157.7299) rotate(-77.2689)"/><ellipse class="cls-10" cx="1393.3384" cy="1024.1848" rx="38.8116" ry="38.7914" transform="translate(87.275 2157.5625) rotate(-77.2689)"/><ellipse class="cls-10" cx="1465.3384" cy="1024.1848" rx="38.8116" ry="38.7914" transform="translate(143.408 2227.7923) rotate(-77.2689)"/><ellipse class="cls-10" cx="1415.3384" cy="1057.1848" rx="38.8116" ry="38.7914" transform="translate(72.2381 2204.7492) rotate(-77.2689)"/><ellipse class="cls-10" cx="1446.3384" cy="967.1848" rx="38.8116" ry="38.7914" transform="translate(184.1938 2164.8209) rotate(-77.2689)"/><ellipse class="cls-10" cx="1530.3384" cy="1026.1848" rx="38.8116" ry="38.7914" transform="translate(192.1327 2292.7536) rotate(-77.2689)"/><ellipse class="cls-10" cx="1613.3384" cy="1045.1848" rx="38.8116" ry="38.7914" transform="translate(238.3086 2388.5259) rotate(-77.2689)"/><ellipse class="cls-10" cx="1698.3384" cy="1024.1848" rx="39.5144" ry="39.604" transform="translate(325.0604 2455.064) rotate(-77.2689)"/><ellipse class="cls-10" cx="1658.3384" cy="1026.1848" rx="39.5144" ry="39.604" transform="translate(291.9246 2417.6067) rotate(-77.2689)"/><ellipse class="cls-10" cx="1601.3384" cy="1015.1848" rx="39.5144" ry="39.604" transform="translate(258.2156 2353.4322) rotate(-77.2689)"/><ellipse class="cls-10" cx="1525.3384" cy="1063.1848" rx="39.5144" ry="39.604" transform="translate(152.1442 2316.7226) rotate(-77.2689)"/><ellipse class="cls-10" cx="1495.3384" cy="1063.1848" rx="39.5144" ry="39.604" transform="translate(128.7555 2287.4601) rotate(-77.2689)"/><ellipse class="cls-10" cx="1590.3384" cy="1063.1848" rx="39.5144" ry="39.604" transform="translate(202.8198 2380.1246) rotate(-77.2689)"/><ellipse class="cls-10" cx="1710.3384" cy="1057.1848" rx="39.5144" ry="39.604" transform="translate(302.2272 2492.4966) rotate(-77.2689)"/><ellipse class="cls-10" cx="1667.3384" cy="1057.1848" rx="39.5144" ry="39.604" transform="translate(268.7034 2450.5538) rotate(-77.2689)"/><ellipse class="cls-10" cx="1791.3384" cy="1015.1848" rx="39.5144" ry="39.604" transform="translate(406.3442 2538.761) rotate(-77.2689)"/><ellipse class="cls-10" cx="1750.3384" cy="1012.1848" rx="39.5144" ry="39.604" transform="translate(377.3058 2496.4301) rotate(-77.2689)"/><ellipse class="cls-10" cx="1768.3384" cy="1080.1848" rx="39.5144" ry="39.604" transform="translate(325.0109 2567.002) rotate(-77.2689)"/><ellipse class="cls-10" cx="1846.3384" cy="1068.1848" rx="39.5144" ry="39.604" transform="translate(397.5265 2633.7289) rotate(-77.2689)"/><ellipse class="cls-10" cx="1822.3384" cy="1063.1848" rx="39.5144" ry="39.604" transform="translate(383.6926 2606.4208) rotate(-77.2689)"/><ellipse class="cls-10" cx="1869.3384" cy="1017.1848" rx="39.5144" ry="39.604" transform="translate(465.204 2616.4026) rotate(-77.2689)"/><ellipse class="cls-10" cx="1842.3384" cy="1017.1848" rx="39.5144" ry="39.604" transform="translate(444.1542 2590.0664) rotate(-77.2689)"/><ellipse class="cls-10" cx="1899.3384" cy="1080.1848" rx="39.5144" ry="39.604" transform="translate(427.1416 2694.7814) rotate(-77.2689)"/><ellipse class="cls-10" cx="1907.3384" cy="1015.1848" rx="39.5144" ry="39.604" transform="translate(496.7806 2651.9092) rotate(-77.2689)"/><ellipse class="cls-10" cx="1434.3384" cy="1068.1848" rx="39.5144" ry="39.604" transform="translate(76.3214 2231.8579) rotate(-77.2689)"/><ellipse class="cls-10" cx="1326.3384" cy="1072.1848" rx="39.5144" ry="39.604" transform="translate(-11.7797 2129.6316) rotate(-77.2689)"/><ellipse class="cls-10" cx="1213.3384" cy="1072.1848" rx="39.5144" ry="39.604" transform="translate(-99.8772 2019.4097) rotate(-77.2689)"/><ellipse class="cls-10" cx="1135.3384" cy="1080.1848" rx="39.5144" ry="39.604" transform="translate(-168.4912 1949.5643) rotate(-77.2689)"/><ellipse class="cls-10" cx="969.3384" cy="1066.1848" rx="39.5144" ry="39.604" transform="translate(-284.253 1776.7307) rotate(-77.2689)"/><ellipse class="cls-10" cx="882.3384" cy="1063.1848" rx="39.5144" ry="39.604" transform="translate(-349.1541 1689.5307) rotate(-77.2689)"/><ellipse class="cls-10" cx="393.3384" cy="1066.1848" rx="39.5144" ry="39.604" transform="translate(-733.3166 1214.8916) rotate(-77.2689)"/><path class="cls-10" d="M759.0464,1025.6418a39.49,39.49,0,0,0-39.1323,63.7979c16.9753.4021,33.9511.781,50.9272.795a4.6561,4.6561,0,0,1,4.791,4.3711,39.4869,39.4869,0,0,0-16.5859-68.964Z"/><path class="cls-10" d="M179.57,1083.4441c14.34,1.7258,28.69,3.3852,42.9983,5.3774q2.4745.3447,4.9546.7187a39.6017,39.6017,0,1,0-67.0523-7.6681A190.8585,190.8585,0,0,1,179.57,1083.4441Z"/><path class="cls-10" d="M92.3767,1081.5573c8.52-.2067,16.9861-.6766,25.4446-.3779a39.6131,39.6131,0,1,0-62.8621.0618C67.4287,1081.2881,79.9189,1081.8594,92.3767,1081.5573Z"/><path class="cls-10" d="M-.2666,1082.3424a78.5857,78.5857,0,0,1,11.6633-.8224c13.5525-.0386,27.104-.2388,40.6565-.2866.5725-.002,1.1455.0041,1.718.0046a39.2188,39.2188,0,0,0,7.1976-15.3254A39.61,39.61,0,0,0-.7878,1025.1C.551,1044.1372-.1038,1063.26-.2666,1082.3424Z"/><path class="cls-10" d="M41.0464,973.6418A39.6012,39.6012,0,0,0-1.3872,991.4476c-.3333,4.29-.825,8.59-1.35,12.894v8.4861a5.1965,5.1965,0,0,1,1.0932,2.6478c.6956,6.3408,1.1172,12.6939,1.3662,19.0539a39.5488,39.5488,0,1,0,41.3245-60.8876Z"/><ellipse class="cls-10" cx="74.3384" cy="1012.1848" rx="39.5144" ry="39.604" transform="translate(-929.3443 861.6345) rotate(-77.2689)"/><path class="cls-10" d="M143.9607,1026.5234c-27.7434-6.2681-54.0632,5.6-58.7869,26.5081-2.2246,9.8459.7388,19.94,7.3926,28.5207,12.1411-.3,24.1709-1.1235,36.2288.5331,1.2548-.11,2.5134-.1982,3.779-.2467a101.9638,101.9638,0,0,1,15.2813.7091c10.456-1.4778,21.4819-.3353,31.7148.8964q1.4743.1775,2.9487.3531a29.7728,29.7728,0,0,0,3.1226-8.067C190.3652,1054.822,171.7041,1032.7915,143.9607,1026.5234Z"/><ellipse class="cls-10" cx="180.5" cy="924.1884" rx="51.5" ry="38.8116"/><ellipse class="cls-10" cx="137.5" cy="1017.1884" rx="51.5" ry="38.8116"/><ellipse class="cls-10" cx="105.5" cy="985.1884" rx="51.5" ry="38.8116"/><path class="cls-11" d="M164.5,1007.3768c-34.5178,0-62.5,21.088-62.5,47.1015,0,9.88,4.0591,19.0351,10.96,26.6062a120.3293,120.3293,0,0,1,15.8421,1c1.2526-.11,2.5092-.1976,3.7724-.246a101.9638,101.9638,0,0,1,15.2813.7091c10.456-1.4778,21.4819-.3353,31.7148.8964,9.9893,1.2021,19.9824,2.3782,29.9639,3.6509C220.3359,1078.6313,227,1067.149,227,1054.4783,227,1028.4648,199.0178,1007.3768,164.5,1007.3768Z"/><path class="cls-11" d="M-.2627,1082.3418a78.6029,78.6029,0,0,1,11.6594-.8218c13.5525-.0386,27.104-.2388,40.6565-.2866,13.4343-.0476,26.898.6495,40.3235.3239q1.1291-.0273,2.2564-.0607A35.82,35.82,0,0,0,95,1076.4783c0-26.0135-27.9822-47.1016-62.5-47.1016A77.8366,77.8366,0,0,0-.2137,1036.365C.3057,1051.6736-.1332,1067.0205-.2627,1082.3418Z"/><path class="cls-11" d="M110.5059,1081.0872c4.2568-.0306,8.5083.0586,12.76.4,32.763-1.4687,58.7339-21.9491,58.7339-47.0086,0-26.0135-27.9822-47.1015-62.5-47.1015S57,1008.4648,57,1034.4783C57,1058.1891,80.2512,1077.8,110.5059,1081.0872Z"/><path class="cls-11" d="M483.3057,1101.6289c2.9035-.3445,5.81-.5869,8.7187-.7881a141.4272,141.4272,0,0,1,24.4815-4.4721c16.8171-1.7635,33.7426-1.4362,50.6032-2.4435,5.167-.3087,10.3091-.8734,15.4492-1.463A50.23,50.23,0,0,0,589,1067.9111c0-30.6638-27.9822-55.5218-62.5-55.5218s-62.5,24.858-62.5,55.5218c0,13.9062,5.7639,26.6079,15.2756,36.3443A5.5461,5.5461,0,0,1,483.3057,1101.6289Z"/><path class="cls-11" d="M466.3652,1113.8174a63.0135,63.0135,0,0,1,12.1631-7.8032,5.7087,5.7087,0,0,1,4.7774-4.3853c2.9035-.3445,5.81-.5869,8.7187-.7881a141.4272,141.4272,0,0,1,24.4815-4.4721c16.8171-1.7635,33.7426-1.4362,50.6032-2.4435,1.106-.0661,2.2107-.1461,3.3147-.2333A49.7377,49.7377,0,0,0,573,1077.9181c0-30.6637-27.9822-55.5217-62.5-55.5217s-62.5,24.858-62.5,55.5217c0,14.7342,6.4744,28.1163,17.0166,38.0558A4.0078,4.0078,0,0,1,466.3652,1113.8174Z"/><ellipse class="cls-11" cx="496.5" cy="1013.9221" rx="62.5" ry="55.5217"/><path class="cls-11" d="M573.4507,1093.4282c7.3764-.6866,14.7222-1.6992,22.1025-2.372,11.46-1.045,22.9536-1.7029,34.4539-2.0931,13.352-.4528,26.7038-.5415,40.0559-.4454A51.25,51.25,0,0,0,682,1055.897c0-30.6638-27.9822-55.5218-62.5-55.5218s-62.5,24.858-62.5,55.5218C557,1070.37,563.2383,1083.5452,573.4507,1093.4282Z"/><path class="cls-11" d="M759.9355,1090.1743c.034-.751.0645-1.5027.0645-2.261,0-30.6637-27.9822-55.5217-62.5-55.5217S635,1057.25,635,1087.9133c0,.3047.02.6048.0259.9081C676.6631,1087.68,718.2981,1089.7953,759.9355,1090.1743Z"/><ellipse class="cls-11" cx="606.5" cy="1024.926" rx="62.5" ry="55.5217"/><ellipse class="cls-11" cx="738.5" cy="1024.9013" rx="62.5" ry="55.5217"/><path class="cls-11" d="M817.5,1032.38c-34.5178,0-62.5,24.858-62.5,55.5219,0,.745.03,1.4835.0632,2.2214q7.8889.0963,15.7781.1119c6.4448.0054,6.4346,10.0054,0,10q-7.15-.006-14.2993-.096c6.2761,24.7732,31.1758,43.2844,60.958,43.2844,34.5178,0,62.5-24.858,62.5-55.5217S852.0178,1032.38,817.5,1032.38Z"/><ellipse class="cls-11" cx="919.5" cy="1087.926" rx="62.5" ry="55.5217"/><ellipse class="cls-11" cx="993.5" cy="1071.926" rx="62.5" ry="55.5217"/><ellipse class="cls-11" cx="1122.5" cy="1071.9197" rx="62.5" ry="55.5217"/><ellipse class="cls-11" cx="1216.5" cy="1071.9197" rx="62.5" ry="55.5217"/><ellipse class="cls-11" cx="1339.5" cy="1070.9197" rx="62.5" ry="55.5217"/><ellipse class="cls-11" cx="1385.5" cy="1070.9193" rx="62.5" ry="55.5217"/><ellipse class="cls-11" cx="1076.5" cy="1064.9193" rx="62.5" ry="55.5217"/><ellipse class="cls-11" cx="1481.5" cy="1023.917" rx="62.5" ry="55.5217"/><ellipse class="cls-11" cx="1551.5" cy="1048.9009" rx="62.5" ry="55.5217"/><ellipse class="cls-11" cx="1698.5" cy="1070.9107" rx="62.5" ry="55.5217"/><ellipse class="cls-11" cx="1791.5" cy="1070.9193" rx="62.5" ry="55.5217"/><path class="cls-11" d="M313.5,1002.3917c-34.5178,0-62.5,24.8579-62.5,55.5218,0,13.9573,5.8164,26.6959,15.3909,36.4488,1.792.0828,3.5842.1393,5.3767.1516,11.7956.0813,22.67-2.1274,34.2092-3.9585,8.3157-1.3194,20.2769-3.7276,27.7065,1.7024a5.13,5.13,0,0,1,2.0706,5.1934,74.5359,74.5359,0,0,1,13.3452,4.19,3.7642,3.7642,0,0,1,1.396,1.0161C365.959,1092.55,376,1076.2764,376,1057.9135,376,1027.25,348.0178,1002.3917,313.5,1002.3917Z"/><ellipse class="cls-10" cx="376.5" cy="1002" rx="103.5" ry="78"/><ellipse class="cls-10" cx="346.5" cy="998" rx="103.5" ry="78"/><ellipse class="cls-10" cx="243.5" cy="994" rx="103.5" ry="78"/><ellipse class="cls-10" cx="222.5" cy="1002" rx="78" ry="103.5" transform="translate(-793.9131 1144.8798) rotate(-85.4821)"/><path class="cls-10" d="M278.644,972.2424c-56.9838-4.5027-105.9292,26.66-109.3225,69.6048-1.176,14.885,3.2913,29.2243,11.9837,41.8047,13.7624,1.6517,27.5324,3.2578,41.2634,5.17,16.2734,2.2659,32.7312,5.5789,49.199,5.6924,11.7956.0813,22.67-2.1274,34.2092-3.9585,8.3157-1.3194,20.2769-3.7276,27.7065,1.7024a5.13,5.13,0,0,1,2.0706,5.1934,74.5359,74.5359,0,0,1,13.3452,4.19,3.7491,3.7491,0,0,1,1.92,1.8221c14.1743-12.0106,23.2647-27.6644,24.659-45.3107C379.0718,1015.2084,335.6279,976.7451,278.644,972.2424Z"/><polygon class="cls-12" points="1440 1131 1215 1131 1195 859 1458 859 1440 1131"/><line class="cls-13" x1="1333" y1="909" x2="1332" y2="1131"/><path class="cls-14" d="M1448,905s9,41-15,47c-26.0317,6.5079-42-50-42-50Z"/><path class="cls-14" d="M1205.6531,905s-9,41,15,47c26.0316,6.5079,42-50,42-50Z"/><rect class="cls-15" x="1148" y="816" width="42" height="62" rx="21"/><rect class="cls-15" x="1468" y="816" width="42" height="62" rx="21"/><path class="cls-16" d="M1496.8511,570H1193a11.866,11.866,0,0,0-4.0188.7113A18.34,18.34,0,0,0,1183.936,570h-28.872c-8.2854,0-15.064,5.4-15.064,12V826c0,6.6,6.7786,12,15.064,12H1181v59a12.0352,12.0352,0,0,0,12,12h275a12.0352,12.0352,0,0,0,12-12V838h16.8511c10.532,0,19.1489-5.4,19.1489-12V582C1516,575.4,1507.3831,570,1496.8511,570Z"/><line class="cls-17" x1="1194" y1="624" x2="1189.5" y2="836.5"/><line class="cls-17" x1="1463.5" y1="624" x2="1468" y2="836.5"/><polygon class="cls-4" points="1404 583 1256 583 1333 909 1333 909 1404 583"/><polygon class="cls-18" points="1340 608 1326 608 1318 570 1347 570 1340 608"/><polygon class="cls-18" points="1343 623 1333 630 1323 623 1326 608 1340 608 1343 623"/><polygon class="cls-18" points="1333 909 1256 681 1268 650 1243 624 1256 583 1256 583 1295 655 1333 909"/><polygon class="cls-18" points="1333 909 1403 681 1391 650 1416 624 1403 583 1403 583 1364 655 1333 909"/><polygon class="cls-19" points="1308.5 679.5 1256.5 584.5 1333.5 629.5 1308.5 679.5"/><polygon class="cls-19" points="1348.5 682.5 1403.5 582.5 1332.5 629.5 1348.5 682.5"/><circle class="cls-20" cx="1332" cy="660" r="5"/><circle class="cls-20" cx="1332" cy="703" r="5"/><circle class="cls-20" cx="1332" cy="740" r="5"/><circle class="cls-20" cx="1332" cy="777" r="5"/><circle class="cls-20" cx="1332" cy="806" r="5"/><circle class="cls-20" cx="1332" cy="839" r="5"/><circle class="cls-20" cx="1332" cy="864" r="5"/><line class="cls-21" x1="1384" y1="847" x2="1450" y2="847"/><line class="cls-21" x1="1210" y1="847" x2="1276" y2="847"/><circle class="cls-22" cx="1331" cy="544" r="14"/><ellipse class="cls-23" cx="1203" cy="427" rx="17" ry="55"/><ellipse class="cls-23" cx="1457" cy="421" rx="17" ry="55"/><path class="cls-15" d="M1463,453.5c-5.6885,0-10.4863,7.9066-12,18.7223V394a12.0352,12.0352,0,0,0-12-12H1225a12.0352,12.0352,0,0,0-12,12v78.2223c-1.5137-10.8157-6.3115-18.7223-12-18.7223-6.9036,0-12.5,11.6406-12.5,26s5.5964,26,12.5,26c5.6885,0,10.4863-7.9066,12-18.7223V565a12.0352,12.0352,0,0,0,12,12h214a12.0352,12.0352,0,0,0,12-12V486.7777c1.5137,10.8157,6.3115,18.7223,12,18.7223,6.9036,0,12.5-11.6406,12.5-26S1469.9036,453.5,1463,453.5Z"/><path class="cls-15" d="M1437,583H1223a18.0206,18.0206,0,0,1-18-18V509.9521a12.4631,12.4631,0,0,1-6,1.5479c-10.72,0-18.5-13.458-18.5-32s7.78-32,18.5-32a12.4631,12.4631,0,0,1,6,1.5479V394a18.0206,18.0206,0,0,1,18-18h214a18.0206,18.0206,0,0,1,18,18v55.0479a12.4631,12.4631,0,0,1,6-1.5479c10.72,0,18.5,13.458,18.5,32s-7.78,32-18.5,32a12.4631,12.4631,0,0,1-6-1.5479V565A18.0206,18.0206,0,0,1,1437,583ZM1210.9951,480.7778q.21,0,.4219.0147a5.9994,5.9994,0,0,1,5.583,5.9853V565a6.0066,6.0066,0,0,0,6,6h214a6.0066,6.0066,0,0,0,6-6V486.7778a6,6,0,0,1,11.9424-.8315c1.3262,9.4761,5.0547,13.5537,6.0576,13.5537,1.6182,0,6.5-7.0933,6.5-20s-4.8818-20-6.5-20c-1.0029,0-4.7314,4.0776-6.0576,13.5537A6,6,0,0,1,1443,472.2222V394a6.0066,6.0066,0,0,0-6-6H1223a6.0066,6.0066,0,0,0-6,6v78.2222a6,6,0,0,1-11.9424.8315c-1.3262-9.4761-5.0547-13.5537-6.0576-13.5537-1.6182,0-6.5,7.0933-6.5,20s4.8818,20,6.5,20c1.0029,0,4.7314-4.0776,6.0576-13.5537A6.0013,6.0013,0,0,1,1210.9951,480.7778Z"/><rect class="cls-22" x="1289" y="486" width="82" height="20" rx="10"/><path class="cls-24" d="M1364.8916,499h-69.7833l-.1083-.1083v-5.2834l.1083-.1083h69.7833l.1084.1083v5.2834Z"/><ellipse class="cls-25" cx="1330" cy="475" rx="10" ry="21"/><ellipse cx="1260.5" cy="436" rx="7.5" ry="15"/><ellipse cx="1399.5" cy="436" rx="7.5" ry="15"/><rect class="cls-26" x="1231" y="415" width="58" height="12" rx="6"/><rect class="cls-26" x="1371" y="415" width="58" height="12" rx="6"/><path class="cls-23" d="M1501,338s-28.5,55-117,66c-86.3206,10.7291-179-5-191-32.5-10.7128-24.55,73.2592-70.176,157.5-48.5C1436,345,1501,338,1501,338Z"/><path class="cls-27" d="M1208.614,359.048c33.7724,18.7661,61.9959,23.6981,80.9155,24.853,15.5253.9476,39.3695-1.6627,86.4239-6.9222,17.6882-1.977,32.3024-3.7578,42.284-5.0066"/><path class="cls-27" d="M1209,357a178.174,178.174,0,0,0,45,7c11.7009.2971,13.8364-.8227,41-3,29.6394-2.3757,49.8428-2.8656,61-3,18.7112-.2254,28.0669-.3381,36,1,10.759,1.8148,15.3818,4.06,25,3,7.0383-.7754,10.6013-2.6428,21-4a118.7529,118.7529,0,0,1,16-1"/><path class="cls-28" d="M1208,356a205.4435,205.4435,0,0,1,61.259-13.1818c18.8764-1.051,20.933,1.5649,44.4621,0,26.2892-1.7485,32.011-5.5653,53.3546-4.8565,14.6415.4863,17.0173,2.4507,34.5817,4.1627a285.4894,285.4894,0,0,0,54.3426,0"/><path class="cls-29" d="M252.5539,345.4817q-8.9453,1.6722-17.926,3.21l17.7192-24.3305q30.9467-6.52,61.3279-14.7759-5.76,12.7644-11.52,25.5288-8.84,2.0448-17.7187,3.9567l-37.012,70.9883q-20.0084,2.6846-40.11,4.8209Q229.9337,380.1806,252.5539,345.4817Zm-16.1831,55.4041,39.9028-69.03q9.9713-2.1741,19.89-4.5215.8607-1.7388,1.7212-3.4777-21.3537,5.17-42.96,9.5274l-2.2905,3.3676q10.0314-1.9683,20.0125-4.111-20.4288,34.4228-40.8574,68.8456Q234.08,401.19,236.3708,400.8858Z"/><path class="cls-29" d="M318.2317,308.3365q14.9669-4.1352,29.7811-8.6852a43.3667,43.3667,0,0,1,14.6035-2.2491,18.836,18.836,0,0,1,10.7491,3.563,18.3455,18.3455,0,0,1,6.3083,9.6335c1.2948,4.2433,1.555,9.5416.6138,15.8932a43.71,43.71,0,0,1-4.0613,13.4378,59.7585,59.7585,0,0,1-6.2752,10.0336,56.6967,56.6967,0,0,1-8.4311,8.4335,290.5216,290.5216,0,0,0,15.8778,28.2359q-22.31,5.0643-44.785,9.4367-5.6862-10.8891-10.0939-21.7324-3.9541,12.5591-7.9084,25.1181-19.1984,3.4871-38.5016,6.4662Q297.17,357.129,318.2317,308.3365Zm6.423,56.8122a77.0029,77.0029,0,0,0,12.66-3.906q4.3612,10.2094,9.8717,20.4606,2.6859-.575,5.369-1.16Q346.5539,369.8,341.824,359.0905a52.2042,52.2042,0,0,0,15.7082-12.053,35.41,35.41,0,0,0,8.0737-16.693c.8844-4.4138.8282-8.0458-.0824-10.89a11.7573,11.7573,0,0,0-4.6472-6.44,15.2338,15.2338,0,0,0-8.2072-2.2979,38.0688,38.0688,0,0,0-11.2657,1.6867q-7.2951,2.0751-14.6241,4.0543l-28.13,74.7576q2.27-.4042,4.539-.8156,4.065-11.2276,8.13-22.4553Q317.9949,366.58,324.6547,365.1487Zm-12.0529-.7494q8.21-22.6768,16.42-45.3538,5.634-1.51,11.249-3.0756c8.297-2.3186,14.1825-2.232,18.0076.3846,3.8027,2.6146,5.0672,7.6246,3.489,15.0408a33.1251,33.1251,0,0,1-11.7225,19.0571c-6.3283,5.2637-14.5092,8.998-24.2581,11.13Q319.203,363.0243,312.6018,364.3993Zm17.872-15.3283q.8477-.1985,1.6953-.3979a28.49,28.49,0,0,0,10.625-4.9184,16.7077,16.7077,0,0,0,6.2568-9.53c1.0341-3.9879.4826-6.4842-1.5855-7.4946-2.0754-1.0081-4.883-1.0253-8.496-.07q-.7848.2074-1.57.4138Q333.9366,338.0726,330.4738,349.071Z"/><path class="cls-29" d="M429.5012,376.4161A74.9535,74.9535,0,0,1,409.25,379.18c-5.9759-.113-10.9506-1.2947-14.8636-3.5112a18.3223,18.3223,0,0,1-8.3141-9.9425c-1.6377-4.4067-1.9771-9.9441-1.1646-16.6119q3.9057-32.1282,7.8116-64.2563,13.4864-4.7881,26.8242-9.9218-.3872,31.668-.7741,63.3361c-.0453,3.5622.6891,6.0594,2.2447,7.4907,1.5492,1.4339,4.1949,1.62,7.888.5423,3.69-1.0774,6.289-2.8018,7.76-5.16a14.974,14.974,0,0,0,1.9085-8.8935q-1.6511-31.7544-3.3023-63.5087,13.3073-5.3607,26.4545-11.0647,5.232,32.5143,10.4644,65.0286a46.8477,46.8477,0,0,1-.3809,18.6682,37.3876,37.3876,0,0,1-7.7391,15.3332,51.9351,51.9351,0,0,1-14.49,11.7677A84.4243,84.4243,0,0,1,429.5012,376.4161Zm-.3652-18.3412c-17.0125,4.7043-25.0952-.6264-24.1142-15.52l2.91-51.3037q-1.7165.6045-3.4352,1.2035l-3.5916,51.26c-.6077,8.5152,1.3848,14.37,6.2859,17.5353,4.8764,3.1644,12.3336,3.4713,22.0239.798,9.6862-2.675,17.0269-7.1013,21.73-13.1813,4.7216-6.0788,6.44-13.4374,5.4859-22.0189q-2.8407-25.8261-5.6818-51.6521-1.7527.6978-3.508,1.39,2.4855,25.8186,4.9709,51.6372C453.7828,343.2245,446.1378,353.3318,429.136,358.0749Z"/><path class="cls-29" d="M469.9366,254.0748q10.7693-4.7783,21.4244-9.7855a435.8127,435.8127,0,0,0,35.6408,28.9665,349.1551,349.1551,0,0,0,5.91-49.5891q10.4176-5.4516,20.7105-11.1262l56.5742,100.5556q-18.045,7.3863-36.27,14.2926-8.1681-18.25-16.3359-36.5a372.2411,372.2411,0,0,1-9.3012,39.0143q-17.3141-11.0358-32.5458-22.3522,5.5947,18.3729,11.1893,36.7458-18.439,6.285-37.0367,12.0823Q479.9164,305.227,469.9366,254.0748Zm38.7225,83.0127q-9.1335-35.1762-18.2671-70.3524a471.2166,471.2166,0,0,0,47.9709,36.7531A354.4806,354.4806,0,0,0,548.409,239.956l34.3821,69.5831q2.1341-.8607,4.2655-1.7284L548.042,231.032q-1.613.8262-3.2286,1.6472a353.4347,353.4347,0,0,1-9.0326,63.9381,458.5194,458.5194,0,0,1-47.2991-37.2394q-1.66.7315-3.3231,1.4579,9.572,38.8636,19.144,77.7274Q506.4821,337.8288,508.6591,337.0875Z"/><path class="cls-29" d="M654.3537,208.8567c6.0364,6.6548,10.1073,12.9362,12.0228,18.8608q2.883,8.8894.4683,16.4735a32.1622,32.1622,0,0,1-9.28,13.8595,67.7737,67.7737,0,0,1-16.7761,11l17.0272,23.5768q-17.793,8.019-35.7789,15.5629L561.7889,207.9921q12.3945-6.9737,24.5982-14.2693a52.5784,52.5784,0,0,1,15.2614-6.2277,42.6979,42.6979,0,0,1,16.54-.4723,53.2522,53.2522,0,0,1,17.809,6.6194A76.122,76.122,0,0,1,654.3537,208.8567Zm-12.8326,7.31a49.081,49.081,0,0,0-11.5989-10.2436,34.4993,34.4993,0,0,0-11.941-4.7427,31.2945,31.2945,0,0,0-11.7709.1135,37.1816,37.1816,0,0,0-11.256,4.2921q-6.8292,3.9162-13.7132,7.737,24.8928,37.8648,49.7853,75.73,2.1023-.9385,4.202-1.8841-7.9694-11.8557-15.9385-23.7116,6.4818-3.0994,12.9312-6.269a42.174,42.174,0,0,0,11.1561-7.6952,22.4478,22.4478,0,0,0,5.9916-9.6,18.9048,18.9048,0,0,0-.3654-11.1751C647.7493,224.7253,645.2285,220.5441,641.5211,216.1663Zm-3.72,2.0811c3.48,4.1941,5.722,8.0763,6.6554,11.654a16.1093,16.1093,0,0,1-.1759,9.732,19.6145,19.6145,0,0,1-5.4669,7.8721,40.2421,40.2421,0,0,1-9.1627,6.1231q-6.3672,3.1588-12.7669,6.2486-15.0361-22.3693-30.0725-44.7386,5.3725-2.9684,10.7129-5.9942a36.1557,36.1557,0,0,1,9.2322-3.6938,26.1584,26.1584,0,0,1,9.9109-.49,28.6813,28.6813,0,0,1,10.4873,3.8518A41.1964,41.1964,0,0,1,637.8011,218.2474ZM621.5125,242.36q.6316-.3233,1.2631-.6472c3.9315-2.0166,6.037-4.4486,6.278-7.2649.2426-2.8164-.9947-5.9415-3.658-9.381-2.6616-3.4369-5.5513-5.667-8.6109-6.702-3.0663-1.0339-6.3633-.5577-9.9633,1.4155q-.579.3171-1.1583.6336Q613.5877,231.3865,621.5125,242.36Z"/><path class="cls-29" d="M633.5108,163.8706q10.532-7.06,20.8973-14.3686,15.0726,23.0424,27.8232,46.4646-11.1609,6.7655-22.4567,13.2923Q647.5832,186.4316,633.5108,163.8706Zm31.6761,33.2309q1.6121-.97,3.2214-1.9445-8.6254-16.4928-18.3968-32.8165-1.4138.9531-2.8308,1.902Q656.7566,180.5863,665.1869,197.1015Z"/><path class="cls-29" d="M707.3358,156.7764q-11.1115,7.64-22.3884,15.0212-9.5775-14.9547-20.11-29.7422,23.0986-16.702,45.3094-34.63a661.8463,661.8463,0,0,1,63.0276,85.5374q15.8553-9.8974,31.4613-20.2357,12.271,14.5824,23.6031,29.3729Q791.92,224.519,754.4842,244.77A565.1559,565.1559,0,0,0,707.3358,156.7764Zm97.8894,39.691q-1.47-2.0669-2.96-4.13-18.1284,11.4046-36.5634,22.2442a615.3533,615.3533,0,0,0-55.0872-85.1309q-13.2825,9.9671-26.8456,19.5316,1.4855,2.0133,2.9533,4.03,11.9406-8.3082,23.6735-16.9251A602.5494,602.5494,0,0,1,763.4108,221.54Q784.5092,209.37,805.2252,196.4674Z"/><path class="cls-29" d="M713.2607,104.9013Q724.9774,95.37,736.432,85.5026l143.9,82.9272q-17.3081,11.7026-34.9033,22.8963ZM848.321,168.55,742.8817,104.3061q-1.4118,1.1423-2.8274,2.28l104.4133,64.5492Q846.3962,169.8456,848.321,168.55Z"/><path class="cls-29" d="M792.2126,92.6076q-6.9642,5.7754-14.0107,11.44L739.9716,82.44q23.53-20.45,45.8968-42.3016l44.5309,19.397q-6.7278,6.0832-13.5421,12.0572l120.5375,56.28q-16.359,12.2122-33.008,23.9488Q848.3,122.2143,792.2126,92.6076Zm111.6983,36.575L789.1944,72.6333q7.6076-6.7056,15.1015-13.5528l-5.965-2.714q-16.0613,14.8314-32.66,29l5.3865,2.9169q7.7386-6.5366,15.3666-13.2161l113.7462,56.89Q902.0427,130.5728,903.9109,129.1826Z"/></g></svg>
