<svg id="Layer_1" data-name="Layer 1" xmlns="http://www.w3.org/2000/svg" xmlns:xlink="http://www.w3.org/1999/xlink" width="500.1" height="100" viewBox="0 0 500.1 100"><defs><style>.cls-1{fill:url(#New_Gradient_Swatch_1);}.cls-2{fill:#fff;}.cls-3{fill:none;}.cls-4{fill:url(#New_Gradient_Swatch_1-2);}.cls-5{fill:url(#New_Gradient_Swatch_1-3);}.cls-6{fill:url(#New_Gradient_Swatch_1-4);}.cls-7{fill:url(#New_Gradient_Swatch_1-5);}</style><linearGradient id="New_Gradient_Swatch_1" x1="16" y1="349.4265" x2="84.1" y2="349.4265" gradientTransform="matrix(1, 0, 0, -0.988, 0, 395.2334)" gradientUnits="userSpaceOnUse"><stop offset="0.2123" stop-color="#7f002e"/><stop offset="0.5356" stop-color="#79002c"/><stop offset="1"/></linearGradient><linearGradient id="New_Gradient_Swatch_1-2" x1="116" y1="349.4265" x2="184.1" y2="349.4265" xlink:href="#New_Gradient_Swatch_1"/><linearGradient id="New_Gradient_Swatch_1-3" x1="216" y1="349.4265" x2="284.1" y2="349.4265" xlink:href="#New_Gradient_Swatch_1"/><linearGradient id="New_Gradient_Swatch_1-4" x1="316" y1="349.4265" x2="384.1" y2="349.4265" xlink:href="#New_Gradient_Swatch_1"/><linearGradient id="New_Gradient_Swatch_1-5" x1="416" y1="349.4265" x2="484.1" y2="349.4265" xlink:href="#New_Gradient_Swatch_1"/></defs><title>Toggle_sprite</title><path class="cls-1" d="M31.9,34H68.2A15.9616,15.9616,0,0,1,84.1,50h0A15.9616,15.9616,0,0,1,68.2,66H31.9A15.9616,15.9616,0,0,1,16,50h0A15.898,15.898,0,0,1,31.9,34Z"/><circle class="cls-2" cx="67.6" cy="50" r="13.5"/><rect class="cls-3" x="0.05" width="100" height="100"/><path class="cls-4" d="M131.9,34h36.3a15.9616,15.9616,0,0,1,15.9,16h0a15.9616,15.9616,0,0,1-15.9,16H131.9A15.9616,15.9616,0,0,1,116,50h0A15.898,15.898,0,0,1,131.9,34Z"/><circle class="cls-2" cx="158.6" cy="50" r="13.5"/><rect class="cls-3" x="100.05" width="100" height="100"/><path class="cls-5" d="M231.9,34h36.3a15.9616,15.9616,0,0,1,15.9,16h0a15.9616,15.9616,0,0,1-15.9,16H231.9A15.9616,15.9616,0,0,1,216,50h0A15.898,15.898,0,0,1,231.9,34Z"/><circle class="cls-2" cx="247.6" cy="50" r="13.5"/><rect class="cls-3" x="200.05" width="100" height="100"/><rect class="cls-3" x="100.05" width="100" height="100"/><rect class="cls-3" x="200.05" width="100" height="100"/><path class="cls-6" d="M331.9,34h36.3a15.9616,15.9616,0,0,1,15.9,16h0a15.9616,15.9616,0,0,1-15.9,16H331.9A15.9616,15.9616,0,0,1,316,50h0A15.898,15.898,0,0,1,331.9,34Z"/><circle class="cls-2" cx="339.6" cy="50" r="13.5"/><rect class="cls-3" x="300.05" width="100" height="100"/><rect class="cls-3" x="300.05" width="100" height="100"/><path class="cls-7" d="M431.9,34h36.3a15.9616,15.9616,0,0,1,15.9,16h0a15.9616,15.9616,0,0,1-15.9,16H431.9A15.9616,15.9616,0,0,1,416,50h0A15.898,15.898,0,0,1,431.9,34Z"/><circle class="cls-2" cx="432.6" cy="50" r="13.5"/><rect class="cls-3" x="400.05" width="100" height="100"/><rect class="cls-3" x="400.05" width="100" height="100"/><rect class="cls-3" x="300.05" width="100" height="100"/><rect class="cls-3" x="400.05" width="100" height="100"/></svg>
