<svg xmlns="http://www.w3.org/2000/svg" width="539" height="802" viewBox="0 0 539 802"><defs><style>.cls-1,.cls-3{fill:#a67c52;}.cls-1{opacity:0.42;}.cls-2{fill:#754c24;}.cls-4,.cls-5,.cls-7{fill:none;}.cls-5,.cls-7{stroke:#000;stroke-miterlimit:10;}.cls-5{stroke-width:5px;}.cls-6{fill:#f2f2f2;}.cls-7{stroke-width:2px;}.cls-8{fill:#fff;}</style></defs><title>Vorte</title><g id="Layer_1" data-name="Layer 1"><ellipse class="cls-1" cx="272.5" cy="702" rx="238.5" ry="62"/><path class="cls-2" d="M439,463c0,115.3763,45,245,45,245s-184.4336-7-210.5-7C238.19,701,50,708,50,708s94-235.331,94-336c0-156.8489,132-324,248-264C519.5389,173.9684,439,306.1511,439,463Z"/><path class="cls-3" d="M421.0737,463C421.0737,578.3763,464,708,464,708s-175.9343-7-200.8-7C229.5174,701,50,708,50,708s89.6682-235.331,89.6682-336c0-156.8489,125.9171-324,236.5714-264C497.9012,173.9684,421.0737,306.1511,421.0737,463Z"/><line class="cls-4" x1="393" y1="126" x2="463" y2="41"/><line class="cls-5" x1="354" y1="108" x2="327" y2="23"/><line class="cls-5" x1="393.5" y1="125.5" x2="453.5" y2="52.5"/><line class="cls-5" x1="307.5" y1="131.5" x2="200.5" y2="61.5"/><path class="cls-6" d="M380.5,232c0,22.3675-21.0426,40.5-47,40.5s-47-18.1325-47-40.5c0-16.7756,11.8365-31.1691,28.7055-37.3173,5.623-2.0494,9.8052,29.8173,16.2945,29.8173,9.0327,0,19.47-30.8043,26.6332-26.9985C371.5543,204.6324,380.5,217.416,380.5,232Z"/><path d="M369,232.3778c0,16.8946-15.8939,30.59-35.5,30.59s-35.5-13.6958-35.5-30.59c0-12.671,8.94-23.5426,21.6818-28.1865C323.929,202.6433,327.0985,225,332,225c6.8226,0,14.6957-21.5542,20.1059-18.68C362.2431,211.7065,369,221.3622,369,232.3778Z"/><path class="cls-5" d="M236.5,183.5c1.7494-2.8479,13.6083-21.5065,34-23,12.2778-.8992,21.6364,4.8646,25,7,27.3763,17.38,22.6516,52.9268,36,55,13.1339,2.04,18.9325-32.1836,54-47,15.4647-6.534,24.1321-4.0168,27-3,16.0538,5.6918,21.2253,24.94,22,28"/><path class="cls-7" d="M253,148c1.8205-1.4656,14.1818-11.0779,31-8,19.1633,3.507,27.27,20.4074,28,22"/><path class="cls-7" d="M428,158c-1.82-1.4656-14.1818-11.0779-31-8-19.1633,3.507-27.27,20.4074-28,22"/><path d="M385,288s-28.6538,77-64,77-59-84-59-84,29.6538,21,65,21S385,288,385,288Z"/><path class="cls-8" d="M341,348l-7.3435-5L326,348l-7.3611-5L313,348l-5.663-5L302,347l-5.5-4-3.6939,4.03C300.9517,357.5217,310.455,365,321,365c11.1383,0,21.6107-7.649,30.7327-18.1224L347.59,343Z"/><path class="cls-8" d="M327,302a93.7577,93.7577,0,0,1-9.6736-.51L323,310l5-7,6.121,7L341,302l5.0422,8L351,303l4.7958,7L362,303l4.014,7L372,297l4.45,10.5749C381.8873,296.3629,385,288,385,288S362.3463,302,327,302Z"/><path class="cls-8" d="M262,281s2.9613,10.5089,8.3484,24.0886L272,303l5.7664,7L282,306l5.3652,4L292,301l5.7382,9L304,304l7.8268,6,4.93-8.5762C286.1078,298.0641,262,281,262,281Z"/></g></svg>
